<svg xmlns="http://www.w3.org/2000/svg" viewBox="0 0 1440 900" fill="none" aria-hidden="true">
  <path d="M720 450C720 450 742.459 440.315 755.249 425.626C768.039 410.937 778.88 418.741 789.478 401.499C800.076 384.258 817.06 389.269 826.741 380.436C836.423 371.603 851.957 364.826 863.182 356.242C874.408 347.657 877.993 342.678 898.867 333.214C919.741 323.75 923.618 319.88 934.875 310.177C946.133 300.474 960.784 300.837 970.584 287.701C980.384 274.564 993.538 273.334 1004.85 263.087C1016.15 252.84 1026.42 250.801 1038.22 242.1C1050.02 233.399 1065.19 230.418 1074.63 215.721C1084.07 201.024 1085.49 209.128 1112.65 194.884C1139.8 180.64 1132.49 178.205 1146.43 170.636C1160.37 163.066 1168.97 158.613 1181.46 147.982C1193.95 137.35 1191.16 131.382 1217.55 125.645C1243.93 119.907 1234.19 118.899 1254.53 100.846C1274.86 82.7922 1275.12 92.8914 1290.37 76.09C1305.62 59.2886 1313.91 62.1868 1323.19 56.7536C1332.48 51.3204 1347.93 42.8082 1361.95 32.1468C1375.96 21.4855 1374.06 25.168 1397.08 10.1863C1420.09 -4.79534 1421.41 -3.16992 1431.52 -15.0078" stroke="#46A5CA" stroke-width="2.3" stroke-linecap="round" />
  <path d="M720 450C720 450 712.336 437.768 690.248 407.156C668.161 376.544 672.543 394.253 665.951 365.784C659.358 337.316 647.903 347.461 636.929 323.197C625.956 298.933 626.831 303.639 609.939 281.01C593.048 258.381 598.7 255.282 582.342 242.504C565.985 229.726 566.053 217.66 559.169 197.116C552.284 176.572 549.348 171.846 529.347 156.529C509.345 141.211 522.053 134.054 505.192 115.653C488.33 97.2527 482.671 82.5627 473.599 70.7833C464.527 59.0039 464.784 50.2169 447 32.0721C429.215 13.9272 436.29 0.858563 423.534 -12.6868C410.777 -26.2322 407.424 -44.0808 394.364 -56.4916C381.303 -68.9024 373.709 -72.6804 365.591 -96.1992C357.473 -119.718 358.364 -111.509 338.222 -136.495C318.08 -161.481 322.797 -149.499 315.32 -181.761C307.843 -214.023 294.563 -202.561 285.795 -223.25C277.026 -243.94 275.199 -244.055 258.602 -263.871" stroke="#4FAE4D" stroke-width="2.3" stroke-linecap="round" />
  <path d="M720 450C720 450 696.366 458.841 682.407 472.967C668.448 487.093 673.23 487.471 647.919 492.882C622.608 498.293 636.85 499.899 609.016 512.944C581.182 525.989 596.778 528.494 571.937 533.778C547.095 539.062 551.762 548.656 536.862 556.816C521.962 564.975 515.626 563.279 497.589 575.159C479.552 587.04 484.343 590.435 461.111 598.728C437.879 607.021 442.512 605.226 423.603 618.397C404.694 631.569 402.411 629.541 390.805 641.555C379.2 653.568 369.754 658.175 353.238 663.929C336.722 669.683 330.161 674.689 312.831 684.116C295.5 693.543 288.711 698.815 278.229 704.041C267.747 709.267 258.395 712.506 240.378 726.65C222.361 740.795 230.097 738.379 203.447 745.613C176.797 752.847 193.747 752.523 166.401 767.148C139.056 781.774 151.342 783.641 130.156 791.074C108.97 798.507 116.461 802.688 96.0974 808.817C75.7334 814.946 83.8553 819.505 59.4513 830.576C35.0473 841.648 48.2548 847.874 21.8337 853.886C-4.58739 859.898 10.5966 869.102 -16.396 874.524" stroke="#247AFB" stroke-width="2.3" stroke-linecap="round" />
  <path d="M720 450C720 450 738.983 448.651 790.209 446.852C841.436 445.052 816.31 441.421 861.866 437.296C907.422 433.172 886.273 437.037 930.656 436.651C975.04 436.264 951.399 432.343 1001.57 425.74C1051.73 419.138 1020.72 425.208 1072.85 424.127C1124.97 423.047 1114.39 420.097 1140.02 414.426C1165.65 408.754 1173.1 412.143 1214.55 411.063C1256.01 409.983 1242.78 406.182 1285.56 401.536C1328.35 396.889 1304.66 400.796 1354.41 399.573C1404.16 398.35 1381.34 394.315 1428.34 389.376C1475.35 384.438 1445.96 386.509 1497.93 385.313C1549.9 384.117 1534.63 382.499 1567.23 381.48" stroke="#D6590C" stroke-width="2.3" stroke-linecap="round" />
  <path d="M720 450C720 450 727.941 430.821 734.406 379.251C740.87 327.681 742.857 359.402 757.864 309.798C772.871 260.194 761.947 271.093 772.992 244.308C784.036 217.524 777.105 200.533 786.808 175.699C796.511 150.864 797.141 144.333 808.694 107.307C820.247 70.2821 812.404 88.4169 819.202 37.1016C826 -14.2137 829.525 -0.990829 839.341 -30.3874C849.157 -59.784 844.404 -61.5924 855.042 -98.7516C865.68 -135.911 862.018 -144.559 876.924 -167.488C891.83 -190.418 886.075 -213.535 892.87 -237.945C899.664 -262.355 903.01 -255.031 909.701 -305.588C916.393 -356.144 917.232 -330.612 925.531 -374.777" stroke="#A534A0" stroke-width="2.3" stroke-linecap="round" />
  <path d="M720 450C720 450 687.302 455.326 670.489 467.898C653.676 480.47 653.159 476.959 626.58 485.127C600.002 493.295 599.626 495.362 577.94 503.841C556.254 512.319 556.35 507.426 533.958 517.44C511.566 527.454 505.82 526.441 486.464 539.172C467.108 551.904 461.312 546.36 439.357 553.508C417.402 560.657 406.993 567.736 389.393 572.603C371.794 577.47 371.139 583.76 344.54 587.931C317.941 592.102 327.375 593.682 299.411 607.275C271.447 620.868 283.617 615.022 249.868 622.622C216.119 630.223 227.07 630.86 203.77 638.635C180.47 646.41 168.948 652.487 156.407 657.28C143.866 662.073 132.426 669.534 110.894 675.555C89.3615 681.575 90.3234 680.232 61.1669 689.897C32.0105 699.562 34.3696 702.021 15.9011 709.789C-2.56738 717.558 2.38861 719.841 -29.9494 729.462C-62.2873 739.083 -52.5552 738.225 -77.4307 744.286" stroke="#55BC54" stroke-width="2.3" stroke-linecap="round" />
  <path d="M720 450C720 450 714.384 428.193 708.622 410.693C702.86 393.193 705.531 397.066 703.397 372.66C701.264 348.254 697.8 345.181 691.079 330.466C684.357 315.751 686.929 312.356 683.352 292.664C679.776 272.973 679.079 273.949 674.646 255.07C670.213 236.192 670.622 244.371 665.271 214.561C659.921 184.751 659.864 200.13 653.352 172.377C646.841 144.623 647.767 151.954 644.123 136.021C640.48 120.088 638.183 107.491 636.127 96.8178C634.072 86.1443 632.548 77.5871 626.743 54.0492C620.938 30.5112 622.818 28.9757 618.613 16.577C614.407 4.17831 615.555 -13.1527 608.752 -24.5691C601.95 -35.9855 603.375 -51.0511 599.526 -60.1492C595.678 -69.2472 593.676 -79.3623 587.865 -100.431C582.053 -121.5 584.628 -117.913 578.882 -139.408C573.137 -160.903 576.516 -161.693 571.966 -182.241C567.416 -202.789 567.42 -198.681 562.834 -218.28C558.248 -237.879 555.335 -240.47 552.072 -260.968C548.808 -281.466 547.605 -280.956 541.772 -296.427C535.94 -311.898 537.352 -315.211 535.128 -336.018C532.905 -356.826 531.15 -360.702 524.129 -377.124" stroke="#59BBEB" stroke-width="2.3" stroke-linecap="round" />
  <path d="M720 450C720 450 698.654 436.893 669.785 424.902C640.916 412.91 634.741 410.601 615.568 402.586C596.396 394.571 594.829 395.346 568.66 378.206C542.492 361.067 547.454 359.714 514.087 348.978C480.721 338.242 479.79 334.731 467.646 329.846C455.502 324.96 448.63 312.156 416.039 303.755C383.448 295.354 391.682 293.73 365.021 280.975C338.36 268.219 328.715 267.114 309.809 252.575C290.903 238.036 277.185 246.984 259.529 230.958C241.873 214.931 240.502 224.403 211.912 206.241C183.323 188.078 193.288 190.89 157.03 181.714C120.772 172.538 127.621 170.109 108.253 154.714C88.8857 139.319 75.4927 138.974 56.9647 132.314C38.4366 125.654 33.8997 118.704 4.77584 106.7C-24.348 94.6959 -19.1326 90.266 -46.165 81.9082" stroke="#9F39A5" stroke-width="2.3" stroke-linecap="round" />
</svg>
