<?xml version="1.0" encoding="UTF-8"?>
<svg width="1200pt" height="1200pt" version="1.1" viewBox="0 0 1200 1200" xmlns="http://www.w3.org/2000/svg">
 <path d="m60 60v1080h1080v-1080zm24.434 1044.8h1031.1v10.789l-1031.1-0.003906zm0-4.875v-13.367h1031.1v13.367zm0-18.227v-13.414h1031.1v13.414zm0-18.277v-13.414h1031.1v13.414zm0-18.273v-13.414h1031.1v13.414zm0-18.289v-13.414h1031.1v13.414zm0-18.277v-13.367h1031.1v13.367zm0-18.227v-13.414h1031.1v13.414zm0-18.277v-13.414h1031.1v13.414zm0-18.273v-13.414h1031.1v13.414zm0-18.289v-13.414h1031.1v13.414zm0-18.277v-13.367h1031.1v13.367zm0-18.227v-13.414h1031.1v13.414zm0-18.277v-9.4453l772.12 0.003907h259v9.4453zm508.25-506.45h-508.25v-13.391l508.25-0.003906zm0 4.8594v13.414h-508.25v-13.414zm0 18.285v13.414l-508.25 0.003906v-13.414zm0 18.277v13.391l-508.25 0.003907v-13.391zm0 18.254v13.414h-508.25v-13.414zm0 18.273v13.391l-508.25 0.003906v-13.391zm0 18.254v13.414h-508.25v-13.414zm0 18.289v13.391h-508.25v-13.391zm0 18.25v13.414l-508.25 0.003907v-13.414zm0 18.277v13.414h-508.25v-13.414zm0 18.273v13.391l-508.25 0.003906v-13.391zm0 18.254v13.414h-508.25v-13.414zm-249.24-218.38h249.24v12.574h-508.25v-12.574zm249.24 236.66v12.574h-508.25v-12.574zm0 27.215h263.89v249.24h-772.14v-249.24zm263.88-14.641h-249.24v-508.25h249.24zm-527.77-263.89h-244.36v-244.36h244.34v244.36z"/>
</svg>
