<?xml version="1.0" encoding="UTF-8"?>
<svg width="1200pt" height="1200pt" version="1.1" viewBox="0 0 1200 1200" xmlns="http://www.w3.org/2000/svg">
 <path d="m59.988 60v1080h1080v-1080zm719.48 356.26-8.1953-8.1602h344.3v8.1602zm-695.05 31.355 9.0469 9v658.96l-9.0469-0.003906zm27.297 27.18v640.78l-13.379-0.003906v-654.11zm4.875 4.8477 13.414 13.355v622.57h-13.414zm18.273 18.191 13.391 13.332v604.39h-13.391zm18.254 18.18 13.414 13.355v586.2h-13.414zm18.273 18.203 13.391 13.332v568.02h-13.391zm18.266 18.18 13.414 13.355v549.82h-13.414zm18.277 18.195 13.414 13.355v531.62h-13.414zm18.273 18.203 13.391 13.332v513.45h-13.391zm18.254 18.18 13.414 13.355v495.24h-13.414zm18.273 18.191 13.391 13.332v477.07h-13.391zm18.266 18.18 13.414 13.355v458.87h-13.414zm18.277 18.203 13.414 13.355v440.66h-13.414zm18.273 18.207 13.391 13.332v422.48h-13.391zm18.254 18.168 13.414 13.355v404.29h-13.414zm18.277 18.203 13.391 13.332v386.11h-13.391zm18.262 18.18 13.414 13.355v367.91h-13.414zm-287.93-318.05v-331.82h331.82v331.82zm650.17-44.691h380.99v13.414l-367.53 0.003906zm-4.8984-4.8711-13.465-13.414h399.35v13.414zm-18.348-18.273-13.441-13.391h417.67v13.391zm-18.336-18.254-13.465-13.414h436.03v13.414zm-18.348-18.277-13.441-13.391h454.36v13.391zm-18.336-18.25-13.465-13.414h472.71v13.414zm-18.359-18.289-13.441-13.391h491.05v13.391zm-18.324-18.25-13.465-13.414h509.4v13.414zm-18.359-18.277-13.465-13.414h527.76v13.414zm-18.359-18.277-13.441-13.391h546.1v13.391zm-18.324-18.262-13.465-13.414h564.45v13.414zm-18.363-18.277-13.441-13.391h582.78v13.391zm-18.336-18.25-13.465-13.414h601.14v13.414zm-18.348-18.277-13.441-13.391h619.46v13.391zm-18.336-18.254-13.465-13.414h637.82v13.414zm-18.348-18.285-13.465-13.414h656.17v13.414zm280.07 278.9h362.63v13.391h-349.18zm362.64-297.18h-661.07l-8.2695-8.2305h669.32v8.2305zm-724.95 1022.9v-363.06l13.414 13.355v349.7zm18.273 0v-344.87l7.3438 7.3203v337.55zm21.996-340.61v-344.04h684.68v346.51l-336.78 338.13h-347.91z"/>
</svg>
