<?xml version="1.0" encoding="UTF-8"?>
<svg width="1200pt" height="1200pt" version="1.1" viewBox="0 0 1200 1200" xmlns="http://www.w3.org/2000/svg">
 <path d="m59.988 60v1080h1080v-1080zm24.434 1045.2v-1020.8h1020.8l-246.52 246.5h-0.011719l-263.88 263.89zm1031.2-1010.4v15.059h-15.059zm0 327.45h-244.36v-10.02h244.34v10.02zm0 59.48h-244.36v-9.9961h244.34v9.9961zm-78.18 198.24-9.9727 9.9727h-156.2v-9.9727zm-166.18-4.8594v-10.02h181.07l-10.02 10.02zm151.34 19.703-10.02 10.02h-141.32v-10.02zm-14.891 14.891-10.02 10.02h-126.43v-10.02zm-14.891 14.895-9.9727 9.9727h-111.57v-9.9727zm-14.844 14.844-10.02 10.02h-96.684v-10.02zm-14.895 14.891-10.02 10.02h-81.805v-10.02zm-14.891 14.891-9.9727 9.9727h-66.961v-9.9727zm-14.832 14.832-10.02 10.02h-52.066v-10.02zm-14.891 14.895-10.02 10.02h-37.176l-0.003906-10.02zm-14.895 14.891-9.9727 9.9727h-22.332v-9.9727zm-14.844 14.844-17.473 17.473v-17.473zm168.47-168.47h-185.94v-10.02h195.96zm-227.12 227.12v-16.078h16.078zm-4.8594 4.8594-9.9727 9.9727v-30.926h9.9727zm-14.844 14.844-10.02 10.02v-45.816h10.02zm-14.891 14.895-10.02 10.02v-60.707h10.02zm-14.895 14.891-9.9727 9.9727v-75.551h9.9727zm-14.844 14.844-10.02 10.02v-90.434h10.02zm-14.891 14.891-10.02 10.02v-105.32h10.02zm-14.879 14.883-9.9727 9.9727v-120.17h9.9727zm-14.844 14.844-10.02 10.02-0.003907-135.06h10.02zm-14.895 14.891-10.02 10.02v-149.95h10.02zm-14.891 14.895-9.9727 9.9727v-164.8h9.9727zm-14.844 14.844-10.02 10.02v-179.69h10.02zm-14.895 14.891-10.02 10.02v-194.58h10.02zm410.48-410.48h-200.83v-9.9727h210.8zm-425.36 225.93v199.44l-9.9727 9.9727v-209.41zm440.21-240.77h-215.68v-10.02h225.7zm-455.05 240.77v214.29l-10.02 10.02v-224.3zm469.93-255.66h-230.56v-10.02h240.57zm-484.82 255.66v229.18l-10.02 10.02v-239.2zm254.27-270.54v-9.9727h244.34v9.9727zm244.36-14.844h-244.36v-10.02h244.34v10.02zm0-14.891h-244.36v-9.9961h244.34v9.9961zm0-14.867h-244.36v-10.02h244.34v10.02zm0-14.895h-244.36v-9.9961h244.34v9.9961zm0-14.867h-244.36v-9.9961h244.34v9.9961zm0-14.855h-244.36v-10.02h244.34v10.02zm0-14.891h-244.36v-9.9961h244.34v9.9961zm0-29.738h-244.36v-10.02h244.34v10.02zm0-14.891h-244.36v-9.9961h244.34v9.9961zm0-14.867h-244.36v-9.9961h244.34v9.9961zm0-29.75h-244.36v-9.9961h244.34v9.9961zm0-14.867h-244.36v-9.9961h244.34v9.9961zm0-14.867h-244.36v-10.02h244.34v10.02zm0-14.895h-244.36v-9.9961h244.34v9.9961zm0-14.867h-244.36v-8.7109l1.3086-1.3086h243.04v10.02zm0-14.879h-238.18l9.9961-9.9961h228.18zm0-14.867h-223.3l9.9961-9.9961h213.31zm0-14.867h-208.44l10.02-10.02h198.42zm0-14.895h-193.56l9.9961-9.9961h183.55v9.9961zm0-14.867h-178.68l9.9961-9.9961h168.68zm0-14.867h-163.82l10.02-10.02h153.79l-0.003906 10.02zm0-14.883h-148.93l9.9961-9.9961h138.93l-0.003906 9.9961zm0-14.867h-134.06l9.9961-9.9961h124.07zm0-14.867h-119.2l10.02-10.02h109.18zm0-14.891h-104.3l9.9961-9.9961h94.309zm0-14.871h-89.438l9.9961-9.9961h79.441zm0-14.867h-74.578l10.02-10.02h64.547v10.02zm0-14.879h-59.688l9.9961-9.9961h49.68v9.9961zm0-14.867h-44.816l9.9961-9.9961h34.812l-0.003906 9.9961zm0-14.867h-29.953l10.02-10.02h19.922v10.02zm-1004.4 974.39v16.414h-16.414zm4.875-4.8711 10.02-10.02v31.309l-10.02-0.003906zm14.891-14.895 9.9961-9.9961v46.176h-9.9961zm14.867-14.855 9.9961-9.9961v61.031h-9.9961zm14.867-14.867 10.02-10.02v75.926h-10.02zm14.883-14.891 9.9961-9.9961v90.793h-9.9961zm14.867-14.871 9.9961-9.9961v105.66h-9.9961zm14.867-14.867 10.02-10.02v120.55h-10.02zm14.891-14.891 9.9961-9.9961v135.42h-9.9961zm14.871-14.855 9.9961-9.9961v150.28h-9.9961zm14.867-14.867 10.02-10.02v165.17l-10.02-0.003906zm14.879-14.895 9.9961-9.9961v180.04h-9.9961zm14.867-14.867 9.9961-9.9961v194.9h-9.9961zm14.867-14.867 10.02-10.02v209.79h-10.02zm14.895-14.883 9.9961-9.9961v224.65h-9.9961zm14.867-14.867 9.9961-9.9961v239.52h-9.9961zm14.867-14.781h10.02v244.3h-10.02zm14.883 0h9.9961v244.3h-9.9961zm14.867 0h10.02v244.3h-10.02zm14.891 0h9.9961v244.3h-9.9961zm14.867 0h9.9961v244.3h-9.9961zm14.867 0h10.023v244.3h-10.02zm14.895 0h9.9961v244.3h-9.9961zm14.855 0h9.9961v244.3h-9.9961zm14.867 0h10.02v244.3h-10.02zm14.895 0h9.9961v244.3h-9.9961zm14.867 0h9.9961v244.3h-9.9961zm14.867 0h10.02v244.3h-10.02zm14.891 0h9.9961v244.3h-9.9961zm14.855 0h9.9961v244.3h-9.9961zm14.871 0h10.02v244.3l-10.02-0.003906zm14.891 0h9.9961v244.3h-9.9961zm14.867 0h10.02v244.3l-10.02-0.003906zm14.895 0h9.9727v244.05l-0.23828 0.23828h-9.7305z"/>
</svg>
