<svg width="128" height="32" viewBox="0 0 128 32" fill="none" xmlns="http://www.w3.org/2000/svg">
<g clip-path="url(#clip0_802_9106)">
<path fill-rule="evenodd" clip-rule="evenodd" d="M4.13675 5.23882C3.96769 5.42461 3.97889 5.70966 4.15649 5.8873L26.1068 27.8376C26.2844 28.0152 26.5694 28.0264 26.7552 27.8573C29.9738 24.9286 31.9941 20.706 31.9941 16.0116C31.9941 7.16864 24.8254 0 15.9825 0C11.288 0 7.06545 2.02028 4.13675 5.23882ZM1.3933 9.40461C1.31219 9.58346 1.35309 9.79315 1.49194 9.932L22.0621 30.5021C22.2009 30.641 22.4106 30.6819 22.5895 30.6008C23.0647 30.3852 23.5274 30.1471 23.9765 29.8879C24.2434 29.7338 24.2842 29.3697 24.0663 29.1517L2.8423 7.92774C2.62439 7.70982 2.26024 7.75072 2.10616 8.0176C1.84692 8.46662 1.60884 8.92941 1.3933 9.40461ZM0.14538 15.2947C0.0490664 15.1984 -0.00217879 15.0657 0.00688827 14.9298C0.0493531 14.2932 0.129013 13.6669 0.243714 13.053C0.31249 12.6848 0.762346 12.5571 1.02717 12.8219L19.1722 30.9669C19.437 31.2317 19.3093 31.6816 18.9411 31.7503C18.3271 31.8651 17.7008 31.9447 17.0643 31.9872C16.9284 31.9962 16.7957 31.945 16.6993 31.8487L0.14538 15.2947ZM1.25889 19.7628C0.928302 19.4323 0.394804 19.7171 0.515876 20.1687C1.99097 25.6705 6.32356 30.0031 11.8254 31.4782C12.2769 31.5993 12.5618 31.0658 12.2312 30.7352L1.25889 19.7628ZM64.5129 8.8112C65.6607 8.8112 66.591 7.87744 66.591 6.7256C66.591 5.57376 65.6607 4.64 64.5129 4.64C63.3654 4.64 62.4351 5.57376 62.4351 6.7256C62.4351 7.87744 63.3654 8.8112 64.5129 8.8112ZM46.7142 26.9999V4.64125H50.407V23.7286H60.3638V26.9999H46.7142ZM72.9977 17.8764V26.9999H69.4246V11.1538H72.9529V13.8698L72.9977 13.8398C73.3564 12.9895 73.9346 12.2792 74.7321 11.709C75.5292 11.1287 76.5458 10.8386 77.782 10.8386C78.8783 10.8386 79.8748 11.0837 80.7721 11.5739C81.669 12.0541 82.3865 12.7594 82.9247 13.6897C83.463 14.6201 83.7321 15.7605 83.7321 17.111V26.9999H80.159V17.6062C80.159 16.4058 79.8399 15.4954 79.2022 14.8752C78.5743 14.245 77.7321 13.9298 76.6754 13.9298C75.9977 13.9298 75.3798 14.0699 74.8217 14.35C74.2636 14.6301 73.8201 15.0603 73.4911 15.6405C73.1622 16.2207 72.9977 16.966 72.9977 17.8764ZM105.351 26.7298C106.169 27.0799 107.106 27.255 108.162 27.255C109.029 27.255 109.771 27.1449 110.389 26.9248C111.008 26.6948 111.516 26.3896 111.914 26.0095C112.323 25.6293 112.647 25.2142 112.886 24.764H112.946V26.9999H116.37V16.0907C116.37 15.3204 116.22 14.6151 115.921 13.9748C115.622 13.3346 115.189 12.7794 114.62 12.3092C114.062 11.839 113.385 11.4789 112.587 11.2288C111.79 10.9687 110.893 10.8386 109.896 10.8386C108.531 10.8386 107.35 11.0737 106.353 11.5439C105.366 12.0041 104.594 12.6243 104.035 13.4046C103.477 14.1849 103.173 15.0653 103.123 16.0456H106.577C106.617 15.5855 106.777 15.1753 107.056 14.8152C107.335 14.455 107.714 14.1749 108.192 13.9748C108.67 13.7648 109.223 13.6597 109.851 13.6597C110.479 13.6597 111.012 13.7648 111.451 13.9748C111.899 14.1849 112.243 14.47 112.482 14.8302C112.722 15.1903 112.842 15.6105 112.842 16.0907V16.2107C112.842 16.5708 112.717 16.8359 112.468 17.006C112.228 17.1761 111.82 17.3011 111.242 17.3812C110.674 17.4612 109.896 17.5562 108.909 17.6663C108.102 17.7563 107.325 17.8914 106.577 18.0714C105.83 18.2515 105.162 18.5166 104.574 18.8667C103.996 19.2169 103.537 19.682 103.198 20.2623C102.859 20.8425 102.69 21.5878 102.69 22.4981C102.69 23.5485 102.929 24.4289 103.408 25.1391C103.886 25.8394 104.534 26.3696 105.351 26.7298ZM111.137 24.0737C110.559 24.3838 109.846 24.5389 108.999 24.5389C108.142 24.5389 107.459 24.3588 106.951 23.9987C106.442 23.6286 106.188 23.1234 106.188 22.4831C106.188 21.9829 106.328 21.5778 106.607 21.2676C106.896 20.9575 107.275 20.7124 107.743 20.5324C108.212 20.3523 108.72 20.2273 109.268 20.1572C109.667 20.0972 110.056 20.0372 110.434 19.9772C110.813 19.9071 111.167 19.8421 111.496 19.7821C111.825 19.7121 112.104 19.642 112.333 19.572C112.572 19.502 112.747 19.4269 112.856 19.3469V21.1176C112.856 21.7378 112.712 22.3081 112.423 22.8283C112.144 23.3385 111.715 23.7536 111.137 24.0737ZM119.487 26.9999V11.1538H122.926V13.7648H122.971C123.26 12.8644 123.713 12.1792 124.331 11.709C124.959 11.2288 125.781 10.9887 126.798 10.9887C127.047 10.9887 127.272 10.9987 127.471 11.0187C127.68 11.0287 127.855 11.0387 127.994 11.0487V14.2749C127.865 14.2549 127.635 14.23 127.306 14.1999C126.978 14.1699 126.629 14.1549 126.26 14.1549C125.672 14.1549 125.134 14.29 124.645 14.5601C124.157 14.8302 123.768 15.2453 123.479 15.8055C123.2 16.3558 123.06 17.051 123.06 17.8914V26.9999H119.487ZM62.719 26.9999V11.1538H66.2921V26.9999H62.719ZM89.6751 26.2946C90.8214 27.0049 92.182 27.36 93.7567 27.36C94.9727 27.36 96.0789 27.1399 97.0757 26.6997C98.0825 26.2496 98.9196 25.6343 99.5874 24.854C100.255 24.0637 100.689 23.1534 100.888 22.123H97.5244C97.3746 22.5932 97.1305 23.0083 96.7916 23.3684C96.4629 23.7186 96.0492 23.9937 95.551 24.1938C95.0524 24.3939 94.4745 24.4939 93.8166 24.4939C92.9295 24.4939 92.167 24.2938 91.5292 23.8937C90.9014 23.4935 90.423 22.9383 90.094 22.228C89.7954 21.5743 89.6322 20.834 89.6047 20.0072H101.098V19.0468C101.098 17.8263 100.918 16.7159 100.559 15.7155C100.201 14.7051 99.6921 13.8348 99.0341 13.1045C98.3765 12.3642 97.5842 11.794 96.6572 11.3939C95.7401 10.9937 94.7186 10.7936 93.5922 10.7936C92.1273 10.7936 90.8316 11.1488 89.7052 11.859C88.5788 12.5693 87.6969 13.5497 87.0588 14.8002C86.421 16.0507 86.102 17.4812 86.102 19.0918C86.102 20.6924 86.4111 22.118 87.029 23.3684C87.647 24.6089 88.5292 25.5843 89.6751 26.2946ZM97.1954 15.8055C96.8665 15.1253 96.398 14.6001 95.79 14.23C95.182 13.8598 94.4645 13.6747 93.637 13.6747C92.8197 13.6747 92.1071 13.8598 91.4991 14.23C90.9013 14.6001 90.4329 15.1253 90.094 15.8055C89.8521 16.2982 89.6991 16.8584 89.6351 17.4862H97.654C97.59 16.8584 97.437 16.2982 97.1954 15.8055Z" fill="black"/>
</g>
<defs>
<clipPath id="clip0_802_9106">
<rect width="128" height="32" fill="white"/>
</clipPath>
</defs>
</svg>
