<svg width="106" height="28" viewBox="0 0 106 28" fill="none" xmlns="http://www.w3.org/2000/svg">
<g clip-path="url(#clip0_802_9108)">
<path d="M71.7246 5.79364C69.8421 5.79364 68.3951 6.46514 67.0415 7.87061V6.12158H63.3542V23.3307H67.3216V13.3519C67.3216 11.0719 68.6752 9.61963 70.7289 9.61963C71.1023 9.61963 71.429 9.66648 71.6624 9.71333L74.4163 6.07474C73.3738 5.87172 72.4248 5.79364 71.7246 5.79364ZM106 6.10597H101.41L97.1783 11.7278L92.9464 6.10597H88.3722L94.8446 14.7886L88.3722 23.3307H93.0398L97.1628 17.8806L101.286 23.3307H106.016L99.5121 14.8042L106 6.10597ZM22.5443 2.23313C21.1907 4.04462 20.8639 4.65365 19.557 4.65365H0V27.9844H7.67034C9.39733 27.9844 11.0776 27.1411 12.1667 25.7513C13.567 23.8773 13.7537 23.3307 15.1073 23.3307H34.6954V0H26.9784C25.2514 0 23.5711 0.84328 22.5443 2.23313ZM28.6121 17.3185H20.4283C18.6546 17.3185 17.021 18.068 15.9319 19.5047C14.5316 21.3787 14.2516 21.9253 12.9447 21.9253H6.03669V10.7284H14.2205C15.9941 10.7284 17.6278 9.88511 18.7169 8.49526C20.1171 6.68377 20.4905 6.12158 21.7508 6.12158H28.6276V17.3185H28.6121ZM57.9865 11.5717C59.7135 10.5878 60.9271 8.87005 60.9271 6.57446C60.9271 3.21695 58.3599 0 54.6103 0H43.3926V23.3307H54.6103C58.6711 23.3307 61.4872 20.4417 61.4872 16.8031C61.4872 14.6481 60.507 12.7897 57.9865 11.5717ZM47.3756 3.63859H54.2991C56.0261 3.63859 57.053 5.2783 57.053 6.715C57.053 8.49526 55.5127 9.69771 54.0658 9.69771H47.3756V3.63859ZM54.0502 19.6921H47.36V13.3363H54.2836C56.0572 13.3363 57.5042 14.8823 57.5042 16.4596C57.5197 18.2398 55.6994 19.6921 54.0502 19.6921Z" fill="black"/>
<path d="M84.4047 18.3804C83.7512 19.4111 82.491 20.0201 81.0907 20.0201C78.897 20.0201 77.0766 18.521 77.0766 16.241H88.9477C89.1344 15.5383 89.1811 15.2103 89.1811 14.6013C89.1811 9.36982 85.9605 5.77808 81.0907 5.77808C76.3142 5.77808 72.9536 9.18243 72.9536 14.7418C72.9536 20.1607 76.1742 23.6587 81.1841 23.6587C84.6847 23.6587 87.7809 21.9409 88.6677 18.3804C88.6521 18.3804 84.4047 18.3804 84.4047 18.3804ZM81.0751 9.43229C83.2689 9.43229 84.9648 10.8378 84.9181 12.9303H77.1077C77.1077 10.869 78.8814 9.43229 81.0751 9.43229Z" fill="black"/>
</g>
<defs>
<clipPath id="clip0_802_9108">
<rect width="106" height="28" fill="white"/>
</clipPath>
</defs>
</svg>
