<svg width="97" height="32" viewBox="0 0 97 32" fill="none" xmlns="http://www.w3.org/2000/svg">
<g clip-path="url(#clip0_802_9143)">
<path d="M87.9144 21.0286C85.2242 21.0286 83.2953 18.8952 83.2953 16.1524C83.2953 13.4095 85.2242 11.2762 87.9144 11.2762C90.6046 11.2762 92.4827 13.4095 92.4827 16.1524C92.4827 18.8952 90.6046 21.0286 87.9144 21.0286ZM87.4575 23.9238C89.6402 23.9238 91.5182 23.0603 92.6857 21.2825C92.8887 23.0095 94.1577 23.6698 95.7312 23.6698H97.0002V20.927H96.4418C95.5282 20.927 95.3252 20.4698 95.3252 19.454V8.58411H92.4319V10.819C91.4675 9.24443 89.5894 8.33015 87.4575 8.33015C83.6506 8.33015 80.1483 11.5301 80.1483 16.1524C80.1483 20.7746 83.7014 23.9238 87.4575 23.9238ZM72.5345 20.1651C72.5345 22.654 74.0572 23.6698 75.8845 23.6698H79.3869V20.927H76.7982C75.7323 20.927 75.5292 20.5206 75.5292 19.454V11.327H79.3869V8.58411H75.5292V3.55554H72.4837C72.5345 3.55554 72.5345 20.1651 72.5345 20.1651ZM58.7788 23.6698H61.8244V17.219H62.8395L68.0169 23.6698H71.8238L65.2252 15.4921L70.3011 8.63491H66.9002L62.7888 14.4254H61.8751V3.55554H58.8296C58.7788 3.55554 58.7788 23.6698 58.7788 23.6698ZM48.9316 8.33015C44.7187 8.33015 41.2163 11.5301 41.2163 16.1524C41.2163 20.7746 44.7187 23.9746 48.9316 23.9746C53.1446 23.9746 56.647 20.7746 56.647 16.1524C56.647 11.5301 53.1446 8.33015 48.9316 8.33015ZM48.9316 21.0286C46.2414 21.0286 44.3126 18.8952 44.3126 16.1524C44.3126 13.4095 46.2414 11.2762 48.9316 11.2762C51.6219 11.2762 53.5507 13.4095 53.5507 16.1524C53.5507 18.8952 51.6219 21.0286 48.9316 21.0286Z" fill="black"/>
<path fill-rule="evenodd" clip-rule="evenodd" d="M17.5625 0.203175L16.9027 8.33016C16.5981 8.27936 16.2936 8.27936 15.9383 8.27936C15.5322 8.27936 15.1261 8.33016 14.7708 8.38095L14.4155 4.46984C14.4155 4.36825 14.517 4.21587 14.6185 4.21587H15.2784L14.9738 0.253968C14.9738 0.152381 15.0754 0 15.1769 0H17.3595C17.5118 0 17.6133 0.101587 17.5625 0.203175ZM12.0806 0.609524C12.0298 0.507937 11.9283 0.406349 11.8268 0.457143L9.79644 1.21905C9.64416 1.26984 9.59341 1.42222 9.64416 1.52381L11.3192 5.13016L10.7101 5.38413C10.6086 5.43492 10.5578 5.53651 10.6086 5.68889L12.2836 9.24444C12.8927 8.88889 13.5526 8.63492 14.2632 8.48254L12.0806 0.609524ZM7.10623 2.89524L11.8268 9.54921C11.2177 9.95555 10.7101 10.4127 10.2533 10.9206L7.36002 8.12698C7.2585 8.0254 7.2585 7.87302 7.36002 7.82222L7.86761 7.41587L5.07588 4.57143C4.97436 4.46984 4.97436 4.31746 5.07588 4.26667L6.75092 2.89524C6.85243 2.74286 7.00471 2.79365 7.10623 2.89524ZM3.14704 6.70476C3.04553 6.65397 2.89325 6.65397 2.84249 6.75556L1.77656 8.63492C1.7258 8.73651 1.77656 8.88889 1.87807 8.93968L5.48195 10.6667L5.12664 11.2254C5.07588 11.327 5.12663 11.4794 5.22815 11.5302L8.83202 13.1556C9.08582 12.4952 9.44113 11.8857 9.8472 11.327L3.14704 6.70476ZM0.456829 11.8349C0.456829 11.7333 0.609105 11.6317 0.710623 11.6825L8.57823 13.7143C8.3752 14.3746 8.27368 15.0857 8.22292 15.7968L4.26374 15.4921C4.16222 15.4921 4.0607 15.3905 4.0607 15.2381L4.16222 14.5778L0.304553 14.2222C0.203035 14.2222 0.101518 14.1206 0.101518 13.9683L0.456829 11.8349ZM0.203035 17.1683C0.0507588 17.1683 0 17.2698 0 17.4222L0.40607 19.5556C0.40607 19.6571 0.558346 19.7587 0.659864 19.7079L4.51753 18.6921L4.61905 19.3524C4.61905 19.454 4.77132 19.5556 4.87284 19.5048L8.67975 18.4381C8.47671 17.7778 8.32444 17.0667 8.27368 16.3556L0.203035 17.1683ZM1.472 22.8063C1.42125 22.7048 1.472 22.5524 1.57352 22.5016L8.93354 18.9968C9.18734 19.6571 9.59341 20.2667 10.0502 20.8254L6.85243 23.1111C6.75092 23.1619 6.59864 23.1619 6.54788 23.0603L6.09105 22.5016L2.79173 24.7873C2.69021 24.8381 2.53794 24.8381 2.48718 24.7365L1.472 22.8063ZM10.3548 21.2825L4.61905 27.073C4.51753 27.1746 4.51753 27.327 4.61905 27.3778L6.29409 28.7492C6.3956 28.8508 6.54788 28.8 6.59864 28.6984L8.93354 25.4476L9.44113 25.9048C9.54265 26.0063 9.69492 25.9556 9.74568 25.854L11.9791 22.6032C11.37 22.2476 10.8116 21.7905 10.3548 21.2825ZM9.23809 30.527C9.13658 30.4762 9.08582 30.3746 9.13658 30.2222L12.4867 22.8571C13.0958 23.1619 13.8064 23.4159 14.4662 23.5683L13.4511 27.3778C13.4003 27.4794 13.2988 27.581 13.1973 27.5302L12.5882 27.2762L11.5222 31.1365C11.4715 31.2381 11.37 31.3397 11.2684 31.2889L9.23809 30.527ZM15.0246 23.6698L14.3647 31.7968C14.3647 31.8984 14.4662 32.0508 14.5678 32.0508H16.7504C16.8519 32.0508 16.9534 31.9492 16.9534 31.7968L16.6489 27.8349H17.3087C17.4103 27.8349 17.5118 27.7333 17.5118 27.581L17.1565 23.6698C16.7504 23.7206 16.3951 23.7714 15.989 23.7714C15.6845 23.7206 15.3291 23.7206 15.0246 23.6698ZM22.8922 1.72698C22.943 1.6254 22.8922 1.47302 22.7907 1.42222L20.7603 0.660317C20.6588 0.609524 20.5065 0.711111 20.5065 0.812698L19.4406 4.67302L18.8315 4.41905C18.73 4.36825 18.5777 4.46984 18.5777 4.57143L17.5625 8.38095C18.2732 8.53333 18.933 8.7873 19.5421 9.09206L22.8922 1.72698ZM27.359 4.92698L21.6232 10.7175C21.1664 10.2095 20.6081 9.75238 19.999 9.39682L22.2323 6.14603C22.2831 6.04444 22.4354 6.04444 22.5369 6.09524L23.0445 6.55238L25.3794 3.30159C25.4301 3.2 25.5824 3.2 25.6839 3.25079L27.359 4.62222C27.4097 4.72381 27.4097 4.87619 27.359 4.92698ZM30.4045 9.49841C30.506 9.44762 30.5568 9.29524 30.506 9.19365L29.4401 7.31429C29.3893 7.2127 29.237 7.1619 29.1355 7.26349L25.8362 9.54921L25.4809 8.99048C25.4301 8.88889 25.2779 8.83809 25.1763 8.93968L21.9785 11.1746C22.4354 11.7333 22.7907 12.3429 23.0952 13.0032L30.4045 9.49841ZM31.5719 12.4444L31.9273 14.5778C31.9273 14.6794 31.8765 14.8317 31.7242 14.8317L23.6536 15.5937C23.6028 14.8825 23.4505 14.1714 23.2475 13.5111L27.0544 12.4444C27.1559 12.3937 27.3082 12.4952 27.3082 12.5968L27.4097 13.2571L31.2674 12.2413C31.4197 12.2413 31.5212 12.3429 31.5719 12.4444ZM31.2166 20.3175C31.3182 20.3683 31.4704 20.2667 31.4704 20.1651L31.8257 18.0317C31.8257 17.9302 31.775 17.7778 31.6227 17.7778L27.6635 17.4222L27.765 16.7619C27.765 16.6603 27.7143 16.5079 27.562 16.5079L23.6028 16.2032C23.6028 16.9143 23.4505 17.6254 23.2475 18.2857L31.2166 20.3175ZM29.1355 25.1936C29.0848 25.2952 28.9325 25.346 28.831 25.2444L22.1308 20.6222C22.5369 20.0635 22.8922 19.454 23.146 18.7936L26.7499 20.419C26.8514 20.4698 26.9021 20.6222 26.8514 20.7238L26.4961 21.3333L30.0999 23.0603C30.2015 23.1111 30.2522 23.2635 30.2015 23.3651L29.1355 25.1936ZM20.1512 22.4508L24.8718 29.1048C24.9226 29.2063 25.0748 29.2063 25.1763 29.1556L26.8514 27.7841C26.9529 27.6825 26.9529 27.5809 26.8514 27.4794L24.0597 24.6349L24.5672 24.2286C24.6688 24.127 24.6688 24.0254 24.5672 23.9238L21.7755 21.1302C21.3187 21.6381 20.7603 22.0952 20.1512 22.4508ZM20.1512 31.4921C20.0497 31.5429 19.8974 31.4413 19.8974 31.3397L17.7656 23.5175C18.4762 23.3651 19.1361 23.1111 19.7452 22.7556L21.4202 26.3111C21.471 26.4127 21.4202 26.5651 21.3187 26.6159L20.7096 26.8698L22.3846 30.4762C22.4354 30.5778 22.3846 30.7302 22.2831 30.7809L20.1512 31.4921Z" fill="black"/>
</g>
<defs>
<clipPath id="clip0_802_9143">
<rect width="97" height="32" fill="white"/>
</clipPath>
</defs>
</svg>
