<svg width="620" height="465" viewBox="0 0 620 465" fill="none" xmlns="http://www.w3.org/2000/svg">
<g clip-path="url(#clip0_927_13063)">
<rect width="620" height="465" fill="#F5F5F5"/>
<rect y="205" width="630" height="232" fill="url(#paint0_linear_927_13063)"/>
<g clip-path="url(#clip1_927_13063)">
<rect x="35" y="0.107422" width="550" height="452.785" rx="10.6538" fill="#F5F5F5"/>
<line x1="74.9342" y1="-19.3066" x2="74.9342" y2="473.393" stroke="#251B18" stroke-opacity="0.04" stroke-width="0.919216"/>
<line x1="148.471" y1="-19.3066" x2="148.471" y2="473.393" stroke="#251B18" stroke-opacity="0.04" stroke-width="0.919216"/>
<line x1="222.008" y1="-19.3066" x2="222.008" y2="473.393" stroke="#251B18" stroke-opacity="0.04" stroke-width="0.919216"/>
<line x1="295.546" y1="-19.3066" x2="295.546" y2="473.393" stroke="#251B18" stroke-opacity="0.04" stroke-width="0.919216"/>
<line x1="369.083" y1="-19.3066" x2="369.083" y2="473.393" stroke="#251B18" stroke-opacity="0.04" stroke-width="0.919216"/>
<line x1="442.622" y1="-19.3066" x2="442.622" y2="473.393" stroke="#251B18" stroke-opacity="0.04" stroke-width="0.919216"/>
<line x1="516.159" y1="-19.3066" x2="516.159" y2="473.393" stroke="#251B18" stroke-opacity="0.04" stroke-width="0.919216"/>
<line x1="674.471" y1="70.401" x2="-54.4673" y2="70.401" stroke="#251B18" stroke-opacity="0.04" stroke-width="0.919216"/>
<line x1="674.471" y1="143.94" x2="-54.4673" y2="143.94" stroke="#251B18" stroke-opacity="0.04" stroke-width="0.919216"/>
<line x1="674.471" y1="217.475" x2="-54.4673" y2="217.475" stroke="#251B18" stroke-opacity="0.04" stroke-width="0.919216"/>
<line x1="674.471" y1="291.014" x2="-54.4673" y2="291.014" stroke="#251B18" stroke-opacity="0.04" stroke-width="0.919216"/>
<line x1="674.471" y1="364.549" x2="-54.4673" y2="364.549" stroke="#251B18" stroke-opacity="0.04" stroke-width="0.919216"/>
<line x1="674.471" y1="438.089" x2="-54.4673" y2="438.089" stroke="#251B18" stroke-opacity="0.04" stroke-width="0.919216"/>
<rect x="35" y="273.109" width="550" height="179.782" fill="url(#paint1_linear_927_13063)"/>
<rect x="222.771" y="-3.88867" width="71.9128" height="73.2446" fill="url(#paint2_linear_927_13063)"/>
<rect x="517.082" y="217.178" width="71.9128" height="73.2446" fill="url(#paint3_linear_927_13063)"/>
<rect x="149.527" y="290.422" width="71.9128" height="73.2446" fill="url(#paint4_linear_927_13063)"/>
<g opacity="0.6">
<rect width="70.5811" height="73.2446" transform="translate(76.2832 143.934)" fill="white"/>
<g clip-path="url(#clip2_927_13063)">
<path d="M112.496 161.246C123.385 161.246 132.215 170.074 132.215 180.965C132.215 189.677 126.565 197.069 118.73 199.676C117.744 199.859 117.382 199.249 117.382 198.728C117.382 198.258 117.401 196.704 117.409 195.057C122.895 196.249 124.053 192.73 124.053 192.73C124.95 190.451 126.242 189.845 126.242 189.845C128.031 188.621 126.107 188.646 126.107 188.646C124.127 188.785 123.085 190.678 123.085 190.678C121.326 193.692 118.471 192.821 117.346 192.317C117.169 191.043 116.658 190.173 116.094 189.68C120.474 189.182 125.078 187.491 125.078 179.935C125.078 177.782 124.308 176.023 123.047 174.642C123.251 174.146 123.926 172.14 122.856 169.424C122.856 169.424 121.2 168.894 117.431 171.445C115.859 171.008 114.172 170.789 112.496 170.782C110.82 170.789 109.132 171.008 107.556 171.445C103.792 168.894 102.139 169.424 102.139 169.424C101.065 172.14 101.741 174.146 101.945 174.642C100.681 176.023 99.916 177.782 99.916 179.935C99.916 187.509 104.529 189.177 108.92 189.665C108.213 190.277 107.582 191.477 107.582 193.316C107.582 195.955 107.605 198.078 107.605 198.728C107.605 199.253 107.25 199.867 106.251 199.674C98.4202 197.063 92.7772 189.675 92.7772 180.965C92.7772 170.074 101.606 161.246 112.496 161.246ZM124.829 189.336C124.873 189.434 125.027 189.464 125.167 189.396C125.31 189.332 125.391 189.198 125.345 189.1C125.302 188.999 125.147 188.971 125.005 189.039C124.862 189.103 124.78 189.238 124.829 189.336ZM123.859 190.202C123.953 190.289 124.137 190.248 124.262 190.111C124.391 189.973 124.415 189.789 124.32 189.701C124.223 189.614 124.045 189.654 123.915 189.792C123.786 189.931 123.761 190.113 123.859 190.202ZM123.194 191.309C123.315 191.393 123.512 191.314 123.635 191.139C123.755 190.964 123.755 190.753 123.632 190.669C123.509 190.585 123.315 190.661 123.191 190.835C123.071 191.013 123.071 191.223 123.194 191.309L123.194 191.309ZM122.069 192.591C122.177 192.711 122.407 192.679 122.576 192.516C122.748 192.357 122.796 192.131 122.687 192.012C122.578 191.893 122.346 191.926 122.177 192.088C122.006 192.246 121.953 192.474 122.069 192.591ZM120.614 193.024C120.662 193.179 120.884 193.249 121.107 193.183C121.33 193.116 121.476 192.935 121.431 192.779C121.385 192.623 121.162 192.55 120.937 192.621C120.714 192.688 120.568 192.867 120.614 193.024ZM118.959 193.208C118.953 193.371 119.143 193.505 119.377 193.509C119.613 193.514 119.804 193.382 119.806 193.222C119.806 193.058 119.621 192.924 119.385 192.92C119.151 192.916 118.959 193.046 118.959 193.208ZM117.333 193.146C117.305 193.304 117.468 193.467 117.701 193.511C117.929 193.553 118.141 193.455 118.171 193.297C118.199 193.135 118.033 192.972 117.805 192.93C117.571 192.889 117.363 192.984 117.333 193.146Z" fill="#251B18"/>
</g>
</g>
<g opacity="0.4">
<rect width="70.5811" height="73.2446" transform="translate(443.838 143.934)" fill="white"/>
<g clip-path="url(#clip3_927_13063)">
<path d="M495.072 184.634C495.489 185.888 495.632 187.215 495.495 188.529C495.357 189.842 494.94 191.111 494.273 192.25C492.242 195.784 488.162 197.602 484.177 196.748C483.073 197.975 481.667 198.89 480.097 199.402C478.528 199.914 476.852 200.003 475.237 199.662C473.623 199.321 472.126 198.561 470.898 197.458C469.67 196.355 468.754 194.949 468.241 193.38C466.947 193.115 465.725 192.576 464.655 191.801C463.586 191.025 462.695 190.03 462.041 188.883C459.989 185.354 460.455 180.904 463.193 177.877C462.775 176.624 462.63 175.297 462.767 173.984C462.903 172.67 463.319 171.401 463.986 170.261C466.018 166.726 470.101 164.908 474.089 165.764C474.965 164.777 476.042 163.988 477.248 163.45C478.454 162.912 479.76 162.638 481.081 162.645C485.165 162.642 488.784 165.279 490.032 169.168C491.326 169.434 492.548 169.972 493.617 170.748C494.686 171.524 495.577 172.518 496.232 173.666C498.259 177.188 497.791 181.614 495.072 184.634ZM481.081 165.081C479.45 165.079 477.871 165.65 476.62 166.695L476.84 166.82L484.25 171.098C484.435 171.206 484.588 171.36 484.695 171.545C484.801 171.73 484.858 171.94 484.859 172.154V182.602L487.992 180.79C488.023 180.774 488.045 180.744 488.051 180.709V172.051C488.043 168.205 484.927 165.089 481.081 165.081ZM466.099 171.479C465.281 172.891 464.987 174.546 465.27 176.153L465.49 176.021L472.907 171.743C473.091 171.636 473.3 171.579 473.513 171.579C473.725 171.579 473.934 171.636 474.118 171.743L483.179 176.967V173.35C483.178 173.331 483.173 173.313 483.164 173.297C483.155 173.28 483.143 173.266 483.128 173.255L475.622 168.926C472.287 167.004 468.025 168.147 466.099 171.479ZM464.147 187.621C464.97 189.042 466.27 190.125 467.815 190.68V181.876C467.813 181.663 467.867 181.454 467.973 181.269C468.079 181.084 468.232 180.932 468.417 180.827L477.434 175.625L474.301 173.812C474.284 173.803 474.265 173.799 474.246 173.799C474.227 173.799 474.208 173.803 474.191 173.812L466.7 178.134C463.371 180.063 462.23 184.321 464.147 187.657V187.621ZM489.885 181.641L480.838 186.894L483.964 188.699C483.981 188.708 484 188.713 484.019 188.713C484.038 188.713 484.057 188.708 484.074 188.699L491.565 184.37C492.711 183.709 493.645 182.736 494.258 181.565C494.871 180.393 495.138 179.071 495.028 177.753C494.918 176.436 494.435 175.176 493.636 174.122C492.837 173.069 491.755 172.264 490.516 171.802V180.606C490.51 180.819 490.448 181.026 490.337 181.207C490.227 181.389 490.071 181.538 489.885 181.641ZM493.003 186.329L492.783 186.461L485.38 190.776C485.196 190.884 484.985 190.941 484.771 190.941C484.557 190.941 484.347 190.884 484.162 190.776L475.108 185.551V189.169C475.106 189.187 475.109 189.205 475.117 189.222C475.125 189.239 475.137 189.253 475.152 189.264L482.643 193.585C483.791 194.247 485.104 194.568 486.428 194.51C487.752 194.453 489.032 194.02 490.118 193.262C491.205 192.504 492.053 191.452 492.564 190.23C493.075 189.007 493.227 187.664 493.003 186.359V186.329H493.003ZM473.399 179.917L470.266 181.722C470.25 181.731 470.237 181.744 470.227 181.759C470.217 181.774 470.21 181.792 470.207 181.81V190.445C470.209 191.77 470.588 193.067 471.299 194.184C472.011 195.302 473.026 196.193 474.226 196.755C475.426 197.317 476.76 197.526 478.074 197.357C479.388 197.188 480.627 196.648 481.646 195.801L481.425 195.676L474.015 191.399C473.831 191.291 473.678 191.137 473.571 190.951C473.464 190.766 473.407 190.556 473.406 190.343L473.399 179.917V179.917ZM475.101 183.585L479.136 185.911L483.179 183.585V178.934L479.151 176.608L475.108 178.934L475.101 183.585Z" fill="#251B18"/>
</g>
</g>
<g opacity="0.8">
<rect width="73.2446" height="73.2446" transform="translate(296.018 290.422)" fill="white"/>
<g clip-path="url(#clip4_927_13063)">
<path d="M312.836 314.865C313.24 314.668 313.415 315.045 313.65 315.237C313.731 315.299 313.8 315.38 313.868 315.454C314.46 316.085 315.15 316.499 316.053 316.45C317.371 316.376 318.498 316.79 319.494 317.799C319.705 316.555 320.408 315.813 321.477 315.336C322.037 315.088 322.604 314.841 322.997 314.302C323.27 313.919 323.345 313.491 323.482 313.071C323.569 312.816 323.657 312.557 323.948 312.514C324.266 312.464 324.39 312.73 324.514 312.953C325.012 313.863 325.205 314.865 325.186 315.88C325.143 318.164 324.179 319.984 322.262 321.278C322.044 321.426 321.988 321.575 322.056 321.792C322.187 322.237 322.343 322.67 322.48 323.117C322.567 323.402 322.697 323.462 323.003 323.34C324.035 322.896 324.972 322.259 325.765 321.462C327.128 320.145 328.359 318.691 329.896 317.552C330.252 317.289 330.618 317.039 330.992 316.803C332.559 315.28 330.785 314.03 330.375 313.882C329.945 313.726 330.227 313.195 331.614 313.201C333.001 313.207 334.271 313.67 335.889 314.289C336.129 314.381 336.377 314.454 336.629 314.507C338.14 314.222 339.687 314.168 341.215 314.345C344.214 314.679 346.608 316.098 348.369 318.518C350.485 321.426 350.983 324.732 350.374 328.177C349.732 331.811 347.877 334.819 345.028 337.17C342.072 339.609 338.67 340.804 334.786 340.575C332.429 340.44 329.802 340.123 326.842 337.616C326.094 337.988 325.311 338.136 324.01 338.247C323.008 338.341 322.044 338.2 321.298 338.044C320.128 337.796 320.209 336.712 320.631 336.515C324.059 334.918 323.307 335.568 323.992 335.042C322.249 332.98 319.624 330.839 318.596 323.901C318.517 323.349 318.585 323.002 318.596 322.557C318.603 322.286 318.541 322.18 318.23 322.15C317.37 322.06 316.535 321.804 315.773 321.394C313.552 320.18 312.654 318.188 312.443 315.799C312.411 315.433 312.449 315.058 312.836 314.865ZM332.192 336.37C335.515 333.758 337.126 332.897 337.791 332.934C338.415 332.972 338.302 333.683 338.165 334.148C338.022 334.606 337.836 334.921 337.575 335.323C337.394 335.589 337.27 335.985 337.755 336.283C338.826 336.944 340.685 336.06 340.773 336.017C342.938 334.741 344.75 333.058 346.024 330.756C347.255 328.54 347.971 326.163 348.089 323.626C348.121 323.012 347.941 322.795 347.33 322.684C346.528 322.531 345.707 322.51 344.898 322.622C341.506 323.118 338.62 324.634 336.199 327.035C334.818 328.403 333.773 330.037 332.696 331.634C331.551 333.33 330.319 334.946 328.751 336.27C328.197 336.734 327.756 337.088 327.333 337.347C328.609 337.49 330.738 337.522 332.192 336.37ZM330.601 326.125C330.601 326.046 330.582 325.968 330.546 325.898C330.509 325.828 330.456 325.768 330.391 325.723C330.326 325.678 330.251 325.65 330.173 325.64C330.094 325.631 330.014 325.64 329.941 325.669C329.847 325.702 329.765 325.765 329.708 325.847C329.651 325.929 329.621 326.027 329.622 326.127C329.622 326.191 329.635 326.255 329.66 326.315C329.684 326.375 329.721 326.429 329.767 326.474C329.813 326.52 329.867 326.556 329.927 326.58C329.987 326.604 330.051 326.616 330.116 326.615C330.18 326.615 330.243 326.603 330.302 326.578C330.362 326.553 330.415 326.517 330.46 326.472C330.505 326.426 330.541 326.372 330.565 326.312C330.589 326.253 330.602 326.189 330.601 326.125ZM325.653 328.664C325.971 328.793 326.288 328.904 326.592 328.919C327.049 328.935 327.498 328.792 327.861 328.515C328.297 328.149 328.609 327.945 328.74 327.309C328.785 326.998 328.776 326.681 328.714 326.373C328.603 325.853 328.727 325.519 329.094 325.217C329.392 324.969 329.772 324.9 330.189 324.9C330.332 324.892 330.47 324.849 330.593 324.776C330.644 324.753 330.69 324.719 330.727 324.677C330.765 324.635 330.793 324.585 330.81 324.532C330.827 324.478 330.833 324.421 330.827 324.365C330.821 324.309 330.803 324.255 330.774 324.207C330.73 324.121 330.52 323.911 330.469 323.872C329.902 323.551 329.249 323.656 328.646 323.898C328.086 324.127 327.663 324.547 327.053 325.142C326.431 325.859 326.318 326.058 325.964 326.596C325.684 327.018 325.429 327.45 325.256 327.945C325.149 328.255 325.286 328.508 325.653 328.664Z" fill="#251B18"/>
</g>
</g>
<rect x="56.3066" y="21.4141" width="507.385" height="89.2639" rx="10.6538" fill="white"/>
<rect x="74.9512" y="45.4043" width="41.2833" height="41.2833" rx="20.6416" fill="#4F6BE2" fill-opacity="0.06"/>
<rect x="75.5962" y="46.0493" width="39.9932" height="39.9932" rx="19.9966" stroke="#4F6BE2" stroke-opacity="0.08" stroke-width="1.2901"/>
<circle cx="95.5923" cy="66.0454" r="10.3208" fill="#292929"/>
<path d="M134.785 61.3945H132.298L137.875 45.8925H140.58L146.146 61.3945H143.67L139.279 48.712H139.154L134.785 61.3945ZM135.201 55.329H143.243V57.2849H135.201V55.329ZM149.548 45.8925V61.3945H147.301V45.8925H149.548ZM161.336 61.6338C160.247 61.6338 159.293 61.3841 158.475 60.8847C157.663 60.3853 157.032 59.6848 156.581 58.7831C156.137 57.8814 155.915 56.8341 155.915 55.6411C155.915 54.4342 156.137 53.3799 156.581 52.4783C157.032 51.5696 157.663 50.8656 158.475 50.3662C159.293 49.8668 160.247 49.6171 161.336 49.6171C162.432 49.6171 163.385 49.8668 164.197 50.3662C165.008 50.8656 165.64 51.5696 166.09 52.4783C166.541 53.3799 166.767 54.4342 166.767 55.6411C166.767 56.8341 166.541 57.8814 166.09 58.7831C165.64 59.6848 165.008 60.3853 164.197 60.8847C163.385 61.3841 162.432 61.6338 161.336 61.6338ZM161.336 59.7299C162.05 59.7299 162.64 59.5426 163.104 59.1681C163.569 58.7935 163.913 58.2976 164.134 57.6803C164.363 57.056 164.478 56.3763 164.478 55.6411C164.478 54.892 164.363 54.2053 164.134 53.5811C163.913 52.9568 163.569 52.4574 163.104 52.0829C162.64 51.7084 162.05 51.5211 161.336 51.5211C160.628 51.5211 160.042 51.7084 159.578 52.0829C159.12 52.4574 158.776 52.9568 158.548 53.5811C158.319 54.2053 158.204 54.892 158.204 55.6411C158.204 56.3763 158.319 57.056 158.548 57.6803C158.776 58.2976 159.12 58.7935 159.578 59.1681C160.042 59.5426 160.628 59.7299 161.336 59.7299ZM168.4 65.7434V49.7628H170.585V51.6563H170.772C170.911 51.4136 171.102 51.1327 171.345 50.8136C171.594 50.4945 171.941 50.2171 172.385 49.9813C172.829 49.7385 173.408 49.6171 174.122 49.6171C175.059 49.6171 175.891 49.853 176.619 50.3246C177.355 50.7963 177.934 51.4795 178.357 52.3742C178.78 53.269 178.991 54.3475 178.991 55.6099C178.991 56.8584 178.783 57.9334 178.367 58.8351C177.951 59.7299 177.375 60.42 176.64 60.9055C175.912 61.3841 175.076 61.6234 174.133 61.6234C173.432 61.6234 172.857 61.5055 172.406 61.2697C171.962 61.0269 171.612 60.746 171.355 60.427C171.105 60.1079 170.911 59.827 170.772 59.5842H170.647V65.7434H168.4ZM173.644 59.6987C174.317 59.6987 174.878 59.5183 175.329 59.1577C175.78 58.797 176.12 58.308 176.349 57.6907C176.585 57.0664 176.703 56.3659 176.703 55.5891C176.703 54.8192 176.588 54.129 176.359 53.5187C176.13 52.9083 175.791 52.4262 175.34 52.0725C174.889 51.7188 174.324 51.5419 173.644 51.5419C172.985 51.5419 172.43 51.7118 171.979 52.0517C171.528 52.3846 171.185 52.8563 170.949 53.4666C170.72 54.0701 170.606 54.7776 170.606 55.5891C170.606 56.4006 170.724 57.115 170.96 57.7323C171.195 58.3496 171.539 58.8317 171.99 59.1785C172.447 59.5253 172.999 59.6987 173.644 59.6987ZM186.045 49.7628V51.5835H179.699V49.7628H186.045ZM181.395 46.9953H183.652V57.982C183.652 58.5161 183.763 58.908 183.985 59.1577C184.207 59.4004 184.565 59.5218 185.057 59.5218C185.175 59.5218 185.3 59.5149 185.432 59.501C185.57 59.4871 185.709 59.4663 185.848 59.4386L186.274 61.3113C186.045 61.3876 185.796 61.4466 185.525 61.4882C185.255 61.5298 184.984 61.5506 184.714 61.5506C183.708 61.5506 182.903 61.2697 182.3 60.7079C181.697 60.1391 181.395 59.3831 181.395 58.4398V46.9953ZM187.668 61.3945V49.7628H189.916V61.3945H187.668ZM188.803 47.9733C188.407 47.9733 188.071 47.8415 187.793 47.5779C187.516 47.3144 187.377 46.9988 187.377 46.6312C187.377 46.2566 187.516 45.9376 187.793 45.674C188.071 45.4104 188.407 45.2786 188.803 45.2786C189.191 45.2786 189.524 45.4104 189.801 45.674C190.086 45.9376 190.228 46.2566 190.228 46.6312C190.228 46.9988 190.086 47.3144 189.801 47.5779C189.524 47.8415 189.191 47.9733 188.803 47.9733ZM192.08 61.3945V49.7628H194.233V51.6771H194.389C194.632 51.0321 195.028 50.5292 195.576 50.1686C196.13 49.8009 196.789 49.6171 197.552 49.6171C198.329 49.6171 198.978 49.8009 199.498 50.1686C200.025 50.5292 200.417 51.0321 200.674 51.6771H200.798C201.076 51.046 201.516 50.5466 202.12 50.179C202.723 49.8044 203.441 49.6171 204.273 49.6171C205.328 49.6171 206.191 49.9501 206.864 50.6159C207.537 51.2749 207.873 52.2702 207.873 53.6019V61.3945H205.605V53.81C205.605 53.0193 205.39 52.4505 204.96 52.1037C204.53 51.75 204.017 51.5731 203.42 51.5731C202.685 51.5731 202.113 51.802 201.704 52.2598C201.301 52.7106 201.1 53.2828 201.1 53.9764V61.3945H198.832V53.6643C198.832 53.0331 198.638 52.5268 198.249 52.1453C197.861 51.7638 197.351 51.5731 196.72 51.5731C196.29 51.5731 195.891 51.6875 195.524 51.9164C195.163 52.1384 194.872 52.4505 194.65 52.8528C194.435 53.2482 194.327 53.7059 194.327 54.2261V61.3945H192.08ZM210.037 61.3945V49.7628H212.284V61.3945H210.037ZM211.171 47.9733C210.776 47.9733 210.439 47.8415 210.162 47.5779C209.885 47.3144 209.746 46.9988 209.746 46.6312C209.746 46.2566 209.885 45.9376 210.162 45.674C210.439 45.4104 210.776 45.2786 211.171 45.2786C211.56 45.2786 211.893 45.4104 212.17 45.674C212.454 45.9376 212.597 46.2566 212.597 46.6312C212.597 46.9988 212.454 47.3144 212.17 47.5779C211.893 47.8415 211.56 47.9733 211.171 47.9733ZM214.199 61.3945V59.8547L220.493 51.8436V51.7292H214.407V49.7628H223.313V51.4274L217.258 59.3137V59.4282H223.521V61.3945H214.199ZM229.982 61.6338C228.844 61.6338 227.859 61.3876 227.027 60.8951C226.195 60.4027 225.553 59.7091 225.102 58.8143C224.658 57.9126 224.436 56.8618 224.436 55.6619C224.436 54.4689 224.655 53.4181 225.092 52.5095C225.536 51.6008 226.157 50.8934 226.954 50.387C227.759 49.8738 228.702 49.6171 229.784 49.6171C230.443 49.6171 231.081 49.7246 231.698 49.9397C232.316 50.1547 232.871 50.4945 233.363 50.9593C233.856 51.424 234.244 52.0274 234.528 52.7696C234.82 53.5117 234.965 54.4065 234.965 55.4538V56.2653H225.716V54.5695H233.8L232.749 55.1313C232.749 54.4169 232.638 53.7857 232.416 53.2378C232.194 52.6898 231.861 52.2632 231.418 51.9581C230.981 51.6459 230.436 51.4899 229.784 51.4899C229.132 51.4899 228.574 51.6459 228.109 51.9581C227.651 52.2702 227.301 52.6829 227.058 53.1961C226.815 53.7094 226.694 54.2712 226.694 54.8816V56.0364C226.694 56.8341 226.833 57.5104 227.11 58.0652C227.388 58.6201 227.773 59.0432 228.265 59.3345C228.764 59.6258 229.344 59.7715 230.003 59.7715C230.433 59.7715 230.821 59.7091 231.168 59.5842C231.522 59.4594 231.827 59.2721 232.083 59.0224C232.34 58.7727 232.534 58.4641 232.666 58.0964L234.809 58.5022C234.636 59.1264 234.331 59.6744 233.894 60.146C233.457 60.6177 232.905 60.9853 232.239 61.2489C231.581 61.5055 230.828 61.6338 229.982 61.6338ZM245.245 52.6135L243.195 52.9672C243.063 52.5788 242.817 52.2216 242.456 51.8956C242.102 51.5696 241.572 51.4066 240.864 51.4066C240.226 51.4066 239.692 51.5523 239.262 51.8436C238.839 52.128 238.628 52.4921 238.628 52.936C238.628 53.3245 238.77 53.64 239.054 53.8828C239.345 54.1256 239.807 54.3198 240.438 54.4654L242.3 54.8816C243.361 55.1244 244.156 55.5058 244.683 56.026C245.21 56.5462 245.473 57.2121 245.473 58.0236C245.473 58.7242 245.272 59.3484 244.87 59.8963C244.468 60.4374 243.909 60.8639 243.195 61.176C242.481 61.4812 241.655 61.6338 240.719 61.6338C239.415 61.6338 238.354 61.3529 237.535 60.7911C236.717 60.2293 236.214 59.4386 236.027 58.419L238.201 58.086C238.34 58.6548 238.621 59.0848 239.044 59.3761C239.474 59.6675 240.029 59.8131 240.708 59.8131C241.444 59.8131 242.033 59.6571 242.477 59.3449C242.928 59.0328 243.153 58.6548 243.153 58.2109C243.153 57.4757 242.605 56.9797 241.509 56.7231L239.543 56.2861C238.454 56.0364 237.65 55.6446 237.129 55.1105C236.616 54.5695 236.359 53.8897 236.359 53.0713C236.359 52.3846 236.55 51.7812 236.932 51.261C237.32 50.7408 237.851 50.3385 238.523 50.0541C239.203 49.7628 239.977 49.6171 240.844 49.6171C242.106 49.6171 243.094 49.8911 243.809 50.4391C244.53 50.987 245.009 51.7118 245.245 52.6135ZM254.306 61.3945L250.894 49.7628H253.224L255.503 58.3045H255.628L257.906 49.7628H260.247L262.505 58.2733H262.619L264.887 49.7628H267.218L263.805 61.3945H261.506L259.134 53.0089H258.978L256.606 61.3945H254.306ZM273.138 61.6338C272 61.6338 271.015 61.3876 270.183 60.8951C269.351 60.4027 268.709 59.7091 268.258 58.8143C267.814 57.9126 267.592 56.8618 267.592 55.6619C267.592 54.4689 267.811 53.4181 268.248 52.5095C268.692 51.6008 269.313 50.8934 270.11 50.387C270.915 49.8738 271.858 49.6171 272.94 49.6171C273.599 49.6171 274.237 49.7246 274.854 49.9397C275.472 50.1547 276.027 50.4945 276.519 50.9593C277.012 51.424 277.4 52.0274 277.684 52.7696C277.976 53.5117 278.121 54.4065 278.121 55.4538V56.2653H268.872V54.5695H276.956L275.905 55.1313C275.905 54.4169 275.794 53.7857 275.572 53.2378C275.35 52.6898 275.017 52.2632 274.574 51.9581C274.137 51.6459 273.592 51.4899 272.94 51.4899C272.288 51.4899 271.73 51.6459 271.265 51.9581C270.807 52.2702 270.457 52.6829 270.214 53.1961C269.971 53.7094 269.85 54.2712 269.85 54.8816V56.0364C269.85 56.8341 269.989 57.5104 270.266 58.0652C270.544 58.6201 270.929 59.0432 271.421 59.3345C271.921 59.6258 272.5 59.7715 273.159 59.7715C273.589 59.7715 273.977 59.7091 274.324 59.5842C274.678 59.4594 274.983 59.2721 275.239 59.0224C275.496 58.7727 275.69 58.4641 275.822 58.0964L277.965 58.5022C277.792 59.1264 277.487 59.6744 277.05 60.146C276.613 60.6177 276.061 60.9853 275.395 61.2489C274.737 61.5055 273.984 61.6338 273.138 61.6338ZM285.435 61.6234C284.735 61.6234 284.159 61.5055 283.708 61.2697C283.264 61.0269 282.914 60.746 282.657 60.427C282.408 60.1079 282.214 59.827 282.075 59.5842H281.888V61.3945H279.703V45.8925H281.95V51.6563H282.075C282.214 51.4136 282.404 51.1327 282.647 50.8136C282.897 50.4945 283.244 50.2171 283.687 49.9813C284.131 49.7385 284.711 49.6171 285.425 49.6171C286.361 49.6171 287.194 49.853 287.922 50.3246C288.657 50.7963 289.236 51.4795 289.659 52.3742C290.083 53.269 290.294 54.3475 290.294 55.6099C290.294 56.8584 290.086 57.9334 289.67 58.8351C289.254 59.7299 288.678 60.42 287.943 60.9055C287.214 61.3841 286.379 61.6234 285.435 61.6234ZM284.946 59.6987C285.619 59.6987 286.181 59.5183 286.632 59.1577C287.083 58.797 287.423 58.308 287.651 57.6907C287.887 57.0664 288.005 56.3659 288.005 55.5891C288.005 54.8192 287.891 54.129 287.662 53.5187C287.433 52.9083 287.093 52.4262 286.642 52.0725C286.191 51.7188 285.626 51.5419 284.946 51.5419C284.287 51.5419 283.733 51.7118 283.282 52.0517C282.831 52.3846 282.488 52.8563 282.252 53.4666C282.023 54.0701 281.908 54.7776 281.908 55.5891C281.908 56.4006 282.026 57.115 282.262 57.7323C282.498 58.3496 282.841 58.8317 283.292 59.1785C283.75 59.5253 284.301 59.6987 284.946 59.6987ZM300.636 52.6135L298.586 52.9672C298.454 52.5788 298.208 52.2216 297.847 51.8956C297.494 51.5696 296.963 51.4066 296.256 51.4066C295.617 51.4066 295.083 51.5523 294.653 51.8436C294.23 52.128 294.019 52.4921 294.019 52.936C294.019 53.3245 294.161 53.64 294.445 53.8828C294.737 54.1256 295.198 54.3198 295.829 54.4654L297.691 54.8816C298.753 55.1244 299.547 55.5058 300.074 56.026C300.601 56.5462 300.865 57.2121 300.865 58.0236C300.865 58.7242 300.663 59.3484 300.261 59.8963C299.859 60.4374 299.301 60.8639 298.586 61.176C297.872 61.4812 297.046 61.6338 296.11 61.6338C294.806 61.6338 293.745 61.3529 292.926 60.7911C292.108 60.2293 291.605 59.4386 291.418 58.419L293.592 58.086C293.731 58.6548 294.012 59.0848 294.435 59.3761C294.865 59.6675 295.42 59.8131 296.1 59.8131C296.835 59.8131 297.424 59.6571 297.868 59.3449C298.319 59.0328 298.544 58.6548 298.544 58.2109C298.544 57.4757 297.997 56.9797 296.901 56.7231L294.934 56.2861C293.845 56.0364 293.041 55.6446 292.521 55.1105C292.007 54.5695 291.751 53.8897 291.751 53.0713C291.751 52.3846 291.941 51.7812 292.323 51.261C292.711 50.7408 293.242 50.3385 293.915 50.0541C294.594 49.7628 295.368 49.6171 296.235 49.6171C297.497 49.6171 298.486 49.8911 299.2 50.4391C299.921 50.987 300.4 51.7118 300.636 52.6135ZM302.446 61.3945V49.7628H304.693V61.3945H302.446ZM303.58 47.9733C303.185 47.9733 302.848 47.8415 302.571 47.5779C302.293 47.3144 302.155 46.9988 302.155 46.6312C302.155 46.2566 302.293 45.9376 302.571 45.674C302.848 45.4104 303.185 45.2786 303.58 45.2786C303.968 45.2786 304.301 45.4104 304.579 45.674C304.863 45.9376 305.005 46.2566 305.005 46.6312C305.005 46.9988 304.863 47.3144 304.579 47.5779C304.301 47.8415 303.968 47.9733 303.58 47.9733ZM312.267 49.7628V51.5835H305.921V49.7628H312.267ZM307.617 46.9953H309.874V57.982C309.874 58.5161 309.985 58.908 310.207 59.1577C310.429 59.4004 310.787 59.5218 311.279 59.5218C311.397 59.5218 311.522 59.5149 311.654 59.501C311.792 59.4871 311.931 59.4663 312.07 59.4386L312.496 61.3113C312.267 61.3876 312.018 61.4466 311.747 61.4882C311.477 61.5298 311.206 61.5506 310.936 61.5506C309.93 61.5506 309.125 61.2697 308.522 60.7079C307.919 60.1391 307.617 59.3831 307.617 58.4398V46.9953ZM318.77 61.6338C317.632 61.6338 316.648 61.3876 315.815 60.8951C314.983 60.4027 314.341 59.7091 313.89 58.8143C313.447 57.9126 313.225 56.8618 313.225 55.6619C313.225 54.4689 313.443 53.4181 313.88 52.5095C314.324 51.6008 314.945 50.8934 315.742 50.387C316.547 49.8738 317.49 49.6171 318.572 49.6171C319.231 49.6171 319.869 49.7246 320.487 49.9397C321.104 50.1547 321.659 50.4945 322.151 50.9593C322.644 51.424 323.032 52.0274 323.317 52.7696C323.608 53.5117 323.754 54.4065 323.754 55.4538V56.2653H314.504V54.5695H322.588L321.537 55.1313C321.537 54.4169 321.426 53.7857 321.205 53.2378C320.983 52.6898 320.65 52.2632 320.206 51.9581C319.769 51.6459 319.224 51.4899 318.572 51.4899C317.92 51.4899 317.362 51.6459 316.897 51.9581C316.439 52.2702 316.089 52.6829 315.846 53.1961C315.604 53.7094 315.482 54.2712 315.482 54.8816V56.0364C315.482 56.8341 315.621 57.5104 315.898 58.0652C316.176 58.6201 316.561 59.0432 317.053 59.3345C317.553 59.6258 318.132 59.7715 318.791 59.7715C319.221 59.7715 319.609 59.7091 319.956 59.5842C320.31 59.4594 320.615 59.2721 320.872 59.0224C321.128 58.7727 321.322 58.4641 321.454 58.0964L323.597 58.5022C323.424 59.1264 323.119 59.6744 322.682 60.146C322.245 60.6177 321.694 60.9853 321.028 61.2489C320.369 61.5055 319.616 61.6338 318.77 61.6338ZM338.777 52.6135L336.727 52.9672C336.596 52.5788 336.349 52.2216 335.989 51.8956C335.635 51.5696 335.104 51.4066 334.397 51.4066C333.759 51.4066 333.225 51.5523 332.795 51.8436C332.372 52.128 332.16 52.4921 332.16 52.936C332.16 53.3245 332.302 53.64 332.587 53.8828C332.878 54.1256 333.339 54.3198 333.97 54.4654L335.833 54.8816C336.894 55.1244 337.688 55.5058 338.215 56.026C338.742 56.5462 339.006 57.2121 339.006 58.0236C339.006 58.7242 338.805 59.3484 338.402 59.8963C338 60.4374 337.442 60.8639 336.727 61.176C336.013 61.4812 335.188 61.6338 334.251 61.6338C332.947 61.6338 331.886 61.3529 331.068 60.7911C330.249 60.2293 329.746 59.4386 329.559 58.419L331.733 58.086C331.872 58.6548 332.153 59.0848 332.576 59.3761C333.006 59.6675 333.561 59.8131 334.241 59.8131C334.976 59.8131 335.566 59.6571 336.009 59.3449C336.46 59.0328 336.686 58.6548 336.686 58.2109C336.686 57.4757 336.138 56.9797 335.042 56.7231L333.076 56.2861C331.987 56.0364 331.182 55.6446 330.662 55.1105C330.149 54.5695 329.892 53.8897 329.892 53.0713C329.892 52.3846 330.083 51.7812 330.464 51.261C330.853 50.7408 331.383 50.3385 332.056 50.0541C332.736 49.7628 333.509 49.6171 334.376 49.6171C335.638 49.6171 336.627 49.8911 337.341 50.4391C338.063 50.987 338.541 51.7118 338.777 52.6135ZM345.997 49.7628V51.5835H339.651V49.7628H345.997ZM341.347 46.9953H343.604V57.982C343.604 58.5161 343.715 58.908 343.937 59.1577C344.159 59.4004 344.517 59.5218 345.009 59.5218C345.127 59.5218 345.252 59.5149 345.384 59.501C345.522 59.4871 345.661 59.4663 345.8 59.4386L346.226 61.3113C345.997 61.3876 345.748 61.4466 345.477 61.4882C345.207 61.5298 344.936 61.5506 344.666 61.5506C343.66 61.5506 342.855 61.2697 342.252 60.7079C341.648 60.1391 341.347 59.3831 341.347 58.4398V46.9953ZM347.62 61.3945V49.7628H349.795V51.6251H349.92C350.135 51.0009 350.509 50.5084 351.043 50.1477C351.584 49.7801 352.195 49.5963 352.874 49.5963C353.013 49.5963 353.176 49.6033 353.363 49.6171C353.558 49.6241 353.714 49.6345 353.832 49.6484V51.8124C353.741 51.7847 353.578 51.7569 353.343 51.7292C353.114 51.7014 352.881 51.6875 352.646 51.6875C352.111 51.6875 351.633 51.802 351.21 52.0309C350.794 52.2528 350.464 52.5615 350.221 52.9568C349.986 53.3453 349.868 53.7961 349.868 54.3094V61.3945H347.62ZM362.29 56.5879V49.7628H364.537V61.3945H362.332V59.3761H362.207C361.929 59.9935 361.499 60.5102 360.917 60.9263C360.334 61.3425 359.606 61.5471 358.732 61.5402C357.983 61.5402 357.32 61.3772 356.745 61.0512C356.176 60.7252 355.729 60.2362 355.403 59.5842C355.084 58.9322 354.924 58.1242 354.924 57.1601V49.7628H357.171V56.9C357.171 57.6838 357.393 58.3115 357.837 58.7831C358.281 59.2548 358.853 59.4871 359.554 59.4802C359.977 59.4802 360.397 59.3761 360.813 59.1681C361.236 58.96 361.586 58.6409 361.864 58.2109C362.148 57.7809 362.29 57.2398 362.29 56.5879ZM371.581 61.6338C370.464 61.6338 369.5 61.3772 368.689 60.8639C367.877 60.3507 367.253 59.6432 366.816 58.7415C366.379 57.8398 366.16 56.8063 366.16 55.6411C366.16 54.455 366.382 53.4112 366.826 52.5095C367.277 51.6008 367.905 50.8934 368.709 50.387C369.521 49.8738 370.471 49.6171 371.56 49.6171C372.448 49.6171 373.235 49.7801 373.922 50.1061C374.615 50.4252 375.174 50.8795 375.597 51.4691C376.027 52.0586 376.28 52.7453 376.356 53.5291H374.151C374.074 53.1615 373.925 52.8251 373.703 52.5199C373.488 52.2147 373.204 51.9719 372.85 51.7916C372.497 51.6113 372.077 51.5211 371.591 51.5211C370.96 51.5211 370.409 51.6875 369.937 52.0205C369.472 52.3465 369.108 52.8147 368.845 53.425C368.581 54.0354 368.449 54.7567 368.449 55.5891C368.449 56.4283 368.578 57.1601 368.834 57.7843C369.091 58.4086 369.455 58.8906 369.927 59.2305C370.405 59.5634 370.96 59.7299 371.591 59.7299C372.243 59.7299 372.798 59.5495 373.256 59.1889C373.721 58.8282 374.019 58.3357 374.151 57.7115H376.356C376.28 58.4675 376.037 59.1403 375.628 59.7299C375.219 60.3194 374.671 60.7842 373.984 61.124C373.298 61.4639 372.497 61.6338 371.581 61.6338ZM383.369 49.7628V51.5835H377.022V49.7628H383.369ZM378.718 46.9953H380.976V57.982C380.976 58.5161 381.087 58.908 381.309 59.1577C381.531 59.4004 381.888 59.5218 382.38 59.5218C382.498 59.5218 382.623 59.5149 382.755 59.501C382.894 59.4871 383.032 59.4663 383.171 59.4386L383.598 61.3113C383.369 61.3876 383.119 61.4466 382.849 61.4882C382.578 61.5298 382.308 61.5506 382.037 61.5506C381.031 61.5506 380.227 61.2697 379.623 60.7079C379.02 60.1391 378.718 59.3831 378.718 58.4398V46.9953ZM392.358 56.5879V49.7628H394.605V61.3945H392.399V59.3761H392.275C391.997 59.9935 391.567 60.5102 390.985 60.9263C390.402 61.3425 389.674 61.5471 388.8 61.5402C388.051 61.5402 387.388 61.3772 386.812 61.0512C386.244 60.7252 385.796 60.2362 385.47 59.5842C385.151 58.9322 384.992 58.1242 384.992 57.1601V49.7628H387.239V56.9C387.239 57.6838 387.461 58.3115 387.905 58.7831C388.349 59.2548 388.921 59.4871 389.622 59.4802C390.045 59.4802 390.464 59.3761 390.88 59.1681C391.304 58.96 391.654 58.6409 391.931 58.2109C392.216 57.7809 392.358 57.2398 392.358 56.5879ZM396.769 61.3945V49.7628H398.944V51.6251H399.068C399.283 51.0009 399.658 50.5084 400.192 50.1477C400.733 49.7801 401.344 49.5963 402.023 49.5963C402.162 49.5963 402.325 49.6033 402.512 49.6171C402.706 49.6241 402.862 49.6345 402.98 49.6484V51.8124C402.89 51.7847 402.727 51.7569 402.491 51.7292C402.263 51.7014 402.03 51.6875 401.794 51.6875C401.26 51.6875 400.782 51.802 400.359 52.0309C399.942 52.2528 399.613 52.5615 399.37 52.9568C399.134 53.3453 399.016 53.7961 399.016 54.3094V61.3945H396.769ZM408.661 61.6338C407.524 61.6338 406.539 61.3876 405.706 60.8951C404.874 60.4027 404.232 59.7091 403.782 58.8143C403.338 57.9126 403.116 56.8618 403.116 55.6619C403.116 54.4689 403.334 53.4181 403.771 52.5095C404.215 51.6008 404.836 50.8934 405.633 50.387C406.438 49.8738 407.381 49.6171 408.463 49.6171C409.122 49.6171 409.76 49.7246 410.378 49.9397C410.995 50.1547 411.55 50.4945 412.042 50.9593C412.535 51.424 412.923 52.0274 413.208 52.7696C413.499 53.5117 413.645 54.4065 413.645 55.4538V56.2653H404.395V54.5695H412.479L411.428 55.1313C411.428 54.4169 411.318 53.7857 411.096 53.2378C410.874 52.6898 410.541 52.2632 410.097 51.9581C409.66 51.6459 409.115 51.4899 408.463 51.4899C407.811 51.4899 407.253 51.6459 406.788 51.9581C406.331 52.2702 405.98 52.6829 405.737 53.1961C405.495 53.7094 405.373 54.2712 405.373 54.8816V56.0364C405.373 56.8341 405.512 57.5104 405.789 58.0652C406.067 58.6201 406.452 59.0432 406.944 59.3345C407.444 59.6258 408.023 59.7715 408.682 59.7715C409.112 59.7715 409.5 59.7091 409.847 59.5842C410.201 59.4594 410.506 59.2721 410.763 59.0224C411.019 58.7727 411.213 58.4641 411.345 58.0964L413.489 58.5022C413.315 59.1264 413.01 59.6744 412.573 60.146C412.136 60.6177 411.585 60.9853 410.919 61.2489C410.26 61.5055 409.507 61.6338 408.661 61.6338Z" fill="#251B18"/>
<rect x="132.215" y="78.7168" width="243.705" height="15.9806" rx="7.99031" fill="#251B18" fill-opacity="0.04"/>
</g>
</g>
<defs>
<linearGradient id="paint0_linear_927_13063" x1="315" y1="205" x2="315" y2="437" gradientUnits="userSpaceOnUse">
<stop stop-color="#F5F5F5" stop-opacity="0"/>
<stop offset="1" stop-color="#F5F5F5"/>
</linearGradient>
<linearGradient id="paint1_linear_927_13063" x1="310" y1="273.109" x2="310" y2="452.891" gradientUnits="userSpaceOnUse">
<stop stop-color="#F5F5F5" stop-opacity="0"/>
<stop offset="1" stop-color="#F5F5F5"/>
</linearGradient>
<linearGradient id="paint2_linear_927_13063" x1="258.728" y1="-3.88867" x2="258.728" y2="69.3559" gradientUnits="userSpaceOnUse">
<stop stop-color="white" stop-opacity="0.7"/>
<stop offset="1" stop-color="white" stop-opacity="0.2"/>
</linearGradient>
<linearGradient id="paint3_linear_927_13063" x1="553.038" y1="217.178" x2="553.038" y2="290.422" gradientUnits="userSpaceOnUse">
<stop stop-color="white" stop-opacity="0.7"/>
<stop offset="1" stop-color="white" stop-opacity="0.2"/>
</linearGradient>
<linearGradient id="paint4_linear_927_13063" x1="185.484" y1="290.422" x2="185.484" y2="363.666" gradientUnits="userSpaceOnUse">
<stop stop-color="white" stop-opacity="0.7"/>
<stop offset="1" stop-color="white" stop-opacity="0.2"/>
</linearGradient>
<clipPath id="clip0_927_13063">
<rect width="620" height="465" fill="white"/>
</clipPath>
<clipPath id="clip1_927_13063">
<rect x="35" y="0.107422" width="550" height="452.785" rx="10.6538" fill="white"/>
</clipPath>
<clipPath id="clip2_927_13063">
<rect width="39.4376" height="38.5133" fill="white" transform="matrix(-1 -8.74228e-08 -8.74228e-08 1 132.215 161.246)"/>
</clipPath>
<clipPath id="clip3_927_13063">
<rect width="36.7145" height="37.2881" rx="18.3572" transform="matrix(1 0 0 -1 460.77 199.865)" fill="white"/>
</clipPath>
<clipPath id="clip4_927_13063">
<rect width="35.6904" height="38.1804" rx="17.8452" transform="matrix(-1 -8.74228e-08 -8.74228e-08 1 350.617 307.734)" fill="white"/>
</clipPath>
</defs>
</svg>
