<svg width="620" height="465" viewBox="0 0 620 465" fill="none" xmlns="http://www.w3.org/2000/svg">
<g clip-path="url(#clip0_923_12477)">
<rect width="620" height="465" fill="#F5F5F5"/>
<g clip-path="url(#clip1_923_12477)">
<rect width="630" height="437" transform="translate(-8 11)" fill="#F5F5F5"/>
<rect x="-8" y="216" width="630" height="232" fill="url(#paint0_linear_923_12477)"/>
<path d="M306.293 196.707C306.683 197.098 307.317 197.098 307.707 196.707L314.071 190.343C314.462 189.953 314.462 189.319 314.071 188.929C313.681 188.538 313.047 188.538 312.657 188.929L307 194.586L301.343 188.929C300.953 188.538 300.319 188.538 299.929 188.929C299.538 189.319 299.538 189.953 299.929 190.343L306.293 196.707ZM307 134L306 134L306 135.937L307 135.938L308 135.938L308 134L307 134ZM307 139.812L306 139.812L306 143.687L307 143.688L308 143.688L308 139.813L307 139.812ZM307 147.562L306 147.562L306 151.437L307 151.438L308 151.438L308 147.563L307 147.562ZM307 155.312L306 155.312L306 159.187L307 159.188L308 159.188L308 155.313L307 155.312ZM307 163.062L306 163.062L306 166.937L307 166.938L308 166.938L308 163.063L307 163.062ZM307 170.812L306 170.812L306 174.687L307 174.688L308 174.688L308 170.813L307 170.812ZM307 178.562L306 178.562L306 182.437L307 182.438L308 182.438L308 178.563L307 178.562ZM307 186.312L306 186.312L306 190.187L307 190.188L308 190.188L308 186.313L307 186.312ZM307 194.062L306 194.062L306 196L307 196L308 196L308 194.063L307 194.062ZM306.293 196.707C306.683 197.098 307.317 197.098 307.707 196.707L314.071 190.343C314.462 189.953 314.462 189.319 314.071 188.929C313.681 188.538 313.047 188.538 312.657 188.929L307 194.586L301.343 188.929C300.953 188.538 300.319 188.538 299.929 188.929C299.538 189.319 299.538 189.953 299.929 190.343L306.293 196.707ZM307 134L306 134L306 135.937L307 135.938L308 135.938L308 134L307 134ZM307 139.812L306 139.812L306 143.687L307 143.688L308 143.688L308 139.813L307 139.812ZM307 147.562L306 147.562L306 151.437L307 151.438L308 151.438L308 147.563L307 147.562ZM307 155.312L306 155.312L306 159.187L307 159.188L308 159.188L308 155.313L307 155.312ZM307 163.062L306 163.062L306 166.937L307 166.938L308 166.938L308 163.063L307 163.062ZM307 170.812L306 170.812L306 174.687L307 174.688L308 174.688L308 170.813L307 170.812ZM307 178.562L306 178.562L306 182.437L307 182.438L308 182.438L308 178.563L307 178.562ZM307 186.312L306 186.312L306 190.187L307 190.188L308 190.188L308 186.313L307 186.312ZM307 194.062L306 194.062L306 196L307 196L308 196L308 194.063L307 194.062Z" fill="#251B18" fill-opacity="0.12"/>
<circle cx="142.061" cy="255.713" r="3.60315" transform="rotate(-26.1682 142.061 255.713)" fill="#222021"/>
<circle cx="237.796" cy="376.395" r="3.60315" transform="rotate(-26.1682 237.796 376.395)" fill="#222021"/>
<circle cx="145.796" cy="346.213" r="1.6014" transform="rotate(-26.1682 145.796 346.213)" fill="#222021"/>
<circle cx="172.323" cy="238.612" r="1.6014" transform="rotate(-26.1682 172.323 238.612)" fill="#222021"/>
<circle cx="84.4033" cy="214.01" r="1.6014" transform="rotate(-26.1682 84.4033 214.01)" fill="#222021"/>
<circle cx="532.447" cy="200.594" r="1.54431" transform="rotate(153.832 532.447 200.594)" fill="#222021"/>
<circle cx="508.617" cy="101.32" r="1.54431" transform="rotate(153.832 508.617 101.32)" fill="#222021"/>
<foreignObject x="66.6367" y="272.367" width="497" height="164.785"><div xmlns="http://www.w3.org/1999/xhtml" style="backdrop-filter:blur(12px);clip-path:url(#bgblur_2_923_12477_clip_path);height:100%;width:100%"></div></foreignObject><rect data-figma-bg-blur-radius="24" x="90.6367" y="296.367" width="449" height="116.785" rx="18.591" fill="white" fill-opacity="0.6"/>
<path fill-rule="evenodd" clip-rule="evenodd" d="M501.747 329.334L509.101 321.968C509.538 321.531 510.246 321.531 510.683 321.968C511.119 322.405 511.119 323.111 510.683 323.548L501.747 332.498L492.81 323.548C492.374 323.111 492.374 322.405 492.81 321.968C493.247 321.531 493.955 321.531 494.392 321.968L501.747 329.334Z" fill="#222021"/>
<rect x="121.621" y="350.592" width="49.5761" height="49.5761" rx="12.394" fill="#F5F5F5"/>
<path d="M150.488 384.675L143.136 376.252L147.151 384.675H144.367L140.272 376.088L141.974 384.675H140.264L138.56 376.076V384.675H137.889V366.084H138.56V375.359L140.288 366.084H141.993L140.258 375.399L144.433 366.084H147.186L143.027 375.365L150.579 366.084H154.894L147.083 375.686L154.93 384.675H150.488Z" fill="#222021"/>
<path d="M193.064 378.794V375.562L199.051 368.036H201.805L193.064 378.794ZM191.004 383.436V368.036H193.281V383.436H191.004ZM199.311 383.436L194.409 375.844L195.971 374.283L201.979 383.436H199.311ZM208.52 383.696C207.407 383.696 206.518 383.32 205.853 382.568C205.187 381.802 204.855 380.732 204.855 379.358V371.897H207.045V378.794C207.045 379.835 207.226 380.594 207.588 381.071C207.949 381.549 208.499 381.787 209.236 381.787C210.031 381.787 210.668 381.52 211.145 380.985C211.636 380.45 211.882 379.69 211.882 378.707V371.897H214.073V383.436H212.012L211.991 380.421L212.294 380.551C212.092 381.549 211.665 382.322 211.015 382.872C210.364 383.421 209.533 383.696 208.52 383.696ZM221.829 383.696C220.846 383.696 219.993 383.457 219.27 382.98C218.547 382.488 217.99 381.794 217.6 380.898C217.209 379.987 217.014 378.91 217.014 377.666C217.014 376.423 217.209 375.353 217.6 374.456C217.99 373.545 218.547 372.851 219.27 372.374C219.993 371.882 220.846 371.636 221.829 371.636C222.639 371.636 223.348 371.824 223.955 372.2C224.562 372.576 225.003 373.017 225.278 373.523V368.036H227.469V383.436H225.43L225.365 381.657C225.047 382.279 224.584 382.778 223.977 383.154C223.369 383.515 222.653 383.696 221.829 383.696ZM222.198 381.679C222.834 381.679 223.376 381.52 223.825 381.202C224.287 380.869 224.642 380.406 224.888 379.813C225.148 379.206 225.278 378.49 225.278 377.666C225.278 376.813 225.148 376.09 224.888 375.497C224.642 374.904 224.287 374.449 223.825 374.131C223.362 373.813 222.805 373.654 222.155 373.654C221.273 373.654 220.579 374.008 220.072 374.716C219.566 375.425 219.313 376.408 219.313 377.666C219.313 378.91 219.566 379.893 220.072 380.616C220.579 381.324 221.287 381.679 222.198 381.679ZM234.401 383.696C233.678 383.696 233.027 383.566 232.449 383.305C231.87 383.045 231.408 382.676 231.061 382.199C230.728 381.722 230.562 381.165 230.562 380.529C230.562 379.546 230.858 378.78 231.451 378.23C232.058 377.681 232.969 377.29 234.184 377.059L237.914 376.278C237.914 375.381 237.719 374.709 237.329 374.261C236.938 373.813 236.353 373.588 235.572 373.588C234.849 373.588 234.285 373.755 233.88 374.087C233.475 374.42 233.201 374.883 233.056 375.475L230.757 375.324C230.974 374.225 231.502 373.335 232.34 372.656C233.179 371.976 234.256 371.636 235.572 371.636C237.047 371.636 238.167 372.056 238.934 372.894C239.715 373.733 240.105 374.89 240.105 376.365V380.92C240.105 381.18 240.163 381.368 240.279 381.483C240.394 381.585 240.561 381.635 240.777 381.635H241.428V383.436C241.341 383.45 241.197 383.464 240.994 383.479C240.806 383.493 240.618 383.501 240.43 383.501C239.91 383.501 239.469 383.414 239.107 383.24C238.746 383.067 238.471 382.799 238.283 382.438C238.11 382.062 238.008 381.592 237.98 381.028H238.327C238.24 381.534 238.016 381.99 237.654 382.394C237.293 382.799 236.83 383.117 236.266 383.349C235.702 383.58 235.08 383.696 234.401 383.696ZM234.726 381.896C235.42 381.896 236.006 381.773 236.483 381.527C236.96 381.281 237.314 380.934 237.546 380.486C237.792 380.038 237.914 379.51 237.914 378.902V378.013L234.704 378.664C234.01 378.794 233.526 378.996 233.251 379.271C232.976 379.546 232.839 379.907 232.839 380.356C232.839 380.833 233.005 381.209 233.338 381.483C233.671 381.758 234.133 381.896 234.726 381.896ZM257.7 383.436V368.036H262.168C263.86 368.036 265.147 368.405 266.029 369.142C266.911 369.88 267.352 370.906 267.352 372.222C267.352 372.858 267.207 373.429 266.918 373.936C266.629 374.427 266.202 374.825 265.638 375.128C265.089 375.418 264.431 375.569 263.665 375.584V375.454C264.605 375.454 265.393 375.613 266.029 375.931C266.68 376.235 267.171 376.668 267.504 377.232C267.836 377.782 268.003 378.425 268.003 379.163C268.003 380.522 267.533 381.577 266.593 382.329C265.667 383.067 264.366 383.436 262.689 383.436H257.7ZM259.977 381.31H262.71C263.708 381.31 264.446 381.115 264.923 380.724C265.4 380.319 265.638 379.763 265.638 379.054C265.638 378.302 265.385 377.717 264.879 377.297C264.388 376.878 263.665 376.668 262.71 376.668H259.977V381.31ZM259.977 374.565H262.211C263.166 374.565 263.867 374.377 264.315 374.001C264.764 373.61 264.988 373.068 264.988 372.374C264.988 371.665 264.764 371.123 264.315 370.747C263.867 370.357 263.166 370.162 262.211 370.162H259.977V374.565ZM274.067 383.696C273.344 383.696 272.694 383.566 272.115 383.305C271.537 383.045 271.074 382.676 270.727 382.199C270.394 381.722 270.228 381.165 270.228 380.529C270.228 379.546 270.525 378.78 271.117 378.23C271.725 377.681 272.636 377.29 273.85 377.059L277.581 376.278C277.581 375.381 277.386 374.709 276.995 374.261C276.605 373.813 276.019 373.588 275.238 373.588C274.515 373.588 273.952 373.755 273.547 374.087C273.142 374.42 272.867 374.883 272.722 375.475L270.423 375.324C270.64 374.225 271.168 373.335 272.007 372.656C272.845 371.976 273.923 371.636 275.238 371.636C276.713 371.636 277.834 372.056 278.6 372.894C279.381 373.733 279.772 374.89 279.772 376.365V380.92C279.772 381.18 279.829 381.368 279.945 381.483C280.061 381.585 280.227 381.635 280.444 381.635H281.095V383.436C281.008 383.45 280.863 383.464 280.661 383.479C280.473 383.493 280.285 383.501 280.097 383.501C279.576 383.501 279.135 383.414 278.774 383.24C278.412 383.067 278.138 382.799 277.95 382.438C277.776 382.062 277.675 381.592 277.646 381.028H277.993C277.906 381.534 277.682 381.99 277.321 382.394C276.959 382.799 276.496 383.117 275.933 383.349C275.369 383.58 274.747 383.696 274.067 383.696ZM274.393 381.896C275.087 381.896 275.672 381.773 276.149 381.527C276.627 381.281 276.981 380.934 277.212 380.486C277.458 380.038 277.581 379.51 277.581 378.902V378.013L274.371 378.664C273.677 378.794 273.192 378.996 272.918 379.271C272.643 379.546 272.506 379.907 272.506 380.356C272.506 380.833 272.672 381.209 273.004 381.483C273.337 381.758 273.8 381.896 274.393 381.896ZM284.079 383.436V371.897H286.096L286.162 374.912L285.923 374.738C286.068 374.03 286.321 373.451 286.682 373.003C287.058 372.54 287.513 372.2 288.048 371.983C288.584 371.752 289.155 371.636 289.762 371.636C290.63 371.636 291.345 371.832 291.909 372.222C292.473 372.598 292.9 373.119 293.189 373.784C293.478 374.434 293.623 375.172 293.623 375.996V383.436H291.432V376.56C291.432 375.562 291.237 374.81 290.846 374.304C290.47 373.798 289.899 373.545 289.133 373.545C288.598 373.545 288.114 373.661 287.68 373.892C287.26 374.123 286.921 374.471 286.66 374.933C286.4 375.381 286.27 375.938 286.27 376.603V383.436H284.079ZM297.301 383.436V368.036H299.492V377.71L304.698 371.897H307.496L302.984 376.799L307.691 383.436H305.11L301.531 378.273L299.492 380.421V383.436H297.301Z" fill="#565656"/>
<path d="M389.206 382.915L379.229 378.599V375.671L389.206 371.354V373.762L380.595 377.493V376.755L389.206 380.486V382.915ZM396.55 381.44L394.121 371.333L394.447 371.289V383.436H391.931V368.036H395.184L397.852 378.751H397.028L399.695 368.036H402.949V383.436H400.433V371.289L400.758 371.333L398.329 381.44H396.55ZM409.838 383.436V372.894H405.977V370.639H407.799C408.377 370.639 408.84 370.559 409.187 370.4C409.548 370.227 409.809 369.952 409.968 369.576C410.141 369.186 410.228 368.672 410.228 368.036H412.527V383.436H409.838ZM405.283 383.436V380.963H416.041V383.436H405.283ZM418.375 383.436C418.375 382.235 418.541 381.18 418.874 380.269C419.206 379.343 419.785 378.49 420.609 377.71C421.433 376.914 422.583 376.133 424.058 375.367C424.636 375.063 425.113 374.774 425.489 374.499C425.865 374.225 426.147 373.921 426.335 373.588C426.523 373.256 426.617 372.844 426.617 372.352C426.617 371.904 426.523 371.514 426.335 371.181C426.161 370.848 425.894 370.588 425.532 370.4C425.171 370.212 424.723 370.118 424.188 370.118C423.306 370.118 422.626 370.357 422.149 370.834C421.672 371.311 421.368 371.998 421.238 372.894L418.44 372.743C418.599 371.195 419.17 369.966 420.153 369.055C421.137 368.144 422.496 367.689 424.231 367.689C425.344 367.689 426.284 367.877 427.051 368.253C427.817 368.629 428.395 369.164 428.786 369.858C429.176 370.537 429.371 371.326 429.371 372.222C429.371 373.032 429.241 373.733 428.981 374.326C428.721 374.904 428.287 375.447 427.68 375.953C427.087 376.444 426.277 376.965 425.25 377.514C424.383 377.977 423.674 378.418 423.125 378.837C422.59 379.242 422.192 379.625 421.932 379.987C421.672 380.334 421.527 380.659 421.498 380.963H429.393V383.436H418.375ZM435.826 386.841L436.889 383.436H435.545V380.377H438.668V383.11L437.236 386.841H435.826ZM446.576 381.028L452.345 370.292L454.081 370.444L448.311 381.18L446.576 381.028ZM450.328 383.783C449.186 383.783 448.203 383.457 447.379 382.807C446.554 382.156 445.918 381.23 445.47 380.03C445.036 378.83 444.819 377.406 444.819 375.757C444.819 374.095 445.036 372.663 445.47 371.463C445.918 370.263 446.554 369.337 447.379 368.687C448.203 368.022 449.186 367.689 450.328 367.689C451.485 367.689 452.468 368.022 453.278 368.687C454.102 369.337 454.731 370.263 455.165 371.463C455.613 372.663 455.837 374.095 455.837 375.757C455.837 377.406 455.613 378.83 455.165 380.03C454.731 381.23 454.102 382.156 453.278 382.807C452.468 383.457 451.485 383.783 450.328 383.783ZM450.328 381.353C450.907 381.353 451.398 381.144 451.803 380.724C452.208 380.291 452.519 379.654 452.736 378.816C452.953 377.977 453.061 376.958 453.061 375.757C453.061 374.528 452.953 373.502 452.736 372.678C452.519 371.839 452.208 371.203 451.803 370.769C451.398 370.335 450.907 370.118 450.328 370.118C449.764 370.118 449.273 370.335 448.853 370.769C448.449 371.203 448.138 371.839 447.921 372.678C447.704 373.502 447.595 374.528 447.595 375.757C447.595 376.958 447.704 377.977 447.921 378.816C448.138 379.654 448.449 380.291 448.853 380.724C449.273 381.144 449.764 381.353 450.328 381.353ZM459.798 381.028L465.568 370.292L467.303 370.444L461.533 381.18L459.798 381.028ZM463.55 383.783C462.408 383.783 461.425 383.457 460.601 382.807C459.777 382.156 459.14 381.23 458.692 380.03C458.258 378.83 458.041 377.406 458.041 375.757C458.041 374.095 458.258 372.663 458.692 371.463C459.14 370.263 459.777 369.337 460.601 368.687C461.425 368.022 462.408 367.689 463.55 367.689C464.707 367.689 465.691 368.022 466.5 368.687C467.324 369.337 467.953 370.263 468.387 371.463C468.836 372.663 469.06 374.095 469.06 375.757C469.06 377.406 468.836 378.83 468.387 380.03C467.953 381.23 467.324 382.156 466.5 382.807C465.691 383.457 464.707 383.783 463.55 383.783ZM463.55 381.353C464.129 381.353 464.621 381.144 465.025 380.724C465.43 380.291 465.741 379.654 465.958 378.816C466.175 377.977 466.283 376.958 466.283 375.757C466.283 374.528 466.175 373.502 465.958 372.678C465.741 371.839 465.43 371.203 465.025 370.769C464.621 370.335 464.129 370.118 463.55 370.118C462.987 370.118 462.495 370.335 462.076 370.769C461.671 371.203 461.36 371.839 461.143 372.678C460.926 373.502 460.818 374.528 460.818 375.757C460.818 376.958 460.926 377.977 461.143 378.816C461.36 379.654 461.671 380.291 462.076 380.724C462.495 381.144 462.987 381.353 463.55 381.353ZM473.02 381.028L478.79 370.292L480.525 370.444L474.756 381.18L473.02 381.028ZM476.773 383.783C475.63 383.783 474.647 383.457 473.823 382.807C472.999 382.156 472.362 381.23 471.914 380.03C471.48 378.83 471.263 377.406 471.263 375.757C471.263 374.095 471.48 372.663 471.914 371.463C472.362 370.263 472.999 369.337 473.823 368.687C474.647 368.022 475.63 367.689 476.773 367.689C477.929 367.689 478.913 368.022 479.722 368.687C480.547 369.337 481.176 370.263 481.609 371.463C482.058 372.663 482.282 374.095 482.282 375.757C482.282 377.406 482.058 378.83 481.609 380.03C481.176 381.23 480.547 382.156 479.722 382.807C478.913 383.457 477.929 383.783 476.773 383.783ZM476.773 381.353C477.351 381.353 477.843 381.144 478.248 380.724C478.652 380.291 478.963 379.654 479.18 378.816C479.397 377.977 479.506 376.958 479.506 375.757C479.506 374.528 479.397 373.502 479.18 372.678C478.963 371.839 478.652 371.203 478.248 370.769C477.843 370.335 477.351 370.118 476.773 370.118C476.209 370.118 475.717 370.335 475.298 370.769C474.893 371.203 474.582 371.839 474.365 372.678C474.148 373.502 474.04 374.528 474.04 375.757C474.04 376.958 474.148 377.977 474.365 378.816C474.582 379.654 474.893 380.291 475.298 380.724C475.717 381.144 476.209 381.353 476.773 381.353ZM488.411 383.436V380.377H491.578V383.436H488.411ZM499.465 381.028L505.234 370.292L506.969 370.444L501.2 381.18L499.465 381.028ZM503.217 383.783C502.075 383.783 501.091 383.457 500.267 382.807C499.443 382.156 498.807 381.23 498.358 380.03C497.925 378.83 497.708 377.406 497.708 375.757C497.708 374.095 497.925 372.663 498.358 371.463C498.807 370.263 499.443 369.337 500.267 368.687C501.091 368.022 502.075 367.689 503.217 367.689C504.374 367.689 505.357 368.022 506.167 368.687C506.991 369.337 507.62 370.263 508.054 371.463C508.502 372.663 508.726 374.095 508.726 375.757C508.726 377.406 508.502 378.83 508.054 380.03C507.62 381.23 506.991 382.156 506.167 382.807C505.357 383.457 504.374 383.783 503.217 383.783ZM503.217 381.353C503.795 381.353 504.287 381.144 504.692 380.724C505.097 380.291 505.408 379.654 505.624 378.816C505.841 377.977 505.95 376.958 505.95 375.757C505.95 374.528 505.841 373.502 505.624 372.678C505.408 371.839 505.097 371.203 504.692 370.769C504.287 370.335 503.795 370.118 503.217 370.118C502.653 370.118 502.161 370.335 501.742 370.769C501.337 371.203 501.026 371.839 500.809 372.678C500.593 373.502 500.484 374.528 500.484 375.757C500.484 376.958 500.593 377.977 500.809 378.816C501.026 379.654 501.337 380.291 501.742 380.724C502.161 381.144 502.653 381.353 503.217 381.353ZM512.687 381.028L518.456 370.292L520.191 370.444L514.422 381.18L512.687 381.028ZM516.439 383.783C515.297 383.783 514.314 383.457 513.489 382.807C512.665 382.156 512.029 381.23 511.581 380.03C511.147 378.83 510.93 377.406 510.93 375.757C510.93 374.095 511.147 372.663 511.581 371.463C512.029 370.263 512.665 369.337 513.489 368.687C514.314 368.022 515.297 367.689 516.439 367.689C517.596 367.689 518.579 368.022 519.389 368.687C520.213 369.337 520.842 370.263 521.276 371.463C521.724 372.663 521.948 374.095 521.948 375.757C521.948 377.406 521.724 378.83 521.276 380.03C520.842 381.23 520.213 382.156 519.389 382.807C518.579 383.457 517.596 383.783 516.439 383.783ZM516.439 381.353C517.017 381.353 517.509 381.144 517.914 380.724C518.319 380.291 518.63 379.654 518.847 378.816C519.064 377.977 519.172 376.958 519.172 375.757C519.172 374.528 519.064 373.502 518.847 372.678C518.63 371.839 518.319 371.203 517.914 370.769C517.509 370.335 517.017 370.118 516.439 370.118C515.875 370.118 515.384 370.335 514.964 370.769C514.559 371.203 514.248 371.839 514.032 372.678C513.815 373.502 513.706 374.528 513.706 375.757C513.706 376.958 513.815 377.977 514.032 378.816C514.248 379.654 514.559 380.291 514.964 380.724C515.384 381.144 515.875 381.353 516.439 381.353Z" fill="#2F2F2F"/>
<path d="M126.408 332.877C125.613 332.877 124.916 332.717 124.317 332.397C123.728 332.076 123.258 331.632 122.907 331.064C122.556 330.486 122.349 329.814 122.287 329.05L123.96 328.942C124.033 329.468 124.177 329.913 124.394 330.274C124.611 330.636 124.895 330.909 125.246 331.095C125.598 331.271 126.005 331.359 126.47 331.359C126.925 331.359 127.307 331.302 127.617 331.188C127.927 331.064 128.164 330.889 128.329 330.661C128.495 330.434 128.577 330.16 128.577 329.84C128.577 329.51 128.5 329.221 128.345 328.973C128.19 328.725 127.911 328.498 127.508 328.291C127.105 328.084 126.517 327.873 125.742 327.656C124.988 327.449 124.374 327.217 123.898 326.959C123.423 326.7 123.077 326.38 122.86 325.998C122.644 325.616 122.535 325.141 122.535 324.573C122.535 323.943 122.68 323.39 122.969 322.915C123.268 322.43 123.692 322.053 124.239 321.784C124.797 321.516 125.463 321.381 126.238 321.381C127.002 321.381 127.653 321.531 128.19 321.831C128.737 322.13 129.166 322.548 129.476 323.086C129.796 323.612 129.992 324.232 130.065 324.945L128.391 325.038C128.34 324.614 128.221 324.242 128.035 323.922C127.859 323.602 127.617 323.354 127.307 323.178C126.997 322.993 126.625 322.9 126.191 322.9C125.582 322.9 125.097 323.049 124.735 323.349C124.384 323.638 124.208 324.02 124.208 324.495C124.208 324.816 124.281 325.079 124.425 325.285C124.57 325.492 124.823 325.678 125.184 325.843C125.546 326.008 126.052 326.179 126.703 326.354C127.581 326.592 128.278 326.866 128.794 327.176C129.311 327.485 129.682 327.857 129.91 328.291C130.137 328.725 130.25 329.241 130.25 329.84C130.25 330.439 130.09 330.971 129.77 331.436C129.45 331.89 129.001 332.247 128.422 332.505C127.854 332.753 127.183 332.877 126.408 332.877ZM135.822 332.815C135.047 332.815 134.371 332.639 133.792 332.288C133.224 331.937 132.78 331.436 132.46 330.785C132.15 330.135 131.995 329.375 131.995 328.508C131.995 327.64 132.15 326.886 132.46 326.246C132.78 325.606 133.219 325.105 133.777 324.743C134.345 324.382 135.011 324.201 135.775 324.201C136.509 324.201 137.154 324.377 137.712 324.728C138.27 325.069 138.703 325.564 139.013 326.215C139.333 326.855 139.493 327.63 139.493 328.539V328.973H133.637C133.689 329.758 133.906 330.357 134.288 330.77C134.68 331.173 135.197 331.374 135.837 331.374C136.323 331.374 136.725 331.26 137.046 331.033C137.366 330.796 137.588 330.491 137.712 330.119L139.354 330.228C139.116 331.013 138.688 331.643 138.068 332.118C137.459 332.582 136.71 332.815 135.822 332.815ZM133.637 327.718H137.805C137.743 327.015 137.526 326.494 137.154 326.153C136.793 325.812 136.333 325.642 135.775 325.642C135.197 325.642 134.722 325.817 134.35 326.169C133.978 326.52 133.741 327.036 133.637 327.718ZM144.6 332.629V323.969C144.6 323.648 144.507 323.401 144.321 323.225C144.145 323.039 143.898 322.946 143.577 322.946H141.687V321.629H143.748C144.543 321.629 145.142 321.836 145.545 322.249C145.958 322.652 146.165 323.251 146.165 324.046V332.629H144.6ZM141.377 332.629V331.312H148.938V332.629H141.377ZM154.71 332.815C153.936 332.815 153.259 332.639 152.681 332.288C152.113 331.937 151.669 331.436 151.349 330.785C151.039 330.135 150.884 329.375 150.884 328.508C150.884 327.64 151.039 326.886 151.349 326.246C151.669 325.606 152.108 325.105 152.665 324.743C153.234 324.382 153.9 324.201 154.664 324.201C155.397 324.201 156.043 324.377 156.601 324.728C157.158 325.069 157.592 325.564 157.902 326.215C158.222 326.855 158.382 327.63 158.382 328.539V328.973H152.526C152.578 329.758 152.795 330.357 153.177 330.77C153.569 331.173 154.086 331.374 154.726 331.374C155.211 331.374 155.614 331.26 155.934 331.033C156.255 330.796 156.477 330.491 156.601 330.119L158.243 330.228C158.005 331.013 157.577 331.643 156.957 332.118C156.348 332.582 155.599 332.815 154.71 332.815ZM152.526 327.718H156.694C156.632 327.015 156.415 326.494 156.043 326.153C155.681 325.812 155.222 325.642 154.664 325.642C154.086 325.642 153.611 325.817 153.239 326.169C152.867 326.52 152.629 327.036 152.526 327.718ZM164.232 332.815C163.468 332.815 162.792 332.639 162.203 332.288C161.624 331.927 161.175 331.426 160.855 330.785C160.545 330.135 160.39 329.375 160.39 328.508C160.39 327.64 160.545 326.886 160.855 326.246C161.175 325.606 161.624 325.105 162.203 324.743C162.792 324.382 163.468 324.201 164.232 324.201C164.862 324.201 165.425 324.32 165.921 324.557C166.417 324.785 166.825 325.12 167.145 325.564C167.465 326.008 167.677 326.54 167.78 327.16L166.184 327.268C166.06 326.742 165.828 326.339 165.487 326.06C165.146 325.781 164.733 325.642 164.248 325.642C163.556 325.642 163.008 325.9 162.606 326.416C162.213 326.922 162.017 327.62 162.017 328.508C162.017 329.396 162.213 330.098 162.606 330.615C163.008 331.121 163.556 331.374 164.248 331.374C164.744 331.374 165.167 331.229 165.518 330.94C165.88 330.641 166.117 330.202 166.231 329.623L167.827 329.716C167.723 330.346 167.506 330.894 167.176 331.359C166.845 331.813 166.427 332.169 165.921 332.428C165.425 332.686 164.862 332.815 164.232 332.815ZM174.668 332.629C173.832 332.629 173.207 332.438 172.794 332.056C172.391 331.663 172.189 331.064 172.189 330.259V322.45H173.754V330.181C173.754 330.563 173.842 330.847 174.018 331.033C174.203 331.219 174.477 331.312 174.839 331.312H176.961V332.629H174.668ZM169.587 325.704V324.387H176.961V325.704H169.587ZM191.264 332.815C190.748 332.815 190.283 332.722 189.87 332.536C189.457 332.35 189.126 332.087 188.878 331.746C188.641 331.405 188.522 331.007 188.522 330.553C188.522 329.851 188.734 329.303 189.157 328.911C189.591 328.518 190.242 328.239 191.109 328.074L193.774 327.516C193.774 326.876 193.635 326.396 193.356 326.076C193.077 325.755 192.658 325.595 192.101 325.595C191.584 325.595 191.182 325.714 190.892 325.952C190.603 326.189 190.407 326.52 190.304 326.943L188.661 326.835C188.816 326.05 189.193 325.415 189.792 324.929C190.391 324.444 191.161 324.201 192.101 324.201C193.154 324.201 193.955 324.5 194.502 325.1C195.06 325.699 195.339 326.525 195.339 327.578V330.832C195.339 331.018 195.38 331.152 195.463 331.235C195.545 331.307 195.664 331.343 195.819 331.343H196.284V332.629C196.222 332.639 196.118 332.65 195.974 332.66C195.84 332.67 195.705 332.675 195.571 332.675C195.199 332.675 194.884 332.613 194.626 332.489C194.368 332.366 194.172 332.174 194.037 331.916C193.913 331.648 193.841 331.312 193.82 330.909H194.068C194.006 331.271 193.846 331.596 193.588 331.885C193.33 332.174 192.999 332.402 192.597 332.567C192.194 332.732 191.75 332.815 191.264 332.815ZM191.497 331.529C191.992 331.529 192.411 331.441 192.751 331.266C193.092 331.09 193.345 330.842 193.511 330.522C193.686 330.202 193.774 329.825 193.774 329.391V328.756L191.481 329.221C190.985 329.314 190.639 329.458 190.443 329.654C190.247 329.851 190.149 330.109 190.149 330.429C190.149 330.77 190.267 331.038 190.505 331.235C190.743 331.431 191.073 331.529 191.497 331.529ZM198.416 332.629V324.387H199.856L199.903 326.54L199.733 326.416C199.836 325.91 200.017 325.497 200.275 325.177C200.543 324.846 200.869 324.604 201.251 324.449C201.633 324.284 202.041 324.201 202.475 324.201C203.094 324.201 203.606 324.34 204.008 324.619C204.411 324.888 204.716 325.26 204.923 325.735C205.129 326.2 205.232 326.726 205.232 327.315V332.629H203.668V327.718C203.668 327.005 203.528 326.468 203.249 326.107C202.981 325.745 202.573 325.564 202.025 325.564C201.643 325.564 201.297 325.647 200.987 325.812C200.688 325.977 200.445 326.225 200.259 326.556C200.073 326.876 199.98 327.274 199.98 327.749V332.629H198.416ZM219.597 332.815C219.081 332.815 218.616 332.722 218.203 332.536C217.79 332.35 217.459 332.087 217.211 331.746C216.974 331.405 216.855 331.007 216.855 330.553C216.855 329.851 217.067 329.303 217.49 328.911C217.924 328.518 218.575 328.239 219.442 328.074L222.107 327.516C222.107 326.876 221.968 326.396 221.689 326.076C221.41 325.755 220.992 325.595 220.434 325.595C219.918 325.595 219.515 325.714 219.226 325.952C218.936 326.189 218.74 326.52 218.637 326.943L216.995 326.835C217.15 326.05 217.527 325.415 218.126 324.929C218.725 324.444 219.494 324.201 220.434 324.201C221.487 324.201 222.288 324.5 222.835 325.1C223.393 325.699 223.672 326.525 223.672 327.578V330.832C223.672 331.018 223.713 331.152 223.796 331.235C223.878 331.307 223.997 331.343 224.152 331.343H224.617V332.629C224.555 332.639 224.452 332.65 224.307 332.66C224.173 332.67 224.039 332.675 223.904 332.675C223.532 332.675 223.217 332.613 222.959 332.489C222.701 332.366 222.505 332.174 222.371 331.916C222.247 331.648 222.174 331.312 222.154 330.909H222.401C222.34 331.271 222.179 331.596 221.921 331.885C221.663 332.174 221.333 332.402 220.93 332.567C220.527 332.732 220.083 332.815 219.597 332.815ZM219.83 331.529C220.325 331.529 220.744 331.441 221.085 331.266C221.425 331.09 221.679 330.842 221.844 330.522C222.019 330.202 222.107 329.825 222.107 329.391V328.756L219.814 329.221C219.318 329.314 218.972 329.458 218.776 329.654C218.58 329.851 218.482 330.109 218.482 330.429C218.482 330.77 218.601 331.038 218.838 331.235C219.076 331.431 219.406 331.529 219.83 331.529ZM230.343 332.815C229.579 332.815 228.902 332.639 228.314 332.288C227.735 331.927 227.286 331.426 226.966 330.785C226.656 330.135 226.501 329.375 226.501 328.508C226.501 327.64 226.656 326.886 226.966 326.246C227.286 325.606 227.735 325.105 228.314 324.743C228.902 324.382 229.579 324.201 230.343 324.201C230.973 324.201 231.536 324.32 232.032 324.557C232.528 324.785 232.936 325.12 233.256 325.564C233.576 326.008 233.788 326.54 233.891 327.16L232.295 327.268C232.171 326.742 231.939 326.339 231.598 326.06C231.257 325.781 230.844 325.642 230.359 325.642C229.667 325.642 229.119 325.9 228.716 326.416C228.324 326.922 228.128 327.62 228.128 328.508C228.128 329.396 228.324 330.098 228.716 330.615C229.119 331.121 229.667 331.374 230.359 331.374C230.854 331.374 231.278 331.229 231.629 330.94C231.99 330.641 232.228 330.202 232.342 329.623L233.937 329.716C233.834 330.346 233.617 330.894 233.287 331.359C232.956 331.813 232.538 332.169 232.032 332.428C231.536 332.686 230.973 332.815 230.343 332.815ZM239.788 332.815C239.023 332.815 238.347 332.639 237.758 332.288C237.18 331.927 236.73 331.426 236.41 330.785C236.1 330.135 235.945 329.375 235.945 328.508C235.945 327.64 236.1 326.886 236.41 326.246C236.73 325.606 237.18 325.105 237.758 324.743C238.347 324.382 239.023 324.201 239.788 324.201C240.418 324.201 240.98 324.32 241.476 324.557C241.972 324.785 242.38 325.12 242.7 325.564C243.02 326.008 243.232 326.54 243.335 327.16L241.74 327.268C241.616 326.742 241.383 326.339 241.042 326.06C240.702 325.781 240.288 325.642 239.803 325.642C239.111 325.642 238.564 325.9 238.161 326.416C237.768 326.922 237.572 327.62 237.572 328.508C237.572 329.396 237.768 330.098 238.161 330.615C238.564 331.121 239.111 331.374 239.803 331.374C240.299 331.374 240.722 331.229 241.073 330.94C241.435 330.641 241.672 330.202 241.786 329.623L243.382 329.716C243.278 330.346 243.062 330.894 242.731 331.359C242.401 331.813 241.982 332.169 241.476 332.428C240.98 332.686 240.418 332.815 239.788 332.815ZM249.046 332.815C248.282 332.815 247.61 332.639 247.032 332.288C246.464 331.937 246.02 331.436 245.7 330.785C245.39 330.135 245.235 329.375 245.235 328.508C245.235 327.63 245.39 326.871 245.7 326.23C246.02 325.58 246.464 325.079 247.032 324.728C247.61 324.377 248.282 324.201 249.046 324.201C249.81 324.201 250.476 324.377 251.045 324.728C251.623 325.079 252.067 325.58 252.377 326.23C252.697 326.871 252.857 327.63 252.857 328.508C252.857 329.375 252.697 330.135 252.377 330.785C252.067 331.436 251.623 331.937 251.045 332.288C250.476 332.639 249.81 332.815 249.046 332.815ZM249.046 331.374C249.738 331.374 250.27 331.121 250.642 330.615C251.024 330.109 251.215 329.406 251.215 328.508C251.215 327.609 251.024 326.907 250.642 326.401C250.27 325.895 249.738 325.642 249.046 325.642C248.354 325.642 247.817 325.895 247.435 326.401C247.063 326.907 246.877 327.609 246.877 328.508C246.877 329.406 247.063 330.109 247.435 330.615C247.817 331.121 248.354 331.374 249.046 331.374ZM257.778 332.815C256.982 332.815 256.347 332.546 255.872 332.009C255.397 331.462 255.159 330.698 255.159 329.716V324.387H256.724V329.314C256.724 330.057 256.853 330.599 257.112 330.94C257.37 331.281 257.762 331.451 258.289 331.451C258.857 331.451 259.311 331.26 259.652 330.878C260.003 330.496 260.179 329.954 260.179 329.252V324.387H261.744V332.629H260.272L260.257 330.475L260.473 330.568C260.329 331.281 260.024 331.834 259.559 332.226C259.095 332.619 258.501 332.815 257.778 332.815ZM264.526 332.629V324.387H265.967L266.014 326.54L265.843 326.416C265.947 325.91 266.127 325.497 266.386 325.177C266.654 324.846 266.979 324.604 267.362 324.449C267.744 324.284 268.152 324.201 268.585 324.201C269.205 324.201 269.716 324.34 270.119 324.619C270.522 324.888 270.827 325.26 271.033 325.735C271.24 326.2 271.343 326.726 271.343 327.315V332.629H269.778V327.718C269.778 327.005 269.639 326.468 269.36 326.107C269.092 325.745 268.684 325.564 268.136 325.564C267.754 325.564 267.408 325.647 267.098 325.812C266.799 325.977 266.556 326.225 266.37 326.556C266.184 326.876 266.091 327.274 266.091 327.749V332.629H264.526ZM278.557 332.629C277.72 332.629 277.095 332.438 276.682 332.056C276.279 331.663 276.078 331.064 276.078 330.259V322.45H277.643V330.181C277.643 330.563 277.73 330.847 277.906 331.033C278.092 331.219 278.366 331.312 278.727 331.312H280.85V332.629H278.557ZM273.475 325.704V324.387H280.85V325.704H273.475Z" fill="#5C616F"/>
<foreignObject x="38.8482" y="34.4947" width="552.577" height="306.333"><div xmlns="http://www.w3.org/1999/xhtml" style="backdrop-filter:blur(12.39px);clip-path:url(#bgblur_3_923_12477_clip_path);height:100%;width:100%"></div></foreignObject><rect data-figma-bg-blur-radius="24.7885" x="63.6367" y="59.2832" width="503" height="256.755" rx="24.0239" fill="white" fill-opacity="0.6"/>
<path d="M92.6666 102.342L90.6486 93.946L90.9189 93.91L90.9189 104L88.8288 104L88.8288 91.2073L91.5315 91.2073L93.7477 100.108L93.063 100.108L95.2792 91.2073L97.9819 91.2073L97.9819 104L95.8918 104L95.8918 93.91L96.1621 93.946L94.1441 102.342L92.6666 102.342ZM104.389 104.216C103.488 104.216 102.696 104.012 102.011 103.604C101.338 103.195 100.816 102.613 100.443 101.856C100.071 101.099 99.8848 100.21 99.8848 99.1892C99.8848 98.1682 100.071 97.2793 100.443 96.5226C100.816 95.7658 101.338 95.1832 102.011 94.7748C102.696 94.3664 103.488 94.1622 104.389 94.1622C105.29 94.1622 106.077 94.3664 106.75 94.7748C107.434 95.1832 107.963 95.7658 108.335 96.5226C108.708 97.2673 108.894 98.1562 108.894 99.1892C108.894 100.21 108.708 101.099 108.335 101.856C107.963 102.613 107.434 103.195 106.75 103.604C106.077 104.012 105.29 104.216 104.389 104.216ZM104.389 102.306C105.122 102.306 105.687 102.036 106.083 101.496C106.479 100.943 106.678 100.174 106.678 99.1892C106.678 98.2042 106.479 97.4415 106.083 96.9009C105.687 96.3484 105.122 96.0721 104.389 96.0721C103.657 96.0721 103.092 96.3484 102.696 96.9009C102.299 97.4415 102.101 98.2042 102.101 99.1892C102.101 100.174 102.299 100.943 102.696 101.496C103.092 102.036 103.657 102.306 104.389 102.306ZM111.337 104L111.337 94.3784L113.283 94.3784L113.355 96.955L113.139 96.8289C113.247 96.2163 113.451 95.7178 113.752 95.3334C114.052 94.937 114.418 94.6427 114.851 94.4505C115.295 94.2583 115.776 94.1622 116.292 94.1622C117.001 94.1622 117.583 94.3184 118.04 94.6307C118.496 94.943 118.839 95.3754 119.067 95.928C119.295 96.4685 119.409 97.0871 119.409 97.7838L119.409 104L117.283 104L117.283 98.2883C117.283 97.5196 117.139 96.943 116.851 96.5586C116.574 96.1742 116.148 95.982 115.571 95.982C115.187 95.982 114.833 96.0721 114.508 96.2523C114.196 96.4325 113.944 96.7027 113.752 97.0631C113.559 97.4115 113.463 97.8439 113.463 98.3604L113.463 104L111.337 104ZM127.708 104C126.675 104 125.913 103.766 125.42 103.297C124.928 102.817 124.681 102.09 124.681 101.117L124.681 92.1262L126.807 92.1262L126.807 100.955C126.807 101.399 126.916 101.73 127.132 101.946C127.348 102.162 127.666 102.27 128.087 102.27L130.465 102.27L130.465 104L127.708 104ZM121.78 96.1082L121.78 94.3784L130.465 94.3784L130.465 96.1082L121.78 96.1082ZM133.485 104L133.485 91.2073L135.611 91.2073L135.611 96.4505L135.413 96.3244C135.557 95.8199 135.767 95.4115 136.044 95.0992C136.332 94.7748 136.674 94.5406 137.071 94.3965C137.467 94.2403 137.911 94.1622 138.404 94.1622C139.065 94.1622 139.617 94.3124 140.062 94.6127C140.518 94.913 140.854 95.3394 141.071 95.8919C141.299 96.4325 141.413 97.0691 141.413 97.8018L141.413 104L139.287 104L139.287 98.2883C139.287 97.4715 139.149 96.8829 138.872 96.5226C138.596 96.1622 138.194 95.982 137.665 95.982C137.053 95.982 136.554 96.1862 136.17 96.5946C135.797 97.003 135.611 97.6036 135.611 98.3964L135.611 104L133.485 104ZM147.514 104L147.514 94.0901C147.514 93.7298 147.412 93.4475 147.208 93.2433C147.016 93.0391 146.733 92.937 146.361 92.937L144.217 92.937L144.217 91.2073L146.685 91.2073C147.658 91.2073 148.391 91.4595 148.883 91.964C149.388 92.4565 149.64 93.1953 149.64 94.1802L149.64 104L147.514 104ZM143.856 104L143.856 102.27L152.793 102.27L152.793 104L143.856 104ZM156.12 106.703L156.12 104.973L157.345 104.973C157.669 104.973 157.915 104.925 158.083 104.829C158.252 104.733 158.378 104.565 158.462 104.324L158.768 103.532L158.065 103.532L154.624 94.3784L156.876 94.3784L159.435 101.514L161.777 94.3784L164.029 94.3784L160.264 104.973C160.047 105.586 159.717 106.024 159.273 106.288C158.84 106.565 158.27 106.703 157.561 106.703L156.12 106.703ZM177.24 104L177.24 91.2073L181.06 91.2073C182.478 91.2073 183.559 91.5076 184.303 92.1082C185.048 92.6968 185.421 93.5496 185.421 94.6667C185.421 95.1832 185.3 95.6517 185.06 96.0721C184.832 96.4805 184.484 96.8109 184.015 97.0631C183.559 97.3033 182.994 97.4415 182.322 97.4775L182.322 97.3514C183.138 97.3754 183.811 97.5196 184.34 97.7838C184.88 98.0481 185.282 98.4144 185.547 98.8829C185.823 99.3394 185.961 99.8679 185.961 100.468C185.961 101.61 185.571 102.486 184.79 103.099C184.009 103.7 182.904 104 181.475 104L177.24 104ZM179.457 101.982L181.475 101.982C182.219 101.97 182.766 101.82 183.114 101.532C183.475 101.231 183.655 100.817 183.655 100.288C183.655 99.7237 183.469 99.2853 183.096 98.973C182.736 98.6607 182.195 98.5045 181.475 98.5045L179.457 98.5045L179.457 101.982ZM179.457 96.5226L181.06 96.5226C181.769 96.5226 182.285 96.3784 182.61 96.0901C182.946 95.8019 183.114 95.3934 183.114 94.8649C183.114 94.3364 182.946 93.934 182.61 93.6577C182.285 93.3694 181.769 93.2253 181.06 93.2253L179.457 93.2253L179.457 96.5226ZM191.287 104.216C190.362 104.216 189.63 103.91 189.089 103.297C188.561 102.673 188.296 101.79 188.296 100.649L188.296 94.3784L190.423 94.3784L190.423 100.09C190.423 100.895 190.555 101.483 190.819 101.856C191.095 102.216 191.51 102.396 192.062 102.396C192.639 102.396 193.107 102.192 193.468 101.784C193.84 101.363 194.026 100.775 194.026 100.018L194.026 94.3784L196.17 94.3784L196.17 104L194.188 104L194.152 101.351L194.423 101.441C194.266 102.33 193.918 103.015 193.377 103.495C192.837 103.976 192.14 104.216 191.287 104.216ZM202.343 104.216C201.539 104.216 200.842 104.018 200.253 103.622C199.665 103.213 199.208 102.637 198.884 101.892C198.572 101.135 198.415 100.234 198.415 99.1892C198.415 98.1442 198.572 97.2493 198.884 96.5045C199.208 95.7478 199.665 95.1712 200.253 94.7748C200.842 94.3664 201.539 94.1622 202.343 94.1622C203.016 94.1622 203.599 94.3184 204.091 94.6307C204.596 94.931 204.962 95.2973 205.19 95.7298L205.19 91.2073L207.316 91.2073L207.316 104L205.298 104L205.244 102.505C204.992 103.009 204.614 103.423 204.109 103.748C203.617 104.06 203.028 104.216 202.343 104.216ZM202.848 102.306C203.316 102.306 203.725 102.18 204.073 101.928C204.433 101.676 204.71 101.321 204.902 100.865C205.094 100.396 205.19 99.8379 205.19 99.1892C205.19 98.5286 205.094 97.97 204.902 97.5136C204.71 97.0451 204.433 96.6907 204.073 96.4505C203.725 96.1982 203.304 96.0721 202.812 96.0721C202.127 96.0721 201.593 96.3484 201.208 96.9009C200.824 97.4415 200.632 98.2042 200.632 99.1892C200.632 100.174 200.824 100.943 201.208 101.496C201.593 102.036 202.139 102.306 202.848 102.306ZM214.174 106.919C213.417 106.919 212.751 106.805 212.174 106.577C211.61 106.348 211.141 106.024 210.769 105.604C210.396 105.183 210.144 104.697 210.012 104.144L212.246 104C212.354 104.348 212.558 104.619 212.859 104.811C213.159 105.015 213.598 105.117 214.174 105.117C214.919 105.117 215.483 104.955 215.868 104.631C216.264 104.306 216.462 103.832 216.462 103.207L216.462 101.946C216.234 102.414 215.886 102.793 215.417 103.081C214.961 103.357 214.402 103.495 213.742 103.495C212.961 103.495 212.264 103.303 211.652 102.919C211.039 102.523 210.558 101.976 210.21 101.279C209.862 100.583 209.688 99.7838 209.688 98.8829C209.688 97.934 209.856 97.1112 210.192 96.4145C210.54 95.7058 211.015 95.1532 211.616 94.7568C212.216 94.3604 212.907 94.1622 213.688 94.1622C214.348 94.1622 214.919 94.3124 215.399 94.6127C215.892 94.913 216.258 95.3274 216.498 95.8559L216.534 94.3784L218.588 94.3784L218.588 103.009C218.588 103.862 218.408 104.577 218.048 105.153C217.688 105.742 217.177 106.18 216.516 106.468C215.856 106.769 215.075 106.919 214.174 106.919ZM214.174 101.712C214.847 101.712 215.393 101.465 215.814 100.973C216.234 100.481 216.45 99.7718 216.462 98.8469C216.462 98.2343 216.366 97.7117 216.174 97.2793C215.994 96.8469 215.73 96.5226 215.381 96.3064C215.033 96.0781 214.631 95.964 214.174 95.964C213.453 95.964 212.895 96.2163 212.498 96.7208C212.102 97.2133 211.904 97.922 211.904 98.8469C211.904 99.7718 212.102 100.481 212.498 100.973C212.907 101.465 213.465 101.712 214.174 101.712ZM225.302 104.216C224.401 104.216 223.608 104.012 222.924 103.604C222.251 103.195 221.729 102.613 221.356 101.856C220.984 101.099 220.798 100.21 220.798 99.1892C220.798 98.1802 220.984 97.3033 221.356 96.5586C221.729 95.8019 222.245 95.2133 222.906 94.7928C223.578 94.3724 224.365 94.1622 225.266 94.1622C226.131 94.1622 226.894 94.3664 227.554 94.7748C228.227 95.1832 228.75 95.7658 229.122 96.5226C229.506 97.2793 229.698 98.1802 229.698 99.2253L229.698 99.7838L222.996 99.7838C223.056 100.601 223.29 101.225 223.699 101.658C224.119 102.09 224.665 102.306 225.338 102.306C225.855 102.306 226.281 102.186 226.617 101.946C226.966 101.694 227.206 101.369 227.338 100.973L229.518 101.135C229.218 102.096 228.707 102.853 227.987 103.405C227.266 103.946 226.371 104.216 225.302 104.216ZM223.014 98.2343L227.392 98.2343C227.332 97.5015 227.11 96.961 226.726 96.6127C226.341 96.2523 225.849 96.0721 225.248 96.0721C224.647 96.0721 224.149 96.2583 223.753 96.6307C223.368 96.991 223.122 97.5256 223.014 98.2343ZM237.547 104C236.514 104 235.751 103.766 235.259 103.297C234.766 102.817 234.52 102.09 234.52 101.117L234.52 92.1262L236.646 92.1262L236.646 100.955C236.646 101.399 236.754 101.73 236.971 101.946C237.187 102.162 237.505 102.27 237.926 102.27L240.304 102.27L240.304 104L237.547 104ZM231.619 96.1082L231.619 94.3784L240.304 94.3784L240.304 96.1082L231.619 96.1082Z" fill="#565656"/>
<rect x="88" y="137.027" width="58.5582" height="58.5582" rx="29.2791" fill="#F5F5F5"/>
<rect x="88.2" y="137.227" width="58.1582" height="58.1582" rx="29.0791" stroke="black" stroke-opacity="0.13" stroke-width="0.4"/>
<path d="M103.765 179.199H130.792V152.172H103.765V179.199Z" fill="#0E1B42"/>
<path d="M160.588 158.027V143.103H170.006V145.457H161.597L163.195 143.943V150.796L161.597 149.556H169.627V151.889H161.597L163.195 150.67V158.027H160.588ZM176.745 158.027V146.466C176.745 146.045 176.626 145.716 176.388 145.478C176.164 145.24 175.834 145.121 175.4 145.121H172.898V143.103H175.778C176.913 143.103 177.768 143.397 178.343 143.985C178.931 144.56 179.226 145.422 179.226 146.571V158.027H176.745ZM172.478 158.027V156.009H182.904V158.027H172.478ZM190.611 158.28C189.56 158.28 188.635 158.041 187.836 157.565C187.051 157.088 186.442 156.409 186.007 155.526C185.573 154.643 185.356 153.606 185.356 152.415C185.356 151.238 185.573 150.215 186.007 149.346C186.442 148.463 187.044 147.776 187.815 147.286C188.6 146.795 189.518 146.55 190.569 146.55C191.578 146.55 192.468 146.788 193.238 147.265C194.023 147.741 194.633 148.421 195.067 149.304C195.516 150.187 195.74 151.238 195.74 152.457V153.108H187.92C187.99 154.061 188.263 154.79 188.74 155.295C189.23 155.799 189.868 156.051 190.653 156.051C191.255 156.051 191.753 155.911 192.145 155.631C192.552 155.337 192.832 154.958 192.986 154.496L195.53 154.685C195.179 155.806 194.584 156.689 193.743 157.334C192.902 157.964 191.858 158.28 190.611 158.28ZM187.941 151.301H193.049C192.979 150.446 192.72 149.815 192.271 149.409C191.823 148.988 191.248 148.778 190.548 148.778C189.847 148.778 189.265 148.995 188.803 149.43C188.355 149.85 188.067 150.474 187.941 151.301ZM197.855 158.027L201.912 152.268L198.065 146.802H200.798L203.341 150.565L205.822 146.802H208.596L204.771 152.31L208.786 158.027H206.032L203.341 153.97L200.63 158.027H197.855ZM215.63 158.027V146.802H218.111V158.027H215.63ZM211.342 158.027V156.009H221.768V158.027H211.342ZM211.552 148.82V146.802H217.753V148.82H211.552ZM215.525 145.31V142.955H218.048V145.31H215.525ZM224.241 158.027V146.802H226.511L226.595 149.808L226.343 149.661C226.469 148.946 226.707 148.365 227.057 147.916C227.408 147.454 227.835 147.11 228.34 146.886C228.858 146.662 229.419 146.55 230.021 146.55C230.848 146.55 231.528 146.732 232.06 147.096C232.593 147.461 232.992 147.965 233.259 148.61C233.525 149.241 233.658 149.962 233.658 150.775V158.027H231.177V151.364C231.177 150.467 231.009 149.794 230.673 149.346C230.351 148.897 229.853 148.673 229.18 148.673C228.732 148.673 228.319 148.778 227.94 148.988C227.576 149.199 227.282 149.514 227.057 149.934C226.833 150.341 226.721 150.845 226.721 151.448V158.027H224.241ZM241.701 161.433C240.818 161.433 240.04 161.3 239.367 161.033C238.709 160.767 238.162 160.389 237.728 159.898C237.293 159.408 236.999 158.84 236.845 158.196L239.451 158.027C239.578 158.434 239.816 158.749 240.166 158.973C240.517 159.212 241.028 159.331 241.701 159.331C242.57 159.331 243.228 159.141 243.677 158.763C244.139 158.385 244.37 157.831 244.37 157.102V155.631C244.104 156.178 243.698 156.619 243.151 156.955C242.619 157.278 241.967 157.439 241.196 157.439C240.285 157.439 239.473 157.215 238.758 156.766C238.043 156.304 237.483 155.666 237.076 154.853C236.67 154.04 236.467 153.108 236.467 152.057C236.467 150.95 236.663 149.99 237.055 149.178C237.462 148.351 238.015 147.706 238.716 147.244C239.416 146.781 240.222 146.55 241.133 146.55C241.904 146.55 242.57 146.725 243.13 147.075C243.705 147.426 244.132 147.909 244.412 148.526L244.454 146.802H246.851V156.871C246.851 157.866 246.641 158.7 246.22 159.373C245.8 160.059 245.204 160.571 244.433 160.907C243.663 161.258 242.752 161.433 241.701 161.433ZM241.701 155.358C242.486 155.358 243.123 155.07 243.614 154.496C244.104 153.921 244.356 153.094 244.37 152.015C244.37 151.301 244.258 150.691 244.034 150.187C243.824 149.682 243.516 149.304 243.109 149.051C242.703 148.785 242.233 148.652 241.701 148.652C240.86 148.652 240.208 148.946 239.746 149.535C239.283 150.109 239.052 150.936 239.052 152.015C239.052 153.094 239.283 153.921 239.746 154.496C240.222 155.07 240.874 155.358 241.701 155.358ZM262.684 158.027V143.103H267.141C268.794 143.103 270.056 143.453 270.924 144.154C271.793 144.84 272.228 145.835 272.228 147.139C272.228 147.741 272.088 148.288 271.807 148.778C271.541 149.255 271.135 149.64 270.588 149.934C270.056 150.215 269.397 150.376 268.612 150.418V150.271C269.565 150.299 270.35 150.467 270.966 150.775C271.597 151.083 272.067 151.511 272.375 152.057C272.697 152.59 272.858 153.207 272.858 153.907C272.858 155.239 272.403 156.262 271.492 156.976C270.581 157.677 269.292 158.027 267.624 158.027H262.684ZM265.27 155.673H267.624C268.493 155.659 269.131 155.484 269.537 155.147C269.957 154.797 270.168 154.314 270.168 153.697C270.168 153.038 269.95 152.527 269.516 152.163C269.096 151.798 268.465 151.616 267.624 151.616H265.27V155.673ZM265.27 149.304H267.141C267.967 149.304 268.57 149.136 268.948 148.799C269.341 148.463 269.537 147.986 269.537 147.37C269.537 146.753 269.341 146.284 268.948 145.961C268.57 145.625 267.967 145.457 267.141 145.457H265.27V149.304ZM279.072 158.28C277.993 158.28 277.138 157.922 276.508 157.208C275.891 156.479 275.583 155.449 275.583 154.117V146.802H278.063V153.466C278.063 154.405 278.217 155.091 278.526 155.526C278.848 155.946 279.332 156.156 279.976 156.156C280.649 156.156 281.195 155.918 281.616 155.442C282.05 154.951 282.267 154.265 282.267 153.382V146.802H284.769V158.027H282.457L282.415 154.937L282.73 155.042C282.548 156.079 282.141 156.878 281.511 157.439C280.88 157.999 280.067 158.28 279.072 158.28ZM292.959 161.433C292.076 161.433 291.298 161.3 290.626 161.033C289.967 160.767 289.42 160.389 288.986 159.898C288.551 159.408 288.257 158.84 288.103 158.196L290.71 158.027C290.836 158.434 291.074 158.749 291.424 158.973C291.775 159.212 292.286 159.331 292.959 159.331C293.828 159.331 294.486 159.141 294.935 158.763C295.397 158.385 295.629 157.831 295.629 157.102V155.631C295.362 156.178 294.956 156.619 294.409 156.955C293.877 157.278 293.225 157.439 292.454 157.439C291.543 157.439 290.731 157.215 290.016 156.766C289.301 156.304 288.741 155.666 288.334 154.853C287.928 154.04 287.725 153.108 287.725 152.057C287.725 150.95 287.921 149.99 288.313 149.178C288.72 148.351 289.273 147.706 289.974 147.244C290.675 146.781 291.48 146.55 292.391 146.55C293.162 146.55 293.828 146.725 294.388 147.075C294.963 147.426 295.39 147.909 295.671 148.526L295.713 146.802H298.109V156.871C298.109 157.866 297.899 158.7 297.478 159.373C297.058 160.059 296.462 160.571 295.692 160.907C294.921 161.258 294.01 161.433 292.959 161.433ZM292.959 155.358C293.744 155.358 294.381 155.07 294.872 154.496C295.362 153.921 295.615 153.094 295.629 152.015C295.629 151.301 295.516 150.691 295.292 150.187C295.082 149.682 294.774 149.304 294.367 149.051C293.961 148.785 293.491 148.652 292.959 148.652C292.118 148.652 291.466 148.946 291.004 149.535C290.541 150.109 290.31 150.936 290.31 152.015C290.31 153.094 290.541 153.921 291.004 154.496C291.48 155.07 292.132 155.358 292.959 155.358ZM305.942 158.28C304.891 158.28 303.966 158.041 303.167 157.565C302.382 157.088 301.772 156.409 301.338 155.526C300.904 154.643 300.686 153.606 300.686 152.415C300.686 151.238 300.904 150.215 301.338 149.346C301.772 148.463 302.375 147.776 303.146 147.286C303.931 146.795 304.848 146.55 305.9 146.55C306.909 146.55 307.798 146.788 308.569 147.265C309.354 147.741 309.964 148.421 310.398 149.304C310.846 150.187 311.071 151.238 311.071 152.457V153.108H303.251C303.321 154.061 303.594 154.79 304.071 155.295C304.561 155.799 305.199 156.051 305.984 156.051C306.586 156.051 307.084 155.911 307.476 155.631C307.883 155.337 308.163 154.958 308.317 154.496L310.86 154.685C310.51 155.806 309.915 156.689 309.074 157.334C308.233 157.964 307.189 158.28 305.942 158.28ZM303.272 151.301H308.38C308.31 150.446 308.051 149.815 307.602 149.409C307.154 148.988 306.579 148.778 305.879 148.778C305.178 148.778 304.596 148.995 304.134 149.43C303.685 149.85 303.398 150.474 303.272 151.301ZM320.228 158.027C319.022 158.027 318.132 157.754 317.558 157.208C316.983 156.647 316.696 155.799 316.696 154.664V144.175H319.177V154.475C319.177 154.993 319.303 155.379 319.555 155.631C319.807 155.883 320.179 156.009 320.669 156.009H323.444V158.027H320.228ZM313.312 148.82V146.802H323.444V148.82H313.312Z" fill="#565656"/>
<path d="M160.173 194.039V181.246H162.371L166.912 192.273V181.246H168.461V194.039H166.263L161.722 183.012V194.039H160.173ZM175.013 194.039V184.562H171.661V183.228H173.391C173.847 183.228 174.214 183.162 174.49 183.03C174.778 182.898 174.983 182.688 175.103 182.399C175.235 182.111 175.301 181.727 175.301 181.246H176.562V194.039H175.013ZM170.977 194.039V192.526H179.625V194.039H170.977ZM187.87 194.039V191.264H181.6V189.859L187.762 181.246H189.42V189.751H190.969V191.264H189.42V194.039H187.87ZM183.186 189.751H187.87V183.408L183.186 189.751ZM194.025 192.201L199.07 183.012L200.512 183.084L195.467 192.273L194.025 192.201ZM197.269 194.327C196.344 194.327 195.539 194.057 194.854 193.517C194.182 192.976 193.665 192.207 193.305 191.21C192.944 190.213 192.764 189.03 192.764 187.661C192.764 186.279 192.944 185.09 193.305 184.093C193.665 183.096 194.182 182.327 194.854 181.787C195.539 181.234 196.344 180.958 197.269 180.958C198.206 180.958 199.01 181.234 199.683 181.787C200.356 182.327 200.872 183.096 201.233 184.093C201.593 185.09 201.773 186.279 201.773 187.661C201.773 189.03 201.593 190.213 201.233 191.21C200.872 192.207 200.356 192.976 199.683 193.517C199.01 194.057 198.206 194.327 197.269 194.327ZM197.269 192.814C197.869 192.814 198.38 192.604 198.8 192.183C199.233 191.763 199.563 191.168 199.791 190.399C200.031 189.619 200.152 188.706 200.152 187.661C200.152 186.592 200.031 185.673 199.791 184.904C199.563 184.123 199.233 183.523 198.8 183.102C198.38 182.682 197.869 182.472 197.269 182.472C196.68 182.472 196.17 182.682 195.737 183.102C195.305 183.523 194.968 184.123 194.728 184.904C194.5 185.673 194.386 186.592 194.386 187.661C194.386 188.706 194.5 189.619 194.728 190.399C194.968 191.168 195.305 191.763 195.737 192.183C196.17 192.604 196.68 192.814 197.269 192.814ZM218.642 194.255C217.801 194.255 217.074 194.051 216.462 193.643C215.849 193.234 215.375 192.658 215.038 191.913C214.714 191.168 214.552 190.285 214.552 189.264C214.552 188.243 214.714 187.36 215.038 186.616C215.375 185.871 215.849 185.294 216.462 184.886C217.074 184.478 217.801 184.273 218.642 184.273C219.315 184.273 219.903 184.436 220.408 184.76C220.912 185.072 221.278 185.427 221.507 185.823V181.246H223.02V194.039H221.651L221.597 192.598C221.333 193.114 220.942 193.523 220.426 193.823C219.909 194.111 219.315 194.255 218.642 194.255ZM218.732 192.814C219.309 192.814 219.801 192.67 220.209 192.381C220.63 192.093 220.948 191.685 221.164 191.156C221.393 190.616 221.507 189.985 221.507 189.264C221.507 188.52 221.393 187.883 221.164 187.354C220.948 186.826 220.63 186.423 220.209 186.147C219.789 185.859 219.284 185.715 218.696 185.715C217.915 185.715 217.29 186.033 216.822 186.67C216.366 187.294 216.137 188.159 216.137 189.264C216.137 190.357 216.366 191.222 216.822 191.859C217.29 192.496 217.927 192.814 218.732 192.814ZM228.959 194.255C228.358 194.255 227.818 194.147 227.337 193.931C226.857 193.715 226.479 193.414 226.202 193.03C225.926 192.634 225.788 192.177 225.788 191.661C225.788 190.844 226.028 190.213 226.509 189.769C227.001 189.312 227.77 188.982 228.815 188.778L232.022 188.129C232.022 187.312 231.836 186.706 231.464 186.309C231.103 185.913 230.581 185.715 229.896 185.715C229.235 185.715 228.719 185.865 228.346 186.165C227.974 186.454 227.716 186.874 227.572 187.426L225.968 187.3C226.148 186.399 226.575 185.673 227.247 185.12C227.932 184.556 228.815 184.273 229.896 184.273C231.049 184.273 231.944 184.622 232.581 185.318C233.217 186.003 233.536 186.952 233.536 188.165V192.129C233.536 192.345 233.584 192.496 233.68 192.58C233.776 192.664 233.92 192.706 234.112 192.706H234.725V194.039C234.653 194.051 234.539 194.057 234.382 194.057C234.226 194.069 234.076 194.075 233.932 194.075C233.524 194.075 233.175 194.009 232.887 193.877C232.611 193.745 232.4 193.535 232.256 193.246C232.112 192.946 232.034 192.562 232.022 192.093H232.31C232.226 192.502 232.022 192.874 231.698 193.21C231.385 193.535 230.989 193.793 230.509 193.985C230.028 194.165 229.512 194.255 228.959 194.255ZM229.103 192.922C229.752 192.922 230.292 192.814 230.725 192.598C231.157 192.369 231.482 192.057 231.698 191.661C231.914 191.252 232.022 190.784 232.022 190.255V189.426L229.103 190.003C228.455 190.123 228.004 190.309 227.752 190.562C227.5 190.802 227.373 191.12 227.373 191.517C227.373 191.961 227.524 192.309 227.824 192.562C228.136 192.802 228.563 192.922 229.103 192.922ZM241.078 194.039V184.49H242.592V194.039H241.078ZM237.24 194.039V192.706H245.889V194.039H237.24ZM237.42 185.823V184.49H242.592V185.823H237.42ZM240.934 182.994V181.228H242.52V182.994H240.934ZM251.702 194.039V183.805C251.702 183.421 251.593 183.12 251.377 182.904C251.161 182.688 250.861 182.58 250.476 182.58H248.224V181.246H250.548C251.425 181.246 252.086 181.475 252.53 181.931C252.987 182.375 253.215 183.036 253.215 183.913V194.039H251.702ZM247.864 194.039V192.706H256.512V194.039H247.864ZM260.253 196.742V195.408H261.352C261.689 195.408 261.935 195.354 262.091 195.246C262.259 195.15 262.385 194.988 262.469 194.76L262.812 193.859H262.289L258.74 184.49H260.397L263.298 192.453L266.019 184.49H267.676L263.803 195.246C263.622 195.763 263.352 196.141 262.992 196.381C262.631 196.622 262.133 196.742 261.496 196.742H260.253Z" fill="#4B5563"/>
<path d="M458.953 173.599L456.599 163.804L456.914 163.762V175.533H454.475V160.608H457.629L460.214 170.993H459.415L462.001 160.608H465.154V175.533H462.716V163.762L463.031 163.804L460.677 173.599H458.953ZM471.83 175.533V165.317H468.089V163.131H469.855C470.415 163.131 470.864 163.054 471.2 162.9C471.55 162.731 471.802 162.465 471.957 162.101C472.125 161.722 472.209 161.225 472.209 160.608H474.437V175.533H471.83ZM467.416 175.533V173.137H477.842V175.533H467.416ZM485.444 175.87C484.379 175.87 483.44 175.701 482.627 175.365C481.814 175.029 481.177 174.531 480.714 173.873C480.252 173.214 480.02 172.408 480.02 171.455C480.02 170.362 480.35 169.458 481.008 168.743C481.681 168.029 482.571 167.552 483.678 167.314L483.72 167.734C482.823 167.524 482.087 167.146 481.513 166.599C480.952 166.039 480.672 165.296 480.672 164.371C480.672 163.586 480.868 162.886 481.261 162.269C481.667 161.652 482.228 161.169 482.942 160.819C483.657 160.454 484.491 160.272 485.444 160.272C486.397 160.272 487.231 160.454 487.945 160.819C488.674 161.169 489.235 161.652 489.627 162.269C490.019 162.886 490.216 163.586 490.216 164.371C490.216 165.296 489.935 166.039 489.375 166.599C488.814 167.146 488.078 167.524 487.168 167.734L487.21 167.314C488.331 167.552 489.221 168.029 489.879 168.743C490.538 169.458 490.867 170.362 490.867 171.455C490.867 172.408 490.636 173.214 490.173 173.873C489.711 174.531 489.073 175.029 488.261 175.365C487.448 175.701 486.509 175.87 485.444 175.87ZM485.444 173.515C486.215 173.515 486.859 173.333 487.378 172.969C487.91 172.604 488.177 172.016 488.177 171.203C488.177 170.446 487.938 169.851 487.462 169.416C486.999 168.968 486.327 168.743 485.444 168.743C484.561 168.743 483.881 168.968 483.405 169.416C482.942 169.851 482.711 170.446 482.711 171.203C482.711 172.016 482.97 172.604 483.489 172.969C484.021 173.333 484.673 173.515 485.444 173.515ZM485.444 166.473C486.074 166.473 486.579 166.312 486.957 165.99C487.35 165.667 487.546 165.177 487.546 164.518C487.546 163.93 487.357 163.467 486.978 163.131C486.6 162.795 486.088 162.626 485.444 162.626C484.813 162.626 484.302 162.795 483.909 163.131C483.531 163.467 483.342 163.93 483.342 164.518C483.342 165.177 483.531 165.667 483.909 165.99C484.302 166.312 484.813 166.473 485.444 166.473ZM497.018 178.833L498.048 175.533H496.745V172.569H499.772V175.218L498.384 178.833H497.018ZM505.734 175.533C505.734 174.37 505.895 173.347 506.217 172.464C506.539 171.567 507.1 170.74 507.899 169.984C508.698 169.213 509.812 168.456 511.241 167.713C511.802 167.419 512.264 167.139 512.628 166.873C512.993 166.606 513.266 166.312 513.448 165.99C513.63 165.667 513.722 165.268 513.722 164.792C513.722 164.357 513.63 163.979 513.448 163.656C513.28 163.334 513.021 163.082 512.67 162.9C512.32 162.717 511.886 162.626 511.367 162.626C510.512 162.626 509.854 162.858 509.391 163.32C508.929 163.783 508.634 164.448 508.508 165.317L505.797 165.17C505.951 163.67 506.504 162.479 507.457 161.596C508.41 160.713 509.728 160.272 511.409 160.272C512.488 160.272 513.399 160.454 514.142 160.819C514.885 161.183 515.445 161.701 515.824 162.374C516.202 163.033 516.391 163.797 516.391 164.665C516.391 165.45 516.265 166.13 516.013 166.704C515.761 167.265 515.34 167.791 514.752 168.281C514.177 168.757 513.392 169.262 512.397 169.794C511.556 170.243 510.87 170.67 510.337 171.077C509.819 171.469 509.433 171.841 509.181 172.191C508.929 172.527 508.789 172.843 508.761 173.137H516.412V175.533H505.734ZM525.149 175.533V172.464H518.254V170.278L524.812 160.608H527.734V170.152H529.521V172.464H527.734V175.533H525.149ZM520.734 170.152H525.149V163.951L520.734 170.152ZM535.903 175.533V165.317H532.161V163.131H533.927C534.488 163.131 534.936 163.054 535.273 162.9C535.623 162.731 535.875 162.465 536.029 162.101C536.197 161.722 536.282 161.225 536.282 160.608H538.51V175.533H535.903ZM531.489 175.533V173.137H541.915V175.533H531.489Z" fill="#2F2F2F"/>
<rect opacity="0.3" x="88" y="226.066" width="454.952" height="5.83914" rx="2.91957" fill="#D2D2D2"/>
<path d="M89.1066 277.932L89.1066 266.205L92.7567 266.205C94.001 266.205 94.9754 266.519 95.6801 267.146C96.3958 267.774 96.7537 268.627 96.7537 269.706C96.7537 270.268 96.6271 270.764 96.3738 271.193C96.1316 271.622 95.8068 271.958 95.3994 272.2C95.003 272.443 94.579 272.58 94.1276 272.613L94.0615 272.415C94.8763 272.448 95.4819 272.635 95.8783 272.977C96.2857 273.307 96.5225 273.847 96.5885 274.595L96.8858 277.932L95.1516 277.932L94.8873 274.926C94.8543 274.54 94.7717 274.232 94.6396 274.001C94.5075 273.77 94.3038 273.604 94.0285 273.505C93.7532 273.406 93.3733 273.357 92.8889 273.357L90.8408 273.357L90.8408 277.932L89.1066 277.932ZM90.8408 271.738L92.7237 271.738C93.4504 271.738 94.0065 271.567 94.3919 271.226C94.7772 270.885 94.9699 270.406 94.9699 269.789C94.9699 269.161 94.7772 268.682 94.3919 268.352C94.0065 268.011 93.4504 267.84 92.7237 267.84L90.8408 267.84L90.8408 271.738ZM103.139 278.13C102.313 278.13 101.592 277.943 100.975 277.568C100.37 277.194 99.8964 276.66 99.555 275.966C99.2247 275.272 99.0595 274.463 99.0595 273.538C99.0595 272.613 99.2247 271.81 99.555 271.127C99.8964 270.444 100.364 269.91 100.959 269.525C101.565 269.139 102.275 268.947 103.09 268.947C103.871 268.947 104.56 269.134 105.154 269.508C105.749 269.872 106.211 270.4 106.541 271.094C106.883 271.777 107.053 272.602 107.053 273.571L107.053 274.034L100.81 274.034C100.865 274.871 101.097 275.509 101.504 275.95C101.922 276.379 102.473 276.594 103.156 276.594C103.673 276.594 104.103 276.473 104.444 276.23C104.785 275.977 105.022 275.652 105.154 275.256L106.905 275.372C106.652 276.208 106.195 276.88 105.534 277.387C104.884 277.882 104.086 278.13 103.139 278.13ZM100.81 272.696L105.253 272.696C105.187 271.947 104.956 271.391 104.56 271.028C104.174 270.664 103.684 270.483 103.09 270.483C102.473 270.483 101.966 270.67 101.57 271.044C101.174 271.419 100.92 271.969 100.81 272.696ZM111.903 278.13C111.352 278.13 110.857 278.031 110.416 277.833C109.976 277.634 109.624 277.354 109.359 276.99C109.106 276.627 108.979 276.203 108.979 275.718C108.979 274.97 109.205 274.386 109.657 273.968C110.119 273.549 110.813 273.252 111.738 273.076L114.579 272.481C114.579 271.799 114.43 271.287 114.133 270.945C113.835 270.604 113.389 270.433 112.795 270.433C112.244 270.433 111.815 270.56 111.506 270.813C111.198 271.066 110.989 271.419 110.879 271.87L109.128 271.754C109.293 270.918 109.695 270.24 110.334 269.723C110.972 269.205 111.793 268.947 112.795 268.947C113.918 268.947 114.771 269.266 115.355 269.905C115.949 270.543 116.247 271.424 116.247 272.547L116.247 276.016C116.247 276.214 116.291 276.357 116.379 276.445C116.467 276.522 116.594 276.561 116.759 276.561L117.254 276.561L117.254 277.932C117.188 277.943 117.078 277.954 116.924 277.965C116.781 277.976 116.638 277.981 116.494 277.981C116.098 277.981 115.762 277.915 115.487 277.783C115.212 277.651 115.002 277.447 114.859 277.172C114.727 276.886 114.65 276.528 114.628 276.098L114.892 276.098C114.826 276.484 114.656 276.831 114.38 277.139C114.105 277.447 113.753 277.689 113.323 277.866C112.894 278.042 112.42 278.13 111.903 278.13ZM112.151 276.759C112.679 276.759 113.125 276.665 113.488 276.478C113.852 276.291 114.122 276.027 114.298 275.685C114.485 275.344 114.579 274.942 114.579 274.48L114.579 273.803L112.134 274.298C111.606 274.397 111.237 274.551 111.028 274.76C110.818 274.97 110.714 275.245 110.714 275.586C110.714 275.95 110.84 276.236 111.094 276.445C111.347 276.654 111.699 276.759 112.151 276.759ZM122.467 278.13C121.718 278.13 121.069 277.948 120.518 277.585C119.967 277.21 119.544 276.682 119.246 275.999C118.949 275.306 118.8 274.485 118.8 273.538C118.8 272.591 118.949 271.777 119.246 271.094C119.544 270.4 119.967 269.872 120.518 269.508C121.069 269.134 121.718 268.947 122.467 268.947C123.084 268.947 123.623 269.09 124.086 269.376C124.548 269.662 124.884 269.998 125.093 270.384L125.093 266.205L126.761 266.205L126.761 277.932L125.209 277.932L125.159 276.577C124.917 277.051 124.565 277.431 124.102 277.717C123.64 277.992 123.095 278.13 122.467 278.13ZM122.748 276.594C123.232 276.594 123.645 276.473 123.986 276.23C124.339 275.977 124.609 275.625 124.796 275.173C124.994 274.711 125.093 274.166 125.093 273.538C125.093 272.889 124.994 272.338 124.796 271.887C124.609 271.435 124.339 271.088 123.986 270.846C123.634 270.604 123.21 270.483 122.715 270.483C122.043 270.483 121.514 270.753 121.129 271.292C120.744 271.832 120.551 272.58 120.551 273.538C120.551 274.485 120.744 275.234 121.129 275.785C121.514 276.324 122.054 276.594 122.748 276.594ZM130.421 280.409L130.421 279.005L131.495 279.005C131.803 279.005 132.029 278.956 132.172 278.857C132.326 278.768 132.442 278.62 132.519 278.411L132.816 277.634L132.255 277.634L129.051 269.145L130.851 269.145L133.345 276.065L135.674 269.145L137.457 269.145L133.956 278.923C133.78 279.451 133.504 279.831 133.13 280.062C132.767 280.293 132.277 280.409 131.66 280.409L130.421 280.409ZM154.622 277.932C153.73 277.932 153.064 277.728 152.623 277.321C152.194 276.902 151.979 276.263 151.979 275.405L151.979 267.08L153.647 267.08L153.647 275.322C153.647 275.729 153.741 276.032 153.928 276.23C154.126 276.429 154.418 276.528 154.803 276.528L157.066 276.528L157.066 277.932L154.622 277.932ZM149.204 270.549L149.204 269.145L157.066 269.145L157.066 270.549L149.204 270.549ZM163.435 278.13C162.62 278.13 161.904 277.943 161.288 277.568C160.682 277.194 160.209 276.66 159.867 275.966C159.537 275.272 159.372 274.463 159.372 273.538C159.372 272.602 159.537 271.793 159.867 271.11C160.209 270.417 160.682 269.883 161.288 269.508C161.904 269.134 162.62 268.947 163.435 268.947C164.25 268.947 164.96 269.134 165.565 269.508C166.182 269.883 166.656 270.417 166.986 271.11C167.327 271.793 167.498 272.602 167.498 273.538C167.498 274.463 167.327 275.272 166.986 275.966C166.656 276.66 166.182 277.194 165.565 277.568C164.96 277.943 164.25 278.13 163.435 278.13ZM163.435 276.594C164.173 276.594 164.74 276.324 165.136 275.785C165.543 275.245 165.747 274.496 165.747 273.538C165.747 272.58 165.543 271.832 165.136 271.292C164.74 270.753 164.173 270.483 163.435 270.483C162.697 270.483 162.125 270.753 161.717 271.292C161.321 271.832 161.123 272.58 161.123 273.538C161.123 274.496 161.321 275.245 161.717 275.785C162.125 276.324 162.697 276.594 163.435 276.594ZM183.522 280.607C182.862 280.607 182.273 280.503 181.755 280.293C181.238 280.084 180.808 279.787 180.467 279.402C180.137 279.016 179.905 278.57 179.773 278.064L181.524 277.948C181.645 278.312 181.86 278.598 182.168 278.807C182.476 279.016 182.928 279.121 183.522 279.121C184.26 279.121 184.822 278.967 185.207 278.658C185.604 278.35 185.802 277.893 185.802 277.288L185.802 275.999C185.593 276.451 185.262 276.809 184.811 277.073C184.37 277.337 183.858 277.469 183.275 277.469C182.548 277.469 181.898 277.288 181.326 276.924C180.753 276.561 180.307 276.065 179.988 275.438C179.669 274.799 179.509 274.067 179.509 273.241C179.509 272.382 179.663 271.633 179.971 270.995C180.291 270.356 180.731 269.855 181.293 269.492C181.854 269.128 182.493 268.947 183.209 268.947C183.825 268.947 184.365 269.09 184.827 269.376C185.301 269.651 185.642 270.031 185.851 270.516L185.868 269.145L187.47 269.145L187.47 277.172C187.47 277.91 187.31 278.532 186.991 279.038C186.672 279.556 186.215 279.947 185.62 280.211C185.036 280.475 184.337 280.607 183.522 280.607ZM183.506 275.983C184.189 275.983 184.739 275.74 185.158 275.256C185.576 274.771 185.791 274.094 185.802 273.224C185.813 272.63 185.719 272.129 185.521 271.721C185.334 271.303 185.064 270.984 184.712 270.764C184.37 270.543 183.968 270.433 183.506 270.433C182.79 270.433 182.234 270.681 181.838 271.176C181.452 271.661 181.26 272.344 181.26 273.224C181.26 274.094 181.458 274.771 181.854 275.256C182.262 275.74 182.812 275.983 183.506 275.983ZM193.756 278.13C192.93 278.13 192.209 277.943 191.593 277.568C190.987 277.194 190.513 276.66 190.172 275.966C189.842 275.272 189.677 274.463 189.677 273.538C189.677 272.613 189.842 271.81 190.172 271.127C190.513 270.444 190.981 269.91 191.576 269.525C192.182 269.139 192.892 268.947 193.707 268.947C194.488 268.947 195.177 269.134 195.771 269.508C196.366 269.872 196.828 270.4 197.159 271.094C197.5 271.777 197.671 272.602 197.671 273.571L197.671 274.034L191.427 274.034C191.482 274.871 191.714 275.509 192.121 275.95C192.539 276.379 193.09 276.594 193.773 276.594C194.29 276.594 194.72 276.473 195.061 276.23C195.402 275.977 195.639 275.652 195.771 275.256L197.522 275.372C197.269 276.208 196.812 276.88 196.151 277.387C195.501 277.882 194.703 278.13 193.756 278.13ZM191.427 272.696L195.87 272.696C195.804 271.947 195.573 271.391 195.177 271.028C194.791 270.664 194.301 270.483 193.707 270.483C193.09 270.483 192.584 270.67 192.187 271.044C191.791 271.419 191.537 271.969 191.427 272.696ZM204.964 277.932C204.072 277.932 203.406 277.728 202.966 277.321C202.536 276.902 202.322 276.263 202.322 275.405L202.322 267.08L203.99 267.08L203.99 275.322C203.99 275.729 204.084 276.032 204.271 276.23C204.469 276.429 204.761 276.528 205.146 276.528L207.409 276.528L207.409 277.932L204.964 277.932ZM199.547 270.549L199.547 269.145L207.409 269.145L207.409 270.549L199.547 270.549ZM221.038 280.409L221.038 279.005L222.112 279.005C222.42 279.005 222.646 278.956 222.789 278.857C222.943 278.768 223.059 278.62 223.136 278.411L223.433 277.634L222.872 277.634L219.668 269.145L221.468 269.145L223.962 276.065L226.291 269.145L228.074 269.145L224.573 278.923C224.397 279.451 224.122 279.831 223.747 280.062C223.384 280.293 222.894 280.409 222.277 280.409L221.038 280.409ZM233.915 278.13C233.1 278.13 232.384 277.943 231.768 277.568C231.162 277.194 230.689 276.66 230.347 275.966C230.017 275.272 229.852 274.463 229.852 273.538C229.852 272.602 230.017 271.793 230.347 271.11C230.689 270.417 231.162 269.883 231.768 269.508C232.384 269.134 233.1 268.947 233.915 268.947C234.73 268.947 235.44 269.134 236.045 269.508C236.662 269.883 237.136 270.417 237.466 271.11C237.807 271.793 237.978 272.602 237.978 273.538C237.978 274.463 237.807 275.272 237.466 275.966C237.136 276.66 236.662 277.194 236.045 277.568C235.44 277.943 234.73 278.13 233.915 278.13ZM233.915 276.594C234.653 276.594 235.22 276.324 235.616 275.785C236.023 275.245 236.227 274.496 236.227 273.538C236.227 272.58 236.023 271.832 235.616 271.292C235.22 270.753 234.653 270.483 233.915 270.483C233.177 270.483 232.605 270.753 232.197 271.292C231.801 271.832 231.603 272.58 231.603 273.538C231.603 274.496 231.801 275.245 232.197 275.785C232.605 276.324 233.177 276.594 233.915 276.594ZM243.224 278.13C242.376 278.13 241.699 277.844 241.192 277.271C240.686 276.687 240.432 275.873 240.432 274.827L240.432 269.145L242.101 269.145L242.101 274.397C242.101 275.19 242.238 275.768 242.513 276.131C242.789 276.495 243.207 276.676 243.769 276.676C244.374 276.676 244.859 276.473 245.222 276.065C245.596 275.658 245.784 275.08 245.784 274.331L245.784 269.145L247.452 269.145L247.452 277.932L245.883 277.932L245.866 275.636L246.097 275.735C245.943 276.495 245.619 277.084 245.123 277.502C244.628 277.921 243.994 278.13 243.224 278.13ZM252.714 277.932L252.714 269.145L254.035 269.145L254.184 271.391L254.035 271.375C254.146 270.615 254.382 270.053 254.746 269.69C255.109 269.327 255.61 269.145 256.249 269.145L258.115 269.145L258.115 270.598L256.315 270.598C255.896 270.598 255.544 270.681 255.258 270.846C254.971 271 254.751 271.237 254.597 271.556C254.454 271.865 254.382 272.25 254.382 272.712L254.382 277.932L252.714 277.932ZM250.484 277.932L250.484 276.528L257.124 276.528L257.124 277.932L250.484 277.932ZM250.484 270.549L250.484 269.145L253.656 269.145L253.656 270.549L250.484 270.549ZM274.883 278.13C274.266 278.13 273.727 277.992 273.264 277.717C272.802 277.431 272.444 277.051 272.191 276.577L272.141 277.932L270.588 277.932L270.588 266.205L272.257 266.205L272.257 270.384C272.477 269.998 272.813 269.662 273.264 269.376C273.727 269.09 274.266 268.947 274.883 268.947C275.632 268.947 276.281 269.134 276.832 269.508C277.382 269.872 277.806 270.4 278.103 271.094C278.401 271.777 278.549 272.591 278.549 273.538C278.549 274.485 278.401 275.306 278.103 275.999C277.806 276.682 277.382 277.21 276.832 277.585C276.281 277.948 275.632 278.13 274.883 278.13ZM274.602 276.594C275.296 276.594 275.835 276.324 276.221 275.785C276.606 275.234 276.799 274.485 276.799 273.538C276.799 272.58 276.606 271.832 276.221 271.292C275.835 270.753 275.307 270.483 274.635 270.483C274.14 270.483 273.716 270.604 273.363 270.846C273.011 271.088 272.736 271.435 272.537 271.887C272.35 272.338 272.257 272.889 272.257 273.538C272.257 274.166 272.35 274.711 272.537 275.173C272.736 275.625 273.005 275.977 273.347 276.23C273.699 276.473 274.118 276.594 274.602 276.594ZM283.498 278.13C282.65 278.13 281.973 277.844 281.466 277.271C280.96 276.687 280.707 275.873 280.707 274.827L280.707 269.145L282.375 269.145L282.375 274.397C282.375 275.19 282.512 275.768 282.788 276.131C283.063 276.495 283.481 276.676 284.043 276.676C284.649 276.676 285.133 276.473 285.496 276.065C285.871 275.658 286.058 275.08 286.058 274.331L286.058 269.145L287.726 269.145L287.726 277.932L286.157 277.932L286.141 275.636L286.372 275.735C286.218 276.495 285.893 277.084 285.397 277.502C284.902 277.921 284.269 278.13 283.498 278.13ZM293.633 278.13C292.884 278.13 292.234 277.948 291.684 277.585C291.133 277.21 290.709 276.682 290.412 275.999C290.115 275.306 289.966 274.485 289.966 273.538C289.966 272.591 290.115 271.777 290.412 271.094C290.709 270.4 291.133 269.872 291.684 269.508C292.234 269.134 292.884 268.947 293.633 268.947C294.249 268.947 294.789 269.09 295.251 269.376C295.714 269.662 296.049 269.998 296.259 270.384L296.259 266.205L297.927 266.205L297.927 277.932L296.374 277.932L296.325 276.577C296.082 277.051 295.73 277.431 295.268 277.717C294.805 277.992 294.26 278.13 293.633 278.13ZM293.913 276.594C294.398 276.594 294.811 276.473 295.152 276.23C295.504 275.977 295.774 275.625 295.961 275.173C296.16 274.711 296.259 274.166 296.259 273.538C296.259 272.889 296.16 272.338 295.961 271.887C295.774 271.435 295.504 271.088 295.152 270.846C294.8 270.604 294.376 270.483 293.88 270.483C293.209 270.483 292.68 270.753 292.295 271.292C291.909 271.832 291.717 272.58 291.717 273.538C291.717 274.485 291.909 275.234 292.295 275.785C292.68 276.324 293.22 276.594 293.913 276.594ZM304.345 280.607C303.685 280.607 303.095 280.503 302.578 280.293C302.06 280.084 301.631 279.787 301.29 279.402C300.959 279.016 300.728 278.57 300.596 278.064L302.347 277.948C302.468 278.312 302.683 278.598 302.991 278.807C303.299 279.016 303.751 279.121 304.345 279.121C305.083 279.121 305.645 278.967 306.03 278.658C306.426 278.35 306.624 277.893 306.624 277.288L306.624 275.999C306.415 276.451 306.085 276.809 305.633 277.073C305.193 277.337 304.681 277.469 304.097 277.469C303.371 277.469 302.721 277.288 302.149 276.924C301.576 276.561 301.13 276.065 300.811 275.438C300.491 274.799 300.332 274.067 300.332 273.241C300.332 272.382 300.486 271.633 300.794 270.995C301.113 270.356 301.554 269.855 302.115 269.492C302.677 269.128 303.316 268.947 304.031 268.947C304.648 268.947 305.188 269.09 305.65 269.376C306.123 269.651 306.465 270.031 306.674 270.516L306.691 269.145L308.293 269.145L308.293 277.172C308.293 277.91 308.133 278.532 307.814 279.038C307.494 279.556 307.037 279.947 306.443 280.211C305.859 280.475 305.16 280.607 304.345 280.607ZM304.329 275.983C305.011 275.983 305.562 275.74 305.98 275.256C306.399 274.771 306.613 274.094 306.624 273.224C306.635 272.63 306.542 272.129 306.344 271.721C306.157 271.303 305.887 270.984 305.534 270.764C305.193 270.543 304.791 270.433 304.329 270.433C303.613 270.433 303.057 270.681 302.661 271.176C302.275 271.661 302.082 272.344 302.082 273.224C302.082 274.094 302.281 274.771 302.677 275.256C303.084 275.74 303.635 275.983 304.329 275.983ZM314.579 278.13C313.753 278.13 313.032 277.943 312.415 277.568C311.81 277.194 311.336 276.66 310.995 275.966C310.665 275.272 310.499 274.463 310.499 273.538C310.499 272.613 310.665 271.81 310.995 271.127C311.336 270.444 311.804 269.91 312.399 269.525C313.004 269.139 313.715 268.947 314.529 268.947C315.311 268.947 315.999 269.134 316.594 269.508C317.189 269.872 317.651 270.4 317.981 271.094C318.323 271.777 318.493 272.602 318.493 273.571L318.493 274.034L312.25 274.034C312.305 274.871 312.536 275.509 312.944 275.95C313.362 276.379 313.913 276.594 314.595 276.594C315.113 276.594 315.542 276.473 315.884 276.23C316.225 275.977 316.462 275.652 316.594 275.256L318.345 275.372C318.091 276.208 317.634 276.88 316.974 277.387C316.324 277.882 315.526 278.13 314.579 278.13ZM312.25 272.696L316.693 272.696C316.627 271.947 316.396 271.391 315.999 271.028C315.614 270.664 315.124 270.483 314.529 270.483C313.913 270.483 313.406 270.67 313.01 271.044C312.613 271.419 312.36 271.969 312.25 272.696ZM325.787 277.932C324.895 277.932 324.229 277.728 323.789 277.321C323.359 276.902 323.145 276.263 323.145 275.405L323.145 267.08L324.813 267.08L324.813 275.322C324.813 275.729 324.906 276.032 325.093 276.23C325.292 276.429 325.583 276.528 325.969 276.528L328.232 276.528L328.232 277.932L325.787 277.932ZM320.37 270.549L320.37 269.145L328.232 269.145L328.232 270.549L320.37 270.549ZM344.619 280.607C343.959 280.607 343.37 280.503 342.852 280.293C342.335 280.084 341.905 279.787 341.564 279.402C341.234 279.016 341.002 278.57 340.87 278.064L342.621 277.948C342.742 278.312 342.957 278.598 343.265 278.807C343.573 279.016 344.025 279.121 344.619 279.121C345.357 279.121 345.919 278.967 346.304 278.658C346.701 278.35 346.899 277.893 346.899 277.288L346.899 275.999C346.69 276.451 346.359 276.809 345.908 277.073C345.467 277.337 344.955 277.469 344.372 277.469C343.645 277.469 342.995 277.288 342.423 276.924C341.85 276.561 341.404 276.065 341.085 275.438C340.766 274.799 340.606 274.067 340.606 273.241C340.606 272.382 340.76 271.633 341.068 270.995C341.388 270.356 341.828 269.855 342.39 269.492C342.951 269.128 343.59 268.947 344.306 268.947C344.922 268.947 345.462 269.09 345.924 269.376C346.398 269.651 346.739 270.031 346.948 270.516L346.965 269.145L348.567 269.145L348.567 277.172C348.567 277.91 348.407 278.532 348.088 279.038C347.769 279.556 347.312 279.947 346.717 280.211C346.133 280.475 345.434 280.607 344.619 280.607ZM344.603 275.983C345.286 275.983 345.836 275.74 346.255 275.256C346.673 274.771 346.888 274.094 346.899 273.224C346.91 272.63 346.816 272.129 346.618 271.721C346.431 271.303 346.161 270.984 345.809 270.764C345.467 270.543 345.065 270.433 344.603 270.433C343.887 270.433 343.331 270.681 342.935 271.176C342.549 271.661 342.357 272.344 342.357 273.224C342.357 274.094 342.555 274.771 342.951 275.256C343.359 275.74 343.909 275.983 344.603 275.983ZM353.548 278.13C352.998 278.13 352.502 278.031 352.062 277.833C351.621 277.634 351.269 277.354 351.005 276.99C350.752 276.627 350.625 276.203 350.625 275.718C350.625 274.97 350.851 274.386 351.302 273.968C351.765 273.549 352.458 273.252 353.383 273.076L356.224 272.481C356.224 271.799 356.075 271.287 355.778 270.945C355.481 270.604 355.035 270.433 354.44 270.433C353.89 270.433 353.46 270.56 353.152 270.813C352.844 271.066 352.634 271.419 352.524 271.87L350.774 271.755C350.939 270.918 351.341 270.24 351.979 269.723C352.618 269.205 353.438 268.947 354.44 268.947C355.563 268.947 356.417 269.266 357 269.905C357.595 270.543 357.892 271.424 357.892 272.547L357.892 276.016C357.892 276.214 357.936 276.357 358.024 276.445C358.112 276.522 358.239 276.561 358.404 276.561L358.9 276.561L358.9 277.932C358.834 277.943 358.724 277.954 358.569 277.965C358.426 277.976 358.283 277.981 358.14 277.981C357.744 277.981 357.408 277.915 357.132 277.783C356.857 277.651 356.648 277.447 356.505 277.172C356.373 276.886 356.296 276.528 356.274 276.098L356.538 276.098C356.472 276.484 356.301 276.831 356.026 277.139C355.751 277.447 355.398 277.689 354.969 277.866C354.539 278.042 354.066 278.13 353.548 278.13ZM353.796 276.759C354.325 276.759 354.771 276.665 355.134 276.478C355.497 276.291 355.767 276.027 355.943 275.685C356.13 275.344 356.224 274.942 356.224 274.48L356.224 273.803L353.78 274.298C353.251 274.397 352.882 274.551 352.673 274.76C352.464 274.97 352.359 275.245 352.359 275.586C352.359 275.95 352.486 276.236 352.739 276.445C352.992 276.654 353.345 276.759 353.796 276.759ZM360.446 277.932L360.446 269.145L361.899 269.145L361.965 271.127L361.784 271.077C361.894 270.406 362.108 269.883 362.428 269.508C362.758 269.134 363.171 268.947 363.667 268.947C364.195 268.947 364.591 269.134 364.856 269.508C365.131 269.883 365.302 270.439 365.368 271.176L365.186 271.176C365.285 270.472 365.511 269.927 365.863 269.541C366.216 269.145 366.656 268.947 367.185 268.947C367.878 268.947 368.379 269.189 368.688 269.673C369.007 270.147 369.166 270.923 369.166 272.002L369.166 277.932L367.548 277.932L367.548 272.283C367.548 271.578 367.471 271.088 367.317 270.813C367.174 270.538 366.948 270.4 366.639 270.4C366.441 270.4 366.26 270.466 366.094 270.598C365.94 270.73 365.819 270.94 365.731 271.226C365.643 271.501 365.599 271.865 365.599 272.316L365.599 277.932L364.013 277.932L364.013 272.283C364.013 271.6 363.942 271.116 363.799 270.83C363.667 270.543 363.441 270.4 363.121 270.4C362.912 270.4 362.731 270.466 362.576 270.598C362.422 270.73 362.296 270.94 362.197 271.226C362.108 271.501 362.064 271.865 362.064 272.316L362.064 277.932L360.446 277.932ZM374.99 278.13C374.164 278.13 373.443 277.943 372.827 277.568C372.221 277.194 371.748 276.66 371.406 275.966C371.076 275.272 370.911 274.463 370.911 273.538C370.911 272.613 371.076 271.81 371.406 271.127C371.748 270.444 372.216 269.91 372.81 269.525C373.416 269.139 374.126 268.947 374.941 268.947C375.723 268.947 376.411 269.134 377.005 269.508C377.6 269.872 378.062 270.4 378.393 271.094C378.734 271.777 378.905 272.602 378.905 273.571L378.905 274.034L372.661 274.034C372.717 274.871 372.948 275.509 373.355 275.95C373.774 276.379 374.324 276.594 375.007 276.594C375.524 276.594 375.954 276.473 376.295 276.23C376.636 275.977 376.873 275.652 377.005 275.256L378.756 275.372C378.503 276.208 378.046 276.88 377.385 277.387C376.736 277.882 375.937 278.13 374.99 278.13ZM372.661 272.696L377.104 272.696C377.038 271.947 376.807 271.391 376.411 271.028C376.025 270.664 375.535 270.483 374.941 270.483C374.324 270.483 373.818 270.67 373.421 271.044C373.025 271.419 372.772 271.969 372.661 272.696ZM395.144 278.13C394.362 278.13 393.691 277.998 393.129 277.733C392.567 277.469 392.132 277.117 391.824 276.676C391.516 276.225 391.34 275.724 391.296 275.173L392.997 275.074C393.085 275.548 393.305 275.928 393.657 276.214C394.01 276.489 394.511 276.627 395.16 276.627C395.766 276.627 396.229 276.544 396.548 276.379C396.867 276.214 397.027 275.955 397.027 275.603C397.027 275.383 396.972 275.201 396.862 275.058C396.752 274.904 396.542 274.777 396.234 274.678C395.937 274.568 395.496 274.458 394.913 274.348C394.043 274.182 393.36 273.99 392.865 273.77C392.38 273.538 392.033 273.252 391.824 272.911C391.615 272.558 391.51 272.134 391.51 271.639C391.51 271.132 391.637 270.675 391.89 270.268C392.155 269.861 392.54 269.541 393.046 269.31C393.553 269.068 394.181 268.947 394.929 268.947C395.711 268.947 396.355 269.084 396.862 269.36C397.368 269.624 397.765 269.971 398.051 270.4C398.337 270.83 398.519 271.298 398.596 271.804L396.895 271.903C396.829 271.617 396.713 271.369 396.548 271.16C396.383 270.94 396.162 270.769 395.887 270.648C395.612 270.516 395.293 270.45 394.929 270.45C394.346 270.45 393.916 270.565 393.641 270.797C393.366 271.028 393.228 271.309 393.228 271.639C393.228 271.903 393.294 272.118 393.426 272.283C393.558 272.437 393.779 272.569 394.087 272.679C394.395 272.779 394.814 272.878 395.342 272.977C396.234 273.12 396.922 273.307 397.407 273.538C397.891 273.758 398.233 274.034 398.431 274.364C398.629 274.694 398.728 275.102 398.728 275.586C398.728 276.115 398.574 276.572 398.266 276.957C397.968 277.332 397.55 277.623 397.01 277.833C396.482 278.031 395.86 278.13 395.144 278.13ZM406.336 277.932C405.444 277.932 404.778 277.728 404.337 277.321C403.908 276.902 403.693 276.263 403.693 275.405L403.693 267.08L405.361 267.08L405.361 275.322C405.361 275.729 405.455 276.032 405.642 276.23C405.84 276.429 406.132 276.528 406.517 276.528L408.78 276.528L408.78 277.932L406.336 277.932ZM400.918 270.549L400.918 269.145L408.78 269.145L408.78 270.549L400.918 270.549ZM413.96 278.13C413.409 278.13 412.914 278.031 412.473 277.833C412.033 277.634 411.681 277.354 411.416 276.99C411.163 276.627 411.036 276.203 411.036 275.718C411.036 274.97 411.262 274.386 411.714 273.968C412.176 273.549 412.87 273.252 413.795 273.076L416.635 272.481C416.635 271.799 416.487 271.287 416.189 270.945C415.892 270.604 415.446 270.433 414.852 270.433C414.301 270.433 413.872 270.56 413.563 270.813C413.255 271.066 413.046 271.419 412.936 271.87L411.185 271.755C411.35 270.918 411.752 270.24 412.391 269.723C413.029 269.205 413.85 268.947 414.852 268.947C415.975 268.947 416.828 269.266 417.412 269.905C418.006 270.543 418.304 271.424 418.304 272.547L418.304 276.016C418.304 276.214 418.348 276.357 418.436 276.445C418.524 276.522 418.65 276.561 418.816 276.561L419.311 276.561L419.311 277.932C419.245 277.943 419.135 277.954 418.981 277.965C418.838 277.976 418.694 277.981 418.551 277.981C418.155 277.981 417.819 277.915 417.544 277.783C417.269 277.651 417.059 277.447 416.916 277.172C416.784 276.886 416.707 276.528 416.685 276.098L416.949 276.098C416.883 276.484 416.713 276.831 416.437 277.139C416.162 277.447 415.81 277.689 415.38 277.866C414.951 278.042 414.477 278.13 413.96 278.13ZM414.208 276.759C414.736 276.759 415.182 276.665 415.545 276.478C415.909 276.291 416.178 276.027 416.355 275.685C416.542 275.344 416.635 274.942 416.635 274.48L416.635 273.803L414.191 274.298C413.662 274.397 413.294 274.551 413.084 274.76C412.875 274.97 412.771 275.245 412.771 275.586C412.771 275.95 412.897 276.236 413.15 276.445C413.404 276.654 413.756 276.759 414.208 276.759ZM423.88 277.932L423.88 269.145L425.201 269.145L425.35 271.391L425.201 271.375C425.311 270.615 425.548 270.053 425.911 269.69C426.275 269.327 426.776 269.145 427.414 269.145L429.281 269.145L429.281 270.598L427.48 270.598C427.062 270.598 426.71 270.681 426.423 270.846C426.137 271 425.917 271.237 425.763 271.556C425.619 271.865 425.548 272.25 425.548 272.712L425.548 277.932L423.88 277.932ZM421.65 277.932L421.65 276.528L428.29 276.528L428.29 277.932L421.65 277.932ZM421.65 270.549L421.65 269.145L424.821 269.145L424.821 270.549L421.65 270.549ZM436.541 277.932C435.649 277.932 434.983 277.728 434.543 277.321C434.113 276.902 433.899 276.263 433.899 275.405L433.899 267.08L435.567 267.08L435.567 275.322C435.567 275.729 435.66 276.032 435.848 276.23C436.046 276.429 436.338 276.528 436.723 276.528L438.986 276.528L438.986 277.932L436.541 277.932ZM431.124 270.549L431.124 269.145L438.986 269.145L438.986 270.549L431.124 270.549ZM445.47 278.13C444.644 278.13 443.923 277.943 443.307 277.568C442.701 277.194 442.228 276.66 441.886 275.966C441.556 275.272 441.391 274.463 441.391 273.538C441.391 272.613 441.556 271.81 441.886 271.127C442.228 270.444 442.696 269.91 443.29 269.525C443.896 269.139 444.606 268.947 445.421 268.947C446.202 268.947 446.891 269.134 447.485 269.508C448.08 269.872 448.542 270.4 448.873 271.094C449.214 271.777 449.385 272.602 449.385 273.571L449.385 274.034L443.141 274.034C443.196 274.871 443.428 275.509 443.835 275.95C444.254 276.379 444.804 276.594 445.487 276.594C446.004 276.594 446.434 276.473 446.775 276.23C447.116 275.977 447.353 275.652 447.485 275.256L449.236 275.372C448.983 276.208 448.526 276.88 447.865 277.387C447.215 277.882 446.417 278.13 445.47 278.13ZM443.141 272.696L447.584 272.696C447.518 271.947 447.287 271.391 446.891 271.028C446.505 270.664 446.015 270.483 445.421 270.483C444.804 270.483 444.298 270.67 443.901 271.044C443.505 271.419 443.252 271.969 443.141 272.696ZM454.73 278.13C453.981 278.13 453.331 277.948 452.781 277.585C452.23 277.21 451.806 276.682 451.509 275.999C451.212 275.306 451.063 274.485 451.063 273.538C451.063 272.591 451.212 271.777 451.509 271.094C451.806 270.4 452.23 269.872 452.781 269.508C453.331 269.134 453.981 268.947 454.73 268.947C455.346 268.947 455.886 269.09 456.348 269.376C456.811 269.662 457.146 269.998 457.356 270.384L457.356 266.205L459.024 266.205L459.024 277.932L457.471 277.932L457.422 276.577C457.179 277.051 456.827 277.431 456.365 277.717C455.902 277.992 455.357 278.13 454.73 278.13ZM455.01 276.594C455.495 276.594 455.908 276.473 456.249 276.23C456.601 275.977 456.871 275.625 457.058 275.173C457.257 274.711 457.356 274.166 457.356 273.538C457.356 272.889 457.257 272.338 457.058 271.887C456.871 271.435 456.601 271.088 456.249 270.846C455.897 270.604 455.473 270.483 454.977 270.483C454.306 270.483 453.777 270.753 453.392 271.292C453.006 271.832 452.814 272.58 452.814 273.538C452.814 274.485 453.006 275.234 453.392 275.785C453.777 276.324 454.317 276.594 455.01 276.594ZM464.93 274.381C464.897 274.006 464.859 273.56 464.815 273.043C464.771 272.525 464.732 271.997 464.699 271.457C464.666 270.907 464.649 270.411 464.649 269.971L464.649 266.205L466.334 266.205L466.334 269.971C466.334 270.411 466.318 270.907 466.285 271.457C466.252 271.997 466.213 272.525 466.169 273.043C466.136 273.56 466.097 274.006 466.053 274.381L464.93 274.381ZM464.369 277.932L464.369 275.751L466.615 275.751L466.615 277.932L464.369 277.932ZM474.999 274.381C474.966 274.006 474.927 273.56 474.883 273.043C474.839 272.525 474.801 271.997 474.768 271.457C474.735 270.907 474.718 270.411 474.718 269.971L474.718 266.205L476.403 266.205L476.403 269.971C476.403 270.411 476.386 270.907 476.353 271.457C476.32 271.997 476.282 272.525 476.238 273.043C476.204 273.56 476.166 274.006 476.122 274.381L474.999 274.381ZM474.437 277.932L474.437 275.751L476.683 275.751L476.683 277.932L474.437 277.932Z" fill="#4B5563"/>
</g>
</g>
<defs>
<clipPath id="bgblur_2_923_12477_clip_path" transform="translate(-66.6367 -272.367)"><rect x="90.6367" y="296.367" width="449" height="116.785" rx="18.591"/>
</clipPath><clipPath id="bgblur_3_923_12477_clip_path" transform="translate(-38.8482 -34.4947)"><rect x="63.6367" y="59.2832" width="503" height="256.755" rx="24.0239"/>
</clipPath><linearGradient id="paint0_linear_923_12477" x1="307" y1="216" x2="307" y2="448" gradientUnits="userSpaceOnUse">
<stop stop-color="#F5F5F5" stop-opacity="0"/>
<stop offset="1" stop-color="#F5F5F5"/>
</linearGradient>
<clipPath id="clip0_923_12477">
<rect width="620" height="465" fill="white"/>
</clipPath>
<clipPath id="clip1_923_12477">
<rect width="630" height="437" fill="white" transform="translate(-8 11)"/>
</clipPath>
</defs>
</svg>
