<svg width="620" height="465" viewBox="0 0 620 465" fill="none" xmlns="http://www.w3.org/2000/svg">
<g clip-path="url(#clip0_923_12333)">
<rect width="620" height="465" fill="#F5F5F5"/>
<rect x="35" y="218" width="550" height="192" rx="20" fill="white"/>
<rect x="59.5" y="242.5" width="501" height="55" rx="7.5" fill="#F5F5F5"/>
<rect x="59.5" y="242.5" width="501" height="55" rx="7.5" stroke="#E0E0E0"/>
<g opacity="0.6">
<path d="M82 259.25C87.9371 259.25 92.75 264.063 92.75 270C92.75 275.937 87.9371 280.75 82 280.75C76.0629 280.75 71.25 275.937 71.25 270C71.25 264.063 76.0629 259.25 82 259.25ZM81.999 264.25C81.4386 264.25 80.9949 264.673 80.71 265.244L80.709 265.245L79.7686 267.144L79.7666 267.146C79.7379 267.205 79.6699 267.288 79.5684 267.364C79.4671 267.44 79.3691 267.481 79.3066 267.492L77.6016 267.778C76.9851 267.882 76.4695 268.184 76.3027 268.71C76.1365 269.235 76.381 269.781 76.8213 270.225L78.1475 271.562C78.2 271.614 78.259 271.715 78.2959 271.845C78.3324 271.974 78.3359 272.091 78.3193 272.167L78.3184 272.168L77.9395 273.821C77.7818 274.509 77.8367 275.189 78.3213 275.546C78.8082 275.904 79.4734 275.749 80.0771 275.388L81.6729 274.435L81.6738 274.434C81.7453 274.392 81.8631 274.36 82.001 274.36C82.1402 274.36 82.2561 274.392 82.3232 274.433L83.9219 275.388C84.5263 275.748 85.1918 275.906 85.6787 275.548C86.1639 275.191 86.2158 274.509 86.0586 273.821L85.6797 272.168V272.167C85.6631 272.091 85.6665 271.974 85.7031 271.845C85.74 271.715 85.799 271.614 85.8516 271.562L87.1768 270.226C87.6197 269.782 87.8655 269.235 87.6982 268.71C87.5306 268.184 87.0137 267.882 86.3975 267.778L84.6914 267.492C84.6259 267.481 84.5265 267.439 84.4248 267.363C84.3231 267.288 84.2552 267.205 84.2266 267.146L83.2842 265.246C83.002 264.674 82.56 264.25 81.999 264.25Z" fill="#303140"/>
</g>
<path opacity="0.6" d="M103.76 277V262.8H112.48V264.78H105.86V268.92H112.24V270.84H105.86V275.02H112.64V277H103.76ZM120.352 277.24C119.406 277.24 118.592 277.08 117.912 276.76C117.232 276.44 116.706 276.013 116.332 275.48C115.959 274.933 115.746 274.327 115.692 273.66L117.752 273.54C117.859 274.113 118.126 274.573 118.552 274.92C118.979 275.253 119.586 275.42 120.372 275.42C121.106 275.42 121.666 275.32 122.052 275.12C122.439 274.92 122.632 274.607 122.632 274.18C122.632 273.913 122.566 273.693 122.432 273.52C122.299 273.333 122.046 273.18 121.672 273.06C121.312 272.927 120.779 272.793 120.072 272.66C119.019 272.46 118.192 272.227 117.592 271.96C117.006 271.68 116.586 271.333 116.332 270.92C116.079 270.493 115.952 269.98 115.952 269.38C115.952 268.767 116.106 268.213 116.412 267.72C116.732 267.227 117.199 266.84 117.812 266.56C118.426 266.267 119.186 266.12 120.092 266.12C121.039 266.12 121.819 266.287 122.432 266.62C123.046 266.94 123.526 267.36 123.872 267.88C124.219 268.4 124.439 268.967 124.532 269.58L122.472 269.7C122.392 269.353 122.252 269.053 122.052 268.8C121.852 268.533 121.586 268.327 121.252 268.18C120.919 268.02 120.532 267.94 120.092 267.94C119.386 267.94 118.866 268.08 118.532 268.36C118.199 268.64 118.032 268.98 118.032 269.38C118.032 269.7 118.112 269.96 118.272 270.16C118.432 270.347 118.699 270.507 119.072 270.64C119.446 270.76 119.952 270.88 120.592 271C121.672 271.173 122.506 271.4 123.092 271.68C123.679 271.947 124.092 272.28 124.332 272.68C124.572 273.08 124.692 273.573 124.692 274.16C124.692 274.8 124.506 275.353 124.132 275.82C123.772 276.273 123.266 276.627 122.612 276.88C121.972 277.12 121.219 277.24 120.352 277.24ZM132.624 277.24C131.638 277.24 130.764 277.013 130.004 276.56C129.258 276.093 128.678 275.447 128.264 274.62C127.864 273.78 127.664 272.8 127.664 271.68C127.664 270.56 127.864 269.587 128.264 268.76C128.678 267.933 129.258 267.287 130.004 266.82C130.764 266.353 131.638 266.12 132.624 266.12C133.438 266.12 134.164 266.273 134.804 266.58C135.444 266.873 135.971 267.307 136.384 267.88C136.798 268.453 137.071 269.14 137.204 269.94L135.144 270.08C134.984 269.4 134.684 268.88 134.244 268.52C133.804 268.16 133.271 267.98 132.644 267.98C131.751 267.98 131.044 268.313 130.524 268.98C130.018 269.633 129.764 270.533 129.764 271.68C129.764 272.827 130.018 273.733 130.524 274.4C131.044 275.053 131.751 275.38 132.644 275.38C133.284 275.38 133.831 275.193 134.284 274.82C134.751 274.433 135.058 273.867 135.204 273.12L137.264 273.24C137.131 274.053 136.851 274.76 136.424 275.36C135.998 275.947 135.458 276.407 134.804 276.74C134.164 277.073 133.438 277.24 132.624 277.24ZM143.137 277.24C142.47 277.24 141.87 277.12 141.337 276.88C140.803 276.64 140.377 276.3 140.057 275.86C139.75 275.42 139.597 274.907 139.597 274.32C139.597 273.413 139.87 272.707 140.417 272.2C140.977 271.693 141.817 271.333 142.937 271.12L146.377 270.4C146.377 269.573 146.197 268.953 145.837 268.54C145.477 268.127 144.937 267.92 144.217 267.92C143.55 267.92 143.03 268.073 142.657 268.38C142.283 268.687 142.03 269.113 141.897 269.66L139.777 269.52C139.977 268.507 140.463 267.687 141.237 267.06C142.01 266.433 143.003 266.12 144.217 266.12C145.577 266.12 146.61 266.507 147.317 267.28C148.037 268.053 148.397 269.12 148.397 270.48V274.68C148.397 274.92 148.45 275.093 148.557 275.2C148.663 275.293 148.817 275.34 149.017 275.34H149.617V277C149.537 277.013 149.403 277.027 149.217 277.04C149.043 277.053 148.87 277.06 148.697 277.06C148.217 277.06 147.81 276.98 147.477 276.82C147.143 276.66 146.89 276.413 146.717 276.08C146.557 275.733 146.463 275.3 146.437 274.78H146.757C146.677 275.247 146.47 275.667 146.137 276.04C145.803 276.413 145.377 276.707 144.857 276.92C144.337 277.133 143.763 277.24 143.137 277.24ZM143.437 275.58C144.077 275.58 144.617 275.467 145.057 275.24C145.497 275.013 145.823 274.693 146.037 274.28C146.263 273.867 146.377 273.38 146.377 272.82V272L143.417 272.6C142.777 272.72 142.33 272.907 142.077 273.16C141.823 273.413 141.697 273.747 141.697 274.16C141.697 274.6 141.85 274.947 142.157 275.2C142.463 275.453 142.89 275.58 143.437 275.58ZM156.049 277V265.82C156.049 265.407 155.929 265.087 155.689 264.86C155.462 264.62 155.142 264.5 154.729 264.5H152.289V262.8H154.949C155.975 262.8 156.749 263.067 157.269 263.6C157.802 264.12 158.069 264.893 158.069 265.92V277H156.049ZM151.889 277V275.3H161.649V277H151.889ZM167.521 277.24C166.854 277.24 166.254 277.12 165.721 276.88C165.188 276.64 164.761 276.3 164.441 275.86C164.134 275.42 163.981 274.907 163.981 274.32C163.981 273.413 164.254 272.707 164.801 272.2C165.361 271.693 166.201 271.333 167.321 271.12L170.761 270.4C170.761 269.573 170.581 268.953 170.221 268.54C169.861 268.127 169.321 267.92 168.601 267.92C167.934 267.92 167.414 268.073 167.041 268.38C166.668 268.687 166.414 269.113 166.281 269.66L164.161 269.52C164.361 268.507 164.848 267.687 165.621 267.06C166.394 266.433 167.388 266.12 168.601 266.12C169.961 266.12 170.994 266.507 171.701 267.28C172.421 268.053 172.781 269.12 172.781 270.48V274.68C172.781 274.92 172.834 275.093 172.941 275.2C173.048 275.293 173.201 275.34 173.401 275.34H174.001V277C173.921 277.013 173.788 277.027 173.601 277.04C173.428 277.053 173.254 277.06 173.081 277.06C172.601 277.06 172.194 276.98 171.861 276.82C171.528 276.66 171.274 276.413 171.101 276.08C170.941 275.733 170.848 275.3 170.821 274.78H171.141C171.061 275.247 170.854 275.667 170.521 276.04C170.188 276.413 169.761 276.707 169.241 276.92C168.721 277.133 168.148 277.24 167.521 277.24ZM167.821 275.58C168.461 275.58 169.001 275.467 169.441 275.24C169.881 275.013 170.208 274.693 170.421 274.28C170.648 273.867 170.761 273.38 170.761 272.82V272L167.801 272.6C167.161 272.72 166.714 272.907 166.461 273.16C166.208 273.413 166.081 273.747 166.081 274.16C166.081 274.6 166.234 274.947 166.541 275.2C166.848 275.453 167.274 275.58 167.821 275.58ZM182.673 277C181.593 277 180.786 276.753 180.253 276.26C179.733 275.753 179.473 274.98 179.473 273.94V263.86H181.493V273.84C181.493 274.333 181.606 274.7 181.833 274.94C182.073 275.18 182.426 275.3 182.893 275.3H185.633V277H182.673ZM176.113 268.06V266.36H185.633V268.06H176.113ZM193.485 277.24C192.485 277.24 191.612 277.013 190.865 276.56C190.132 276.107 189.559 275.46 189.145 274.62C188.745 273.78 188.545 272.8 188.545 271.68C188.545 270.56 188.745 269.587 189.145 268.76C189.559 267.933 190.125 267.287 190.845 266.82C191.579 266.353 192.439 266.12 193.425 266.12C194.372 266.12 195.205 266.347 195.925 266.8C196.645 267.24 197.205 267.88 197.605 268.72C198.019 269.547 198.225 270.547 198.225 271.72V272.28H190.665C190.732 273.293 191.012 274.067 191.505 274.6C192.012 275.12 192.679 275.38 193.505 275.38C194.132 275.38 194.652 275.233 195.065 274.94C195.479 274.633 195.765 274.24 195.925 273.76L198.045 273.9C197.739 274.913 197.185 275.727 196.385 276.34C195.599 276.94 194.632 277.24 193.485 277.24ZM190.665 270.66H196.045C195.965 269.753 195.685 269.08 195.205 268.64C194.739 268.2 194.145 267.98 193.425 267.98C192.679 267.98 192.065 268.207 191.585 268.66C191.105 269.113 190.799 269.78 190.665 270.66ZM219.25 277C218.17 277 217.363 276.753 216.83 276.26C216.31 275.753 216.05 274.98 216.05 273.94V263.86H218.07V273.84C218.07 274.333 218.183 274.7 218.41 274.94C218.65 275.18 219.003 275.3 219.47 275.3H222.21V277H219.25ZM212.69 268.06V266.36H222.21V268.06H212.69ZM229.922 277.24C228.935 277.24 228.069 277.013 227.322 276.56C226.589 276.107 226.015 275.46 225.602 274.62C225.202 273.78 225.002 272.8 225.002 271.68C225.002 270.547 225.202 269.567 225.602 268.74C226.015 267.9 226.589 267.253 227.322 266.8C228.069 266.347 228.935 266.12 229.922 266.12C230.909 266.12 231.769 266.347 232.502 266.8C233.249 267.253 233.822 267.9 234.222 268.74C234.635 269.567 234.842 270.547 234.842 271.68C234.842 272.8 234.635 273.78 234.222 274.62C233.822 275.46 233.249 276.107 232.502 276.56C231.769 277.013 230.909 277.24 229.922 277.24ZM229.922 275.38C230.815 275.38 231.502 275.053 231.982 274.4C232.475 273.747 232.722 272.84 232.722 271.68C232.722 270.52 232.475 269.613 231.982 268.96C231.502 268.307 230.815 267.98 229.922 267.98C229.029 267.98 228.335 268.307 227.842 268.96C227.362 269.613 227.122 270.52 227.122 271.68C227.122 272.84 227.362 273.747 227.842 274.4C228.335 275.053 229.029 275.38 229.922 275.38ZM250.166 277V262.8H252.186V268.68L251.986 268.6C252.12 268.027 252.346 267.56 252.666 267.2C252.986 266.827 253.373 266.553 253.826 266.38C254.28 266.207 254.78 266.12 255.326 266.12C256.073 266.12 256.7 266.293 257.206 266.64C257.726 266.973 258.113 267.447 258.366 268.06C258.633 268.66 258.766 269.353 258.766 270.14V277H256.746V270.66C256.746 269.7 256.573 269 256.226 268.56C255.893 268.107 255.393 267.88 254.726 267.88C253.966 267.88 253.353 268.12 252.886 268.6C252.42 269.08 252.186 269.787 252.186 270.72V277H250.166ZM265.578 277.24C264.552 277.24 263.732 276.893 263.118 276.2C262.505 275.493 262.198 274.507 262.198 273.24V266.36H264.218V272.72C264.218 273.68 264.385 274.38 264.718 274.82C265.052 275.26 265.558 275.48 266.238 275.48C266.972 275.48 267.558 275.233 267.998 274.74C268.452 274.247 268.678 273.547 268.678 272.64V266.36H270.698V277H268.798L268.778 274.22L269.058 274.34C268.872 275.26 268.478 275.973 267.878 276.48C267.278 276.987 266.512 277.24 265.578 277.24ZM273.411 277V266.36H275.171L275.251 268.76L275.031 268.7C275.164 267.887 275.424 267.253 275.811 266.8C276.211 266.347 276.711 266.12 277.311 266.12C277.951 266.12 278.431 266.347 278.751 266.8C279.084 267.253 279.291 267.927 279.371 268.82H279.151C279.271 267.967 279.544 267.307 279.971 266.84C280.397 266.36 280.931 266.12 281.571 266.12C282.411 266.12 283.017 266.413 283.391 267C283.777 267.573 283.971 268.513 283.971 269.82V277H282.011V270.16C282.011 269.307 281.917 268.713 281.731 268.38C281.557 268.047 281.284 267.88 280.911 267.88C280.671 267.88 280.451 267.96 280.251 268.12C280.064 268.28 279.917 268.533 279.811 268.88C279.704 269.213 279.651 269.653 279.651 270.2V277H277.731V270.16C277.731 269.333 277.644 268.747 277.471 268.4C277.311 268.053 277.037 267.88 276.651 267.88C276.397 267.88 276.177 267.96 275.991 268.12C275.804 268.28 275.651 268.533 275.531 268.88C275.424 269.213 275.371 269.653 275.371 270.2V277H273.411ZM289.443 277.24C288.776 277.24 288.176 277.12 287.643 276.88C287.109 276.64 286.683 276.3 286.363 275.86C286.056 275.42 285.903 274.907 285.903 274.32C285.903 273.413 286.176 272.707 286.723 272.2C287.283 271.693 288.123 271.333 289.243 271.12L292.683 270.4C292.683 269.573 292.503 268.953 292.143 268.54C291.783 268.127 291.243 267.92 290.523 267.92C289.856 267.92 289.336 268.073 288.963 268.38C288.589 268.687 288.336 269.113 288.203 269.66L286.083 269.52C286.283 268.507 286.769 267.687 287.543 267.06C288.316 266.433 289.309 266.12 290.523 266.12C291.883 266.12 292.916 266.507 293.623 267.28C294.343 268.053 294.703 269.12 294.703 270.48V274.68C294.703 274.92 294.756 275.093 294.863 275.2C294.969 275.293 295.123 275.34 295.323 275.34H295.923V277C295.843 277.013 295.709 277.027 295.523 277.04C295.349 277.053 295.176 277.06 295.003 277.06C294.523 277.06 294.116 276.98 293.783 276.82C293.449 276.66 293.196 276.413 293.023 276.08C292.863 275.733 292.769 275.3 292.743 274.78H293.063C292.983 275.247 292.776 275.667 292.443 276.04C292.109 276.413 291.683 276.707 291.163 276.92C290.643 277.133 290.069 277.24 289.443 277.24ZM289.743 275.58C290.383 275.58 290.923 275.467 291.363 275.24C291.803 275.013 292.129 274.693 292.343 274.28C292.569 273.867 292.683 273.38 292.683 272.82V272L289.723 272.6C289.083 272.72 288.636 272.907 288.383 273.16C288.129 273.413 288.003 273.747 288.003 274.16C288.003 274.6 288.156 274.947 288.463 275.2C288.769 275.453 289.196 275.58 289.743 275.58ZM298.675 277V266.36H300.535L300.595 269.14L300.375 268.98C300.508 268.327 300.742 267.793 301.075 267.38C301.422 266.953 301.842 266.64 302.335 266.44C302.828 266.227 303.355 266.12 303.915 266.12C304.715 266.12 305.375 266.3 305.895 266.66C306.415 267.007 306.808 267.487 307.075 268.1C307.342 268.7 307.475 269.38 307.475 270.14V277H305.455V270.66C305.455 269.74 305.275 269.047 304.915 268.58C304.568 268.113 304.042 267.88 303.335 267.88C302.842 267.88 302.395 267.987 301.995 268.2C301.608 268.413 301.295 268.733 301.055 269.16C300.815 269.573 300.695 270.087 300.695 270.7V277H298.675Z" fill="#251B18"/>
<path d="M536.666 258.75C542.879 258.75 547.916 263.787 547.916 270C547.916 276.213 542.879 281.25 536.666 281.25H523.332C517.119 281.25 512.082 276.213 512.082 270C512.082 263.787 517.119 258.75 523.332 258.75H536.666ZM536.666 263.75C533.214 263.75 530.416 266.548 530.416 270C530.416 273.452 533.214 276.25 536.666 276.25C540.118 276.25 542.916 273.452 542.916 270C542.916 266.548 540.118 263.75 536.666 263.75Z" fill="#1F1F1F"/>
<rect x="49.5" y="331" width="521" height="54" rx="9" fill="url(#paint0_linear_923_12333)"/>
<path d="M235 348H235.273C238.534 348 240.165 348 241.297 348.798C241.621 349.026 241.909 349.298 242.152 349.603C243 350.669 243 352.203 243 355.273V357.818C243 360.781 243 362.263 242.531 363.446C241.777 365.349 240.183 366.849 238.162 367.559C236.904 368 235.33 368 232.182 368C230.383 368 229.483 368 228.765 367.748C227.61 367.342 226.699 366.485 226.268 365.398C226 364.722 226 363.875 226 362.182V358" stroke="#3F3D3C" stroke-width="1.5" stroke-linecap="round" stroke-linejoin="round"/>
<path d="M243 358C243 359.841 241.508 361.333 239.667 361.333C239.001 361.333 238.216 361.217 237.569 361.39C236.993 361.544 236.544 361.993 236.39 362.569C236.217 363.216 236.333 364.001 236.333 364.667C236.333 366.508 234.841 368 233 368" stroke="#3F3D3C" stroke-width="1.5" stroke-linecap="round" stroke-linejoin="round"/>
<path d="M227 350.5C227.492 349.994 228.8 348 229.5 348M232 350.5C231.508 349.994 230.2 348 229.5 348M229.5 348V356" stroke="#3F3D3C" stroke-width="1.5" stroke-linecap="round" stroke-linejoin="round"/>
<path d="M255.3 364.256C254.084 364.256 253.135 363.883 252.452 363.136C251.769 362.389 251.428 361.36 251.428 360.048V352.64H253.108V360.112C253.108 360.944 253.295 361.584 253.668 362.032C254.041 362.469 254.585 362.688 255.3 362.688C256.015 362.688 256.559 362.469 256.932 362.032C257.305 361.584 257.492 360.944 257.492 360.112V352.64H259.172V360.048C259.172 361.36 258.831 362.389 258.148 363.136C257.465 363.883 256.516 364.256 255.3 364.256ZM261.406 366.4V355.488H262.942L262.974 357.424L262.782 357.328C262.995 356.667 263.342 356.165 263.822 355.824C264.312 355.472 264.888 355.296 265.55 355.296C266.371 355.296 267.043 355.504 267.566 355.92C268.088 356.325 268.478 356.864 268.734 357.536C268.99 358.208 269.118 358.944 269.118 359.744C269.118 360.544 268.99 361.28 268.734 361.952C268.478 362.624 268.088 363.168 267.566 363.584C267.043 363.989 266.371 364.192 265.55 364.192C265.112 364.192 264.707 364.123 264.334 363.984C263.96 363.835 263.64 363.627 263.374 363.36C263.118 363.083 262.931 362.752 262.814 362.368L263.022 362.144V366.4H261.406ZM265.246 362.704C265.928 362.704 266.462 362.448 266.846 361.936C267.23 361.424 267.422 360.693 267.422 359.744C267.422 358.795 267.23 358.064 266.846 357.552C266.462 357.04 265.928 356.784 265.246 356.784C264.798 356.784 264.408 356.896 264.078 357.12C263.747 357.333 263.486 357.659 263.294 358.096C263.112 358.533 263.022 359.083 263.022 359.744C263.022 360.405 263.112 360.955 263.294 361.392C263.475 361.829 263.731 362.16 264.062 362.384C264.403 362.597 264.798 362.704 265.246 362.704ZM274.231 364V355.056C274.231 354.725 274.135 354.469 273.943 354.288C273.762 354.096 273.506 354 273.175 354H271.223V352.64H273.351C274.173 352.64 274.791 352.853 275.207 353.28C275.634 353.696 275.847 354.315 275.847 355.136V364H274.231ZM270.903 364V362.64H278.712V364H270.903ZM284.561 364.192C283.772 364.192 283.079 364.011 282.481 363.648C281.895 363.285 281.436 362.768 281.105 362.096C280.785 361.424 280.625 360.64 280.625 359.744C280.625 358.837 280.785 358.053 281.105 357.392C281.436 356.72 281.895 356.203 282.481 355.84C283.079 355.477 283.772 355.296 284.561 355.296C285.351 355.296 286.039 355.477 286.625 355.84C287.223 356.203 287.681 356.72 288.001 357.392C288.332 358.053 288.497 358.837 288.497 359.744C288.497 360.64 288.332 361.424 288.001 362.096C287.681 362.768 287.223 363.285 286.625 363.648C286.039 364.011 285.351 364.192 284.561 364.192ZM284.561 362.704C285.276 362.704 285.825 362.443 286.209 361.92C286.604 361.397 286.801 360.672 286.801 359.744C286.801 358.816 286.604 358.091 286.209 357.568C285.825 357.045 285.276 356.784 284.561 356.784C283.847 356.784 283.292 357.045 282.897 357.568C282.513 358.091 282.321 358.816 282.321 359.744C282.321 360.672 282.513 361.397 282.897 361.92C283.292 362.443 283.847 362.704 284.561 362.704ZM293.163 364.192C292.63 364.192 292.15 364.096 291.723 363.904C291.296 363.712 290.955 363.44 290.699 363.088C290.454 362.736 290.331 362.325 290.331 361.856C290.331 361.131 290.55 360.565 290.987 360.16C291.435 359.755 292.107 359.467 293.003 359.296L295.755 358.72C295.755 358.059 295.611 357.563 295.323 357.232C295.035 356.901 294.603 356.736 294.027 356.736C293.494 356.736 293.078 356.859 292.779 357.104C292.48 357.349 292.278 357.691 292.171 358.128L290.475 358.016C290.635 357.205 291.024 356.549 291.643 356.048C292.262 355.547 293.056 355.296 294.027 355.296C295.115 355.296 295.942 355.605 296.507 356.224C297.083 356.843 297.371 357.696 297.371 358.784V362.144C297.371 362.336 297.414 362.475 297.499 362.56C297.584 362.635 297.707 362.672 297.867 362.672H298.347V364C298.283 364.011 298.176 364.021 298.027 364.032C297.888 364.043 297.75 364.048 297.611 364.048C297.227 364.048 296.902 363.984 296.635 363.856C296.368 363.728 296.166 363.531 296.027 363.264C295.899 362.987 295.824 362.64 295.803 362.224H296.059C295.995 362.597 295.83 362.933 295.563 363.232C295.296 363.531 294.955 363.765 294.539 363.936C294.123 364.107 293.664 364.192 293.163 364.192ZM293.403 362.864C293.915 362.864 294.347 362.773 294.699 362.592C295.051 362.411 295.312 362.155 295.483 361.824C295.664 361.493 295.755 361.104 295.755 360.656V360L293.387 360.48C292.875 360.576 292.518 360.725 292.315 360.928C292.112 361.131 292.011 361.397 292.011 361.728C292.011 362.08 292.134 362.357 292.379 362.56C292.624 362.763 292.966 362.864 293.403 362.864ZM303.397 364.192C302.671 364.192 302.042 364.016 301.509 363.664C300.975 363.301 300.565 362.789 300.277 362.128C299.989 361.456 299.845 360.661 299.845 359.744C299.845 358.827 299.989 358.037 300.277 357.376C300.565 356.704 300.975 356.192 301.509 355.84C302.042 355.477 302.671 355.296 303.397 355.296C303.994 355.296 304.517 355.435 304.965 355.712C305.413 355.989 305.738 356.315 305.941 356.688V352.64H307.557V364H306.053L306.005 362.688C305.77 363.147 305.429 363.515 304.981 363.792C304.533 364.059 304.005 364.192 303.397 364.192ZM303.669 362.704C304.138 362.704 304.538 362.587 304.869 362.352C305.21 362.107 305.471 361.765 305.653 361.328C305.845 360.88 305.941 360.352 305.941 359.744C305.941 359.115 305.845 358.581 305.653 358.144C305.471 357.707 305.21 357.371 304.869 357.136C304.527 356.901 304.117 356.784 303.637 356.784C302.986 356.784 302.474 357.045 302.101 357.568C301.727 358.091 301.541 358.816 301.541 359.744C301.541 360.661 301.727 361.387 302.101 361.92C302.474 362.443 302.997 362.704 303.669 362.704ZM322.904 364.192C322.179 364.192 321.55 364.016 321.016 363.664C320.483 363.301 320.072 362.789 319.784 362.128C319.496 361.456 319.352 360.661 319.352 359.744C319.352 358.827 319.496 358.037 319.784 357.376C320.072 356.704 320.483 356.192 321.016 355.84C321.55 355.477 322.179 355.296 322.904 355.296C323.502 355.296 324.024 355.435 324.472 355.712C324.92 355.989 325.246 356.315 325.448 356.688V352.64H327.064V364H325.56L325.512 362.688C325.278 363.147 324.936 363.515 324.488 363.792C324.04 364.059 323.512 364.192 322.904 364.192ZM323.176 362.704C323.646 362.704 324.046 362.587 324.376 362.352C324.718 362.107 324.979 361.765 325.16 361.328C325.352 360.88 325.448 360.352 325.448 359.744C325.448 359.115 325.352 358.581 325.16 358.144C324.979 357.707 324.718 357.371 324.376 357.136C324.035 356.901 323.624 356.784 323.144 356.784C322.494 356.784 321.982 357.045 321.608 357.568C321.235 358.091 321.048 358.816 321.048 359.744C321.048 360.661 321.235 361.387 321.608 361.92C321.982 362.443 322.504 362.704 323.176 362.704ZM333.33 364.192C332.541 364.192 331.847 364.011 331.25 363.648C330.663 363.285 330.205 362.768 329.874 362.096C329.554 361.424 329.394 360.64 329.394 359.744C329.394 358.837 329.554 358.053 329.874 357.392C330.205 356.72 330.663 356.203 331.25 355.84C331.847 355.477 332.541 355.296 333.33 355.296C334.119 355.296 334.807 355.477 335.394 355.84C335.991 356.203 336.45 356.72 336.77 357.392C337.101 358.053 337.266 358.837 337.266 359.744C337.266 360.64 337.101 361.424 336.77 362.096C336.45 362.768 335.991 363.285 335.394 363.648C334.807 364.011 334.119 364.192 333.33 364.192ZM333.33 362.704C334.045 362.704 334.594 362.443 334.978 361.92C335.373 361.397 335.57 360.672 335.57 359.744C335.57 358.816 335.373 358.091 334.978 357.568C334.594 357.045 334.045 356.784 333.33 356.784C332.615 356.784 332.061 357.045 331.666 357.568C331.282 358.091 331.09 358.816 331.09 359.744C331.09 360.672 331.282 361.397 331.666 361.92C332.061 362.443 332.615 362.704 333.33 362.704ZM343.276 364.192C342.486 364.192 341.788 364.011 341.18 363.648C340.582 363.275 340.118 362.757 339.788 362.096C339.468 361.424 339.308 360.64 339.308 359.744C339.308 358.848 339.468 358.069 339.788 357.408C340.118 356.747 340.582 356.229 341.18 355.856C341.788 355.483 342.486 355.296 343.276 355.296C343.926 355.296 344.508 355.419 345.02 355.664C345.532 355.899 345.953 356.245 346.284 356.704C346.614 357.163 346.833 357.712 346.94 358.352L345.292 358.464C345.164 357.92 344.924 357.504 344.572 357.216C344.22 356.928 343.793 356.784 343.292 356.784C342.577 356.784 342.012 357.051 341.596 357.584C341.19 358.107 340.988 358.827 340.988 359.744C340.988 360.661 341.19 361.387 341.596 361.92C342.012 362.443 342.577 362.704 343.292 362.704C343.804 362.704 344.241 362.555 344.604 362.256C344.977 361.947 345.222 361.493 345.34 360.896L346.988 360.992C346.881 361.643 346.657 362.208 346.316 362.688C345.974 363.157 345.542 363.525 345.02 363.792C344.508 364.059 343.926 364.192 343.276 364.192ZM352.101 364.192C351.28 364.192 350.624 363.915 350.133 363.36C349.643 362.795 349.397 362.005 349.397 360.992V355.488H351.013V360.576C351.013 361.344 351.147 361.904 351.413 362.256C351.68 362.608 352.085 362.784 352.629 362.784C353.216 362.784 353.685 362.587 354.037 362.192C354.4 361.797 354.581 361.237 354.581 360.512V355.488H356.197V364H354.677L354.661 361.776L354.885 361.872C354.736 362.608 354.421 363.179 353.941 363.584C353.461 363.989 352.848 364.192 352.101 364.192ZM358.367 364V355.488H359.775L359.839 357.408L359.663 357.36C359.77 356.709 359.978 356.203 360.287 355.84C360.607 355.477 361.007 355.296 361.487 355.296C361.999 355.296 362.383 355.477 362.639 355.84C362.906 356.203 363.071 356.741 363.135 357.456H362.959C363.055 356.773 363.274 356.245 363.615 355.872C363.957 355.488 364.383 355.296 364.895 355.296C365.567 355.296 366.053 355.531 366.351 356C366.661 356.459 366.815 357.211 366.815 358.256V364H365.247V358.528C365.247 357.845 365.173 357.371 365.023 357.104C364.885 356.837 364.666 356.704 364.367 356.704C364.175 356.704 363.999 356.768 363.839 356.896C363.69 357.024 363.573 357.227 363.487 357.504C363.402 357.771 363.359 358.123 363.359 358.56V364H361.823V358.528C361.823 357.867 361.754 357.397 361.615 357.12C361.487 356.843 361.269 356.704 360.959 356.704C360.757 356.704 360.581 356.768 360.431 356.896C360.282 357.024 360.159 357.227 360.063 357.504C359.978 357.771 359.935 358.123 359.935 358.56V364H358.367ZM372.457 364.192C371.657 364.192 370.958 364.011 370.361 363.648C369.774 363.285 369.316 362.768 368.985 362.096C368.665 361.424 368.505 360.64 368.505 359.744C368.505 358.848 368.665 358.069 368.985 357.408C369.316 356.747 369.769 356.229 370.345 355.856C370.932 355.483 371.62 355.296 372.409 355.296C373.166 355.296 373.833 355.477 374.409 355.84C374.985 356.192 375.433 356.704 375.753 357.376C376.084 358.037 376.249 358.837 376.249 359.776V360.224H370.201C370.254 361.035 370.478 361.653 370.873 362.08C371.278 362.496 371.812 362.704 372.473 362.704C372.974 362.704 373.39 362.587 373.721 362.352C374.052 362.107 374.281 361.792 374.409 361.408L376.105 361.52C375.86 362.331 375.417 362.981 374.777 363.472C374.148 363.952 373.374 364.192 372.457 364.192ZM370.201 358.928H374.505C374.441 358.203 374.217 357.664 373.833 357.312C373.46 356.96 372.985 356.784 372.409 356.784C371.812 356.784 371.321 356.965 370.937 357.328C370.553 357.691 370.308 358.224 370.201 358.928ZM378.579 364V355.488H380.067L380.115 357.712L379.939 357.584C380.045 357.061 380.232 356.635 380.499 356.304C380.776 355.963 381.112 355.712 381.507 355.552C381.901 355.381 382.323 355.296 382.771 355.296C383.411 355.296 383.939 355.44 384.355 355.728C384.771 356.005 385.085 356.389 385.299 356.88C385.512 357.36 385.619 357.904 385.619 358.512V364H384.003V358.928C384.003 358.192 383.859 357.637 383.571 357.264C383.293 356.891 382.872 356.704 382.307 356.704C381.912 356.704 381.555 356.789 381.235 356.96C380.925 357.131 380.675 357.387 380.483 357.728C380.291 358.059 380.195 358.469 380.195 358.96V364H378.579ZM393.069 364C392.205 364 391.559 363.803 391.133 363.408C390.717 363.003 390.509 362.384 390.509 361.552V353.488H392.125V361.472C392.125 361.867 392.215 362.16 392.397 362.352C392.589 362.544 392.871 362.64 393.245 362.64H395.437V364H393.069ZM387.821 356.848V355.488H395.437V356.848H387.821Z" fill="#3F3D3C"/>
<rect x="-5" y="230" width="630" height="232" fill="url(#paint1_linear_923_12333)"/>
<g opacity="0.6" filter="url(#filter0_d_923_12333)">
<rect x="162.109" y="62" width="297.816" height="56.174" rx="11.2348" fill="white"/>
</g>
<g opacity="0.6" filter="url(#filter1_d_923_12333)">
<rect x="150.562" y="72.3359" width="321.029" height="60.531" rx="12.1062" fill="white"/>
</g>
<rect x="136.643" y="82.3047" width="348.531" height="64.4456" rx="12.3934" fill="white"/>
<rect x="136.643" y="82.3047" width="348.531" height="64.4456" rx="12.3934" stroke="#EEEEEE" stroke-width="1.65245"/>
<g opacity="0.6">
<path d="M172.652 105.235C172.652 102.193 175.118 99.7266 178.161 99.7266C181.203 99.7266 183.669 102.193 183.669 105.235C183.669 108.277 181.203 110.743 178.161 110.743C175.118 110.743 172.652 108.277 172.652 105.235Z" fill="#1F1F1F"/>
<path d="M169.779 101.104C170.628 101.104 171.052 101.104 171.217 101.33C171.382 101.556 171.236 102.016 170.943 102.936C170.712 103.661 170.588 104.434 170.588 105.235C170.588 109.418 173.978 112.809 178.161 112.809C178.973 112.809 179.754 112.682 180.487 112.445C181.385 112.156 181.834 112.011 182.061 112.175C182.287 112.339 182.289 112.752 182.291 113.578C182.292 114.078 182.292 114.599 182.292 115.14V115.298C182.292 118.314 182.293 120.683 182.044 122.533C181.789 124.429 181.256 125.933 180.074 127.115C178.892 128.297 177.388 128.83 175.492 129.085C173.642 129.334 171.273 129.333 168.257 129.333H168.099C165.082 129.333 162.713 129.334 160.863 129.085C158.968 128.83 157.463 128.297 156.281 127.115C155.099 125.933 154.566 124.429 154.312 122.533C154.063 120.683 154.062 118.314 154.063 115.298V115.14C154.062 112.123 154.063 109.754 154.312 107.904C154.566 106.009 155.099 104.504 156.281 103.322C157.463 102.14 158.968 101.607 160.863 101.353C162.713 101.104 165.082 101.103 168.099 101.104H169.779ZM161.981 119.006C161.411 119.006 160.948 119.468 160.948 120.038C160.948 120.608 161.411 121.071 161.981 121.071H172.997C173.567 121.071 174.03 120.608 174.03 120.038C174.03 119.468 173.567 119.006 172.997 119.006H161.981ZM161.981 112.12C161.411 112.12 160.948 112.583 160.948 113.153C160.948 113.724 161.411 114.186 161.981 114.186H167.489C168.06 114.185 168.521 113.724 168.521 113.153C168.521 112.583 168.06 112.12 167.489 112.12H161.981Z" fill="#303140"/>
</g>
<path opacity="0.6" d="M203.571 121.847C202.544 121.847 201.644 121.641 200.871 121.227C200.111 120.814 199.504 120.241 199.051 119.507C198.597 118.761 198.331 117.894 198.251 116.907L200.411 116.767C200.504 117.447 200.691 118.021 200.971 118.487C201.251 118.954 201.617 119.307 202.071 119.547C202.524 119.774 203.051 119.887 203.651 119.887C204.237 119.887 204.731 119.814 205.131 119.667C205.531 119.507 205.837 119.281 206.051 118.987C206.264 118.694 206.371 118.341 206.371 117.927C206.371 117.501 206.271 117.127 206.071 116.807C205.871 116.487 205.511 116.194 204.991 115.927C204.471 115.661 203.711 115.387 202.711 115.107C201.737 114.841 200.944 114.541 200.331 114.207C199.717 113.874 199.271 113.461 198.991 112.967C198.711 112.474 198.571 111.861 198.571 111.127C198.571 110.314 198.757 109.601 199.131 108.987C199.517 108.361 200.064 107.874 200.771 107.527C201.491 107.181 202.351 107.007 203.351 107.007C204.337 107.007 205.177 107.201 205.871 107.587C206.577 107.974 207.131 108.514 207.531 109.207C207.944 109.887 208.197 110.687 208.291 111.607L206.131 111.727C206.064 111.181 205.911 110.701 205.671 110.287C205.444 109.874 205.131 109.554 204.731 109.327C204.331 109.087 203.851 108.967 203.291 108.967C202.504 108.967 201.877 109.161 201.411 109.547C200.957 109.921 200.731 110.414 200.731 111.027C200.731 111.441 200.824 111.781 201.011 112.047C201.197 112.314 201.524 112.554 201.991 112.767C202.457 112.981 203.111 113.201 203.951 113.427C205.084 113.734 205.984 114.087 206.651 114.487C207.317 114.887 207.797 115.367 208.091 115.927C208.384 116.487 208.531 117.154 208.531 117.927C208.531 118.701 208.324 119.387 207.911 119.987C207.497 120.574 206.917 121.034 206.171 121.367C205.437 121.687 204.571 121.847 203.571 121.847ZM211.443 121.527V107.327H213.463V113.207L213.263 113.127C213.396 112.554 213.623 112.087 213.943 111.727C214.263 111.354 214.649 111.081 215.103 110.907C215.556 110.734 216.056 110.647 216.603 110.647C217.349 110.647 217.976 110.821 218.483 111.167C219.003 111.501 219.389 111.974 219.643 112.587C219.909 113.187 220.043 113.881 220.043 114.667V121.527H218.023V115.187C218.023 114.227 217.849 113.527 217.503 113.087C217.169 112.634 216.669 112.407 216.003 112.407C215.243 112.407 214.629 112.647 214.163 113.127C213.696 113.607 213.463 114.314 213.463 115.247V121.527H211.443ZM226.335 121.767C225.668 121.767 225.068 121.647 224.535 121.407C224.002 121.167 223.575 120.827 223.255 120.387C222.948 119.947 222.795 119.434 222.795 118.847C222.795 117.941 223.068 117.234 223.615 116.727C224.175 116.221 225.015 115.861 226.135 115.647L229.575 114.927C229.575 114.101 229.395 113.481 229.035 113.067C228.675 112.654 228.135 112.447 227.415 112.447C226.748 112.447 226.228 112.601 225.855 112.907C225.482 113.214 225.228 113.641 225.095 114.187L222.975 114.047C223.175 113.034 223.662 112.214 224.435 111.587C225.208 110.961 226.202 110.647 227.415 110.647C228.775 110.647 229.808 111.034 230.515 111.807C231.235 112.581 231.595 113.647 231.595 115.007V119.207C231.595 119.447 231.648 119.621 231.755 119.727C231.862 119.821 232.015 119.867 232.215 119.867H232.815V121.527C232.735 121.541 232.602 121.554 232.415 121.567C232.242 121.581 232.068 121.587 231.895 121.587C231.415 121.587 231.008 121.507 230.675 121.347C230.342 121.187 230.088 120.941 229.915 120.607C229.755 120.261 229.662 119.827 229.635 119.307H229.955C229.875 119.774 229.668 120.194 229.335 120.567C229.002 120.941 228.575 121.234 228.055 121.447C227.535 121.661 226.962 121.767 226.335 121.767ZM226.635 120.107C227.275 120.107 227.815 119.994 228.255 119.767C228.695 119.541 229.022 119.221 229.235 118.807C229.462 118.394 229.575 117.907 229.575 117.347V116.527L226.615 117.127C225.975 117.247 225.528 117.434 225.275 117.687C225.022 117.941 224.895 118.274 224.895 118.687C224.895 119.127 225.048 119.474 225.355 119.727C225.662 119.981 226.088 120.107 226.635 120.107ZM238.347 121.527V110.887H239.947L240.127 113.607L239.947 113.587C240.081 112.667 240.367 111.987 240.807 111.547C241.247 111.107 241.854 110.887 242.627 110.887H244.887V112.647H242.707C242.201 112.647 241.774 112.747 241.427 112.947C241.081 113.134 240.814 113.421 240.627 113.807C240.454 114.181 240.367 114.647 240.367 115.207V121.527H238.347ZM235.647 121.527V119.827H243.687V121.527H235.647ZM235.647 112.587V110.887H239.487V112.587H235.647ZM252.299 121.767C251.299 121.767 250.426 121.541 249.679 121.087C248.946 120.634 248.373 119.987 247.959 119.147C247.559 118.307 247.359 117.327 247.359 116.207C247.359 115.087 247.559 114.114 247.959 113.287C248.373 112.461 248.939 111.814 249.659 111.347C250.393 110.881 251.253 110.647 252.239 110.647C253.186 110.647 254.019 110.874 254.739 111.327C255.459 111.767 256.019 112.407 256.419 113.247C256.833 114.074 257.039 115.074 257.039 116.247V116.807H249.479C249.546 117.821 249.826 118.594 250.319 119.127C250.826 119.647 251.493 119.907 252.319 119.907C252.946 119.907 253.466 119.761 253.879 119.467C254.293 119.161 254.579 118.767 254.739 118.287L256.859 118.427C256.553 119.441 255.999 120.254 255.199 120.867C254.413 121.467 253.446 121.767 252.299 121.767ZM249.479 115.187H254.859C254.779 114.281 254.499 113.607 254.019 113.167C253.553 112.727 252.959 112.507 252.239 112.507C251.493 112.507 250.879 112.734 250.399 113.187C249.919 113.641 249.613 114.307 249.479 115.187ZM260.212 121.527V107.327H262.232V113.207L262.032 113.127C262.165 112.554 262.392 112.087 262.712 111.727C263.032 111.354 263.418 111.081 263.872 110.907C264.325 110.734 264.825 110.647 265.372 110.647C266.118 110.647 266.745 110.821 267.252 111.167C267.772 111.501 268.158 111.974 268.412 112.587C268.678 113.187 268.812 113.881 268.812 114.667V121.527H266.792V115.187C266.792 114.227 266.618 113.527 266.272 113.087C265.938 112.634 265.438 112.407 264.772 112.407C264.012 112.407 263.398 112.647 262.932 113.127C262.465 113.607 262.232 114.314 262.232 115.247V121.527H260.212ZM276.544 121.767C275.557 121.767 274.69 121.541 273.944 121.087C273.21 120.634 272.637 119.987 272.224 119.147C271.824 118.307 271.624 117.327 271.624 116.207C271.624 115.074 271.824 114.094 272.224 113.267C272.637 112.427 273.21 111.781 273.944 111.327C274.69 110.874 275.557 110.647 276.544 110.647C277.53 110.647 278.39 110.874 279.124 111.327C279.87 111.781 280.444 112.427 280.844 113.267C281.257 114.094 281.464 115.074 281.464 116.207C281.464 117.327 281.257 118.307 280.844 119.147C280.444 119.987 279.87 120.634 279.124 121.087C278.39 121.541 277.53 121.767 276.544 121.767ZM276.544 119.907C277.437 119.907 278.124 119.581 278.604 118.927C279.097 118.274 279.344 117.367 279.344 116.207C279.344 115.047 279.097 114.141 278.604 113.487C278.124 112.834 277.437 112.507 276.544 112.507C275.65 112.507 274.957 112.834 274.464 113.487C273.984 114.141 273.744 115.047 273.744 116.207C273.744 117.367 273.984 118.274 274.464 118.927C274.957 119.581 275.65 119.907 276.544 119.907ZM288.016 121.527V110.347C288.016 109.934 287.896 109.614 287.656 109.387C287.429 109.147 287.109 109.027 286.696 109.027H284.256V107.327H286.916C287.943 107.327 288.716 107.594 289.236 108.127C289.769 108.647 290.036 109.421 290.036 110.447V121.527H288.016ZM283.856 121.527V119.827H293.616V121.527H283.856ZM300.088 121.767C299.181 121.767 298.395 121.547 297.728 121.107C297.061 120.654 296.548 120.014 296.188 119.187C295.828 118.347 295.648 117.354 295.648 116.207C295.648 115.061 295.828 114.074 296.188 113.247C296.548 112.407 297.061 111.767 297.728 111.327C298.395 110.874 299.181 110.647 300.088 110.647C300.835 110.647 301.488 110.821 302.048 111.167C302.608 111.514 303.015 111.921 303.268 112.387V107.327H305.288V121.527H303.408L303.348 119.887C303.055 120.461 302.628 120.921 302.068 121.267C301.508 121.601 300.848 121.767 300.088 121.767ZM300.428 119.907C301.015 119.907 301.515 119.761 301.928 119.467C302.355 119.161 302.681 118.734 302.908 118.187C303.148 117.627 303.268 116.967 303.268 116.207C303.268 115.421 303.148 114.754 302.908 114.207C302.681 113.661 302.355 113.241 301.928 112.947C301.501 112.654 300.988 112.507 300.388 112.507C299.575 112.507 298.935 112.834 298.468 113.487C298.001 114.141 297.768 115.047 297.768 116.207C297.768 117.354 298.001 118.261 298.468 118.927C298.935 119.581 299.588 119.907 300.428 119.907ZM313.26 121.767C312.26 121.767 311.387 121.541 310.64 121.087C309.907 120.634 309.334 119.987 308.92 119.147C308.52 118.307 308.32 117.327 308.32 116.207C308.32 115.087 308.52 114.114 308.92 113.287C309.334 112.461 309.9 111.814 310.62 111.347C311.354 110.881 312.214 110.647 313.2 110.647C314.147 110.647 314.98 110.874 315.7 111.327C316.42 111.767 316.98 112.407 317.38 113.247C317.794 114.074 318 115.074 318 116.247V116.807H310.44C310.507 117.821 310.787 118.594 311.28 119.127C311.787 119.647 312.454 119.907 313.28 119.907C313.907 119.907 314.427 119.761 314.84 119.467C315.254 119.161 315.54 118.767 315.7 118.287L317.82 118.427C317.514 119.441 316.96 120.254 316.16 120.867C315.374 121.467 314.407 121.767 313.26 121.767ZM310.44 115.187H315.82C315.74 114.281 315.46 113.607 314.98 113.167C314.514 112.727 313.92 112.507 313.2 112.507C312.454 112.507 311.84 112.734 311.36 113.187C310.88 113.641 310.574 114.307 310.44 115.187ZM323.693 121.527V110.887H325.293L325.473 113.607L325.293 113.587C325.426 112.667 325.713 111.987 326.153 111.547C326.593 111.107 327.199 110.887 327.973 110.887H330.233V112.647H328.053C327.546 112.647 327.119 112.747 326.773 112.947C326.426 113.134 326.159 113.421 325.973 113.807C325.799 114.181 325.713 114.647 325.713 115.207V121.527H323.693ZM320.993 121.527V119.827H329.033V121.527H320.993ZM320.993 112.587V110.887H324.833V112.587H320.993ZM334.265 116.627V114.767H340.745V116.627H334.265ZM344.177 121.527L348.337 107.327H351.057L355.217 121.527H353.037L349.697 109.507L346.357 121.527H344.177ZM346.497 117.827L347.137 115.887H352.257L352.897 117.827H346.497ZM361.829 124.767C361.029 124.767 360.316 124.641 359.689 124.387C359.062 124.134 358.542 123.774 358.129 123.307C357.729 122.841 357.449 122.301 357.289 121.687L359.409 121.547C359.556 121.987 359.816 122.334 360.189 122.587C360.562 122.841 361.109 122.967 361.829 122.967C362.722 122.967 363.402 122.781 363.869 122.407C364.349 122.034 364.589 121.481 364.589 120.747V119.187C364.336 119.734 363.936 120.167 363.389 120.487C362.856 120.807 362.236 120.967 361.529 120.967C360.649 120.967 359.862 120.747 359.169 120.307C358.476 119.867 357.936 119.267 357.549 118.507C357.162 117.734 356.969 116.847 356.969 115.847C356.969 114.807 357.156 113.901 357.529 113.127C357.916 112.354 358.449 111.747 359.129 111.307C359.809 110.867 360.582 110.647 361.449 110.647C362.196 110.647 362.849 110.821 363.409 111.167C363.982 111.501 364.396 111.961 364.649 112.547L364.669 110.887H366.609V120.607C366.609 121.501 366.416 122.254 366.029 122.867C365.642 123.494 365.089 123.967 364.369 124.287C363.662 124.607 362.816 124.767 361.829 124.767ZM361.809 119.167C362.636 119.167 363.302 118.874 363.809 118.287C364.316 117.701 364.576 116.881 364.589 115.827C364.602 115.107 364.489 114.501 364.249 114.007C364.022 113.501 363.696 113.114 363.269 112.847C362.856 112.581 362.369 112.447 361.809 112.447C360.942 112.447 360.269 112.747 359.789 113.347C359.322 113.934 359.089 114.761 359.089 115.827C359.089 116.881 359.329 117.701 359.809 118.287C360.302 118.874 360.969 119.167 361.809 119.167ZM372.461 121.527V110.887H374.061L374.241 113.607L374.061 113.587C374.195 112.667 374.481 111.987 374.921 111.547C375.361 111.107 375.968 110.887 376.741 110.887H379.001V112.647H376.821C376.315 112.647 375.888 112.747 375.541 112.947C375.195 113.134 374.928 113.421 374.741 113.807C374.568 114.181 374.481 114.647 374.481 115.207V121.527H372.461ZM369.761 121.527V119.827H377.801V121.527H369.761ZM369.761 112.587V110.887H373.601V112.587H369.761ZM386.413 121.767C385.413 121.767 384.54 121.541 383.793 121.087C383.06 120.634 382.487 119.987 382.073 119.147C381.673 118.307 381.473 117.327 381.473 116.207C381.473 115.087 381.673 114.114 382.073 113.287C382.487 112.461 383.053 111.814 383.773 111.347C384.507 110.881 385.367 110.647 386.353 110.647C387.3 110.647 388.133 110.874 388.853 111.327C389.573 111.767 390.133 112.407 390.533 113.247C390.947 114.074 391.153 115.074 391.153 116.247V116.807H383.593C383.66 117.821 383.94 118.594 384.433 119.127C384.94 119.647 385.607 119.907 386.433 119.907C387.06 119.907 387.58 119.761 387.993 119.467C388.407 119.161 388.693 118.767 388.853 118.287L390.973 118.427C390.667 119.441 390.113 120.254 389.313 120.867C388.527 121.467 387.56 121.767 386.413 121.767ZM383.593 115.187H388.973C388.893 114.281 388.613 113.607 388.133 113.167C387.667 112.727 387.073 112.507 386.353 112.507C385.607 112.507 384.993 112.734 384.513 113.187C384.033 113.641 383.727 114.307 383.593 115.187ZM398.606 121.767C397.606 121.767 396.732 121.541 395.986 121.087C395.252 120.634 394.679 119.987 394.266 119.147C393.866 118.307 393.666 117.327 393.666 116.207C393.666 115.087 393.866 114.114 394.266 113.287C394.679 112.461 395.246 111.814 395.966 111.347C396.699 110.881 397.559 110.647 398.546 110.647C399.492 110.647 400.326 110.874 401.046 111.327C401.766 111.767 402.326 112.407 402.726 113.247C403.139 114.074 403.346 115.074 403.346 116.247V116.807H395.786C395.852 117.821 396.132 118.594 396.626 119.127C397.132 119.647 397.799 119.907 398.626 119.907C399.252 119.907 399.772 119.761 400.186 119.467C400.599 119.161 400.886 118.767 401.046 118.287L403.166 118.427C402.859 119.441 402.306 120.254 401.506 120.867C400.719 121.467 399.752 121.767 398.606 121.767ZM395.786 115.187H401.166C401.086 114.281 400.806 113.607 400.326 113.167C399.859 112.727 399.266 112.507 398.546 112.507C397.799 112.507 397.186 112.734 396.706 113.187C396.226 113.641 395.919 114.307 395.786 115.187ZM405.378 121.527V110.887H407.138L407.218 113.287L406.998 113.227C407.131 112.414 407.391 111.781 407.778 111.327C408.178 110.874 408.678 110.647 409.278 110.647C409.918 110.647 410.398 110.874 410.718 111.327C411.051 111.781 411.258 112.454 411.338 113.347H411.118C411.238 112.494 411.511 111.834 411.938 111.367C412.364 110.887 412.898 110.647 413.538 110.647C414.378 110.647 414.984 110.941 415.358 111.527C415.744 112.101 415.938 113.041 415.938 114.347V121.527H413.978V114.687C413.978 113.834 413.884 113.241 413.698 112.907C413.524 112.574 413.251 112.407 412.878 112.407C412.638 112.407 412.418 112.487 412.218 112.647C412.031 112.807 411.884 113.061 411.778 113.407C411.671 113.741 411.618 114.181 411.618 114.727V121.527H409.698V114.687C409.698 113.861 409.611 113.274 409.438 112.927C409.278 112.581 409.004 112.407 408.618 112.407C408.364 112.407 408.144 112.487 407.958 112.647C407.771 112.807 407.618 113.061 407.498 113.407C407.391 113.741 407.338 114.181 407.338 114.727V121.527H405.378ZM422.99 121.767C421.99 121.767 421.117 121.541 420.37 121.087C419.637 120.634 419.063 119.987 418.65 119.147C418.25 118.307 418.05 117.327 418.05 116.207C418.05 115.087 418.25 114.114 418.65 113.287C419.063 112.461 419.63 111.814 420.35 111.347C421.083 110.881 421.943 110.647 422.93 110.647C423.877 110.647 424.71 110.874 425.43 111.327C426.15 111.767 426.71 112.407 427.11 113.247C427.523 114.074 427.73 115.074 427.73 116.247V116.807H420.17C420.237 117.821 420.517 118.594 421.01 119.127C421.517 119.647 422.183 119.907 423.01 119.907C423.637 119.907 424.157 119.761 424.57 119.467C424.983 119.161 425.27 118.767 425.43 118.287L427.55 118.427C427.243 119.441 426.69 120.254 425.89 120.867C425.103 121.467 424.137 121.767 422.99 121.767ZM420.17 115.187H425.55C425.47 114.281 425.19 113.607 424.71 113.167C424.243 112.727 423.65 112.507 422.93 112.507C422.183 112.507 421.57 112.734 421.09 113.187C420.61 113.641 420.303 114.307 420.17 115.187ZM430.642 121.527V110.887H432.502L432.562 113.667L432.342 113.507C432.476 112.854 432.709 112.321 433.042 111.907C433.389 111.481 433.809 111.167 434.302 110.967C434.796 110.754 435.322 110.647 435.882 110.647C436.682 110.647 437.342 110.827 437.862 111.187C438.382 111.534 438.776 112.014 439.042 112.627C439.309 113.227 439.442 113.907 439.442 114.667V121.527H437.422V115.187C437.422 114.267 437.242 113.574 436.882 113.107C436.536 112.641 436.009 112.407 435.302 112.407C434.809 112.407 434.362 112.514 433.962 112.727C433.576 112.941 433.262 113.261 433.022 113.687C432.782 114.101 432.662 114.614 432.662 115.227V121.527H430.642ZM448.754 121.527C447.674 121.527 446.868 121.281 446.334 120.787C445.814 120.281 445.554 119.507 445.554 118.467V108.387H447.574V118.367C447.574 118.861 447.688 119.227 447.914 119.467C448.154 119.707 448.508 119.827 448.974 119.827H451.714V121.527H448.754ZM442.194 112.587V110.887H451.714V112.587H442.194Z" fill="#251B18"/>
<path d="M309.293 210.707C309.683 211.098 310.317 211.098 310.707 210.707L317.071 204.343C317.462 203.953 317.462 203.319 317.071 202.929C316.681 202.538 316.047 202.538 315.657 202.929L310 208.586L304.343 202.929C303.953 202.538 303.319 202.538 302.929 202.929C302.538 203.319 302.538 203.953 302.929 204.343L309.293 210.707ZM310 148L309 148L309 149.937L310 149.938L311 149.938L311 148L310 148ZM310 153.812L309 153.812L309 157.687L310 157.688L311 157.688L311 153.813L310 153.812ZM310 161.562L309 161.562L309 165.437L310 165.438L311 165.438L311 161.563L310 161.562ZM310 169.312L309 169.312L309 173.187L310 173.188L311 173.188L311 169.313L310 169.312ZM310 177.062L309 177.062L309 180.937L310 180.938L311 180.938L311 177.063L310 177.062ZM310 184.812L309 184.812L309 188.687L310 188.688L311 188.688L311 184.813L310 184.812ZM310 192.562L309 192.562L309 196.437L310 196.438L311 196.438L311 192.563L310 192.562ZM310 200.312L309 200.312L309 204.187L310 204.188L311 204.188L311 200.313L310 200.312ZM310 208.062L309 208.062L309 210L310 210L311 210L311 208.063L310 208.062ZM309.293 210.707C309.683 211.098 310.317 211.098 310.707 210.707L317.071 204.343C317.462 203.953 317.462 203.319 317.071 202.929C316.681 202.538 316.047 202.538 315.657 202.929L310 208.586L304.343 202.929C303.953 202.538 303.319 202.538 302.929 202.929C302.538 203.319 302.538 203.953 302.929 204.343L309.293 210.707ZM310 148L309 148L309 149.937L310 149.938L311 149.938L311 148L310 148ZM310 153.812L309 153.812L309 157.687L310 157.688L311 157.688L311 153.813L310 153.812ZM310 161.562L309 161.562L309 165.437L310 165.438L311 165.438L311 161.563L310 161.562ZM310 169.312L309 169.312L309 173.187L310 173.188L311 173.188L311 169.313L310 169.312ZM310 177.062L309 177.062L309 180.937L310 180.938L311 180.938L311 177.063L310 177.062ZM310 184.812L309 184.812L309 188.687L310 188.688L311 188.688L311 184.813L310 184.812ZM310 192.562L309 192.562L309 196.437L310 196.438L311 196.438L311 192.563L310 192.562ZM310 200.312L309 200.312L309 204.187L310 204.188L311 204.188L311 200.313L310 200.312ZM310 208.062L309 208.062L309 210L310 210L311 210L311 208.063L310 208.062Z" fill="#251B18" fill-opacity="0.12"/>
</g>
<defs>
<filter id="filter0_d_923_12333" x="150.875" y="50.7652" width="320.286" height="78.6434" filterUnits="userSpaceOnUse" color-interpolation-filters="sRGB">
<feFlood flood-opacity="0" result="BackgroundImageFix"/>
<feColorMatrix in="SourceAlpha" type="matrix" values="0 0 0 0 0 0 0 0 0 0 0 0 0 0 0 0 0 0 127 0" result="hardAlpha"/>
<feOffset/>
<feGaussianBlur stdDeviation="5.6174"/>
<feComposite in2="hardAlpha" operator="out"/>
<feColorMatrix type="matrix" values="0 0 0 0 0 0 0 0 0 0 0 0 0 0 0 0 0 0 0.07 0"/>
<feBlend mode="normal" in2="BackgroundImageFix" result="effect1_dropShadow_923_12333"/>
<feBlend mode="normal" in="SourceGraphic" in2="effect1_dropShadow_923_12333" result="shape"/>
</filter>
<filter id="filter1_d_923_12333" x="138.456" y="60.2297" width="345.242" height="84.7436" filterUnits="userSpaceOnUse" color-interpolation-filters="sRGB">
<feFlood flood-opacity="0" result="BackgroundImageFix"/>
<feColorMatrix in="SourceAlpha" type="matrix" values="0 0 0 0 0 0 0 0 0 0 0 0 0 0 0 0 0 0 127 0" result="hardAlpha"/>
<feOffset/>
<feGaussianBlur stdDeviation="6.0531"/>
<feComposite in2="hardAlpha" operator="out"/>
<feColorMatrix type="matrix" values="0 0 0 0 0 0 0 0 0 0 0 0 0 0 0 0 0 0 0.07 0"/>
<feBlend mode="normal" in2="BackgroundImageFix" result="effect1_dropShadow_923_12333"/>
<feBlend mode="normal" in="SourceGraphic" in2="effect1_dropShadow_923_12333" result="shape"/>
</filter>
<linearGradient id="paint0_linear_923_12333" x1="310" y1="331" x2="310" y2="385" gradientUnits="userSpaceOnUse">
<stop stop-color="#F5F5F5"/>
<stop offset="1" stop-color="#F5F5F5"/>
</linearGradient>
<linearGradient id="paint1_linear_923_12333" x1="310" y1="230" x2="310" y2="462" gradientUnits="userSpaceOnUse">
<stop stop-color="#F5F5F5" stop-opacity="0"/>
<stop offset="1" stop-color="#F5F5F5"/>
</linearGradient>
<clipPath id="clip0_923_12333">
<rect width="620" height="465" fill="white"/>
</clipPath>
</defs>
</svg>
