<svg width="121" height="30" viewBox="0 0 121 30" fill="none" xmlns="http://www.w3.org/2000/svg">
<g clip-path="url(#clip0_802_9134)">
<path d="M98.9512 1.14001H93.9917V6.12001H98.9512V1.14001Z" fill="black"/>
<path fill-rule="evenodd" clip-rule="evenodd" d="M79.5911 13.98H75.2291V22.08C75.2291 22.74 75.4083 23.28 75.7071 23.58C76.0656 23.88 76.5436 24.06 77.2009 24.12C77.8582 24.12 78.635 24.12 79.5911 24.06V28.62C76.1851 29.04 73.795 28.68 72.3012 27.66C70.8671 26.64 70.1501 24.72 70.1501 22.02V13.98H66.7441V9.11997H70.1501V5.21997L75.1693 3.71997V9.17997H82.9372V5.21997L87.9565 3.71997V9.17997H92.3185V14.04H87.9565V22.14C87.9565 22.8 88.1357 23.34 88.4345 23.64C88.793 23.94 89.2711 24.12 89.9283 24.18C90.5856 24.18 91.3624 24.18 92.3185 24.12V28.68C88.9125 29.1 86.5224 28.74 85.0286 27.72C83.5945 26.7 82.8775 24.78 82.8775 22.08V13.98H79.5911Z" fill="black"/>
<path d="M98.9509 9.12H93.9316V28.62H98.9509V9.12Z" fill="black"/>
<path fill-rule="evenodd" clip-rule="evenodd" d="M110.782 8.64001C105.165 8.64001 100.564 13.26 100.564 18.9C100.564 24.54 105.165 29.16 110.782 29.16C116.399 29.16 121 24.54 121 18.9C121 13.2 116.459 8.64001 110.782 8.64001ZM110.782 24.3C107.795 24.3 105.345 21.84 105.345 18.84C105.345 15.84 107.795 13.38 110.782 13.38C113.77 13.38 116.22 15.84 116.22 18.84C116.22 21.9 113.77 24.3 110.782 24.3Z" fill="black"/>
<path fill-rule="evenodd" clip-rule="evenodd" d="M60.2313 9.12001V10.2C58.6777 9.24001 56.8254 8.64001 54.8535 8.64001C49.2367 8.64001 44.6357 13.26 44.6357 18.9C44.6357 24.54 49.2367 29.16 54.8535 29.16C56.8254 29.16 58.6777 28.62 60.2313 27.6V28.68H65.1908V9.12001H60.2313ZM54.8535 24.3C51.8659 24.3 49.416 21.84 49.416 18.84C49.416 15.84 51.8659 13.38 54.8535 13.38C57.8412 13.38 60.2313 15.78 60.2911 18.72V18.9C60.2313 21.96 57.7814 24.3 54.8535 24.3Z" fill="black"/>
<path d="M36.0313 20.88L32.9839 16.02L32.6852 15.6C32.2071 14.88 31.4304 14.46 30.5938 14.46L25.6941 14.4L25.3953 15L19.5395 24.42L19.2407 24.96L21.6906 28.92C22.1686 29.64 22.9454 30.06 23.782 30.06H30.6536C31.4901 30.06 32.3266 29.64 32.7449 28.92L32.9839 28.56L36.0313 23.64C36.5094 22.74 36.5094 21.72 36.0313 20.88ZM35.0753 22.98L32.0279 27.9C32.0279 27.9 32.0279 27.96 31.9681 27.96C31.8486 28.08 31.7291 28.08 31.6694 28.08C31.6096 28.08 31.4304 28.08 31.3108 27.9L28.2634 22.98C28.2037 22.92 28.2037 22.86 28.1439 22.8C28.1439 22.74 28.0842 22.68 28.0842 22.62C28.0244 22.38 28.0244 22.14 28.0842 21.84C28.1439 21.72 28.1439 21.6 28.2634 21.48L31.3108 16.62C31.3706 16.5 31.4901 16.44 31.5499 16.44C31.6096 16.44 31.6096 16.44 31.6096 16.44C31.6096 16.44 31.6096 16.44 31.6694 16.44C31.7291 16.44 31.9084 16.44 32.0279 16.62L35.0753 21.48C35.3741 21.96 35.3741 22.5 35.0753 22.98Z" fill="black"/>
<path d="M27.0084 9.06C27.4864 8.28 27.4864 7.2 27.0084 6.42L23.961 1.56L23.722 1.14C23.244 0.42 22.4672 0 21.6306 0H14.759C13.9225 0 13.1457 0.42 12.6677 1.14L0.358519 20.94C0.119506 21.3 0 21.78 0 22.2C0 22.68 0.119506 23.1 0.358519 23.52L3.64494 28.8C4.12296 29.58 4.89975 30 5.79605 30H12.6677C13.5042 30 14.3407 29.58 14.759 28.86L14.998 28.44L17.4479 24.48L24.678 12.84L27.0084 9.06ZM26.2914 7.8C26.2914 8.04 26.2316 8.28 26.0523 8.52L14.042 27.84C13.9225 28.02 13.7432 28.02 13.6835 28.02C13.6237 28.02 13.4444 28.02 13.3249 27.84L10.2775 22.92C9.97877 22.5 9.97877 21.9 10.2775 21.48L22.3477 2.16C22.4672 1.98 22.6464 1.98 22.7062 1.98C22.7659 1.98 22.9452 1.98 23.0647 2.16L26.1121 7.02C26.2316 7.26 26.2914 7.5 26.2914 7.8Z" fill="black"/>
</g>
<defs>
<clipPath id="clip0_802_9134">
<rect width="121" height="30" fill="white"/>
</clipPath>
</defs>
</svg>
