<svg width="135" height="29" viewBox="0 0 135 29" fill="none" xmlns="http://www.w3.org/2000/svg">
<path d="M5.68386 19.2851L11.3853 16.0852L11.4812 15.8073L11.3853 15.6527H11.1075L10.1546 15.594L6.89694 15.5059L4.07164 15.3885L1.33439 15.2417L0.645672 15.095L0 14.2436L0.0665245 13.8189L0.645672 13.4295L1.47526 13.5019L3.30858 13.6271L6.05952 13.817L8.05523 13.9344L11.0116 14.2417H11.4812L11.5477 14.0518L11.3873 13.9344L11.2621 13.817L8.41525 11.8873L5.33363 9.84802L3.71946 8.67378L2.84682 8.07882L2.40659 7.52105L2.2168 6.30375L3.00922 5.4309L4.0736 5.50331L4.34556 5.57572L5.42364 6.40552L7.72653 8.18842L10.7338 10.4038L11.174 10.7698L11.3501 10.6446L11.3716 10.5565L11.174 10.2257L9.53832 7.2686L7.79305 4.26056L7.01629 3.0139L6.81085 2.2663C6.73846 1.95904 6.68563 1.7007 6.68563 1.38561L7.58761 0.160482L8.08654 0L9.28984 0.160482L9.79659 0.600825L10.544 2.31131L11.7551 5.00425L13.6334 8.66595L14.1832 9.75212L14.4767 10.7581L14.5863 11.0653H14.7761V10.8892L14.9307 8.82643L15.2163 6.29397L15.4941 3.03543L15.59 2.11756L16.0439 1.01768L16.9459 0.42273L17.6503 0.759348L18.2294 1.58915L18.1492 2.12539L17.8049 4.36429L17.1298 7.87137L16.6896 10.2199H16.9459L17.2394 9.92631L18.4271 8.3489L20.4228 5.85362L21.3032 4.86334L22.3304 3.76933L22.9898 3.24875H24.2361L25.1538 4.61284L24.7429 6.02193L23.4594 7.65022L22.395 9.02997L20.8689 11.0849L19.916 12.7288L20.0041 12.86L20.231 12.8384L23.6785 12.1045L25.5412 11.7679L27.7639 11.3863L28.7695 11.856L28.8791 12.3335L28.4839 13.3101L26.1066 13.8972L23.3185 14.455L19.1666 15.4374L19.1158 15.4746L19.1745 15.547L21.045 15.7232L21.8452 15.7662H23.8037L27.4508 16.0383L28.4037 16.6684L28.975 17.4395L28.8791 18.0267L27.4117 18.7743L25.4316 18.3046L20.8102 17.2047L19.2253 16.8094H19.0062V16.9405L20.3269 18.2322L22.7472 20.4182L25.7779 23.2364L25.9325 23.9331L25.5431 24.4831L25.1323 24.4243L22.4694 22.4203L21.4421 21.5181L19.1158 19.5591H18.9612V19.7645L19.4973 20.5493L22.3285 24.806L22.4752 26.1114L22.2698 26.536L21.5361 26.7924L20.73 26.6456L19.0727 24.3187L17.3627 21.6981L15.9833 19.3496L15.815 19.4455L15.0011 28.2152L14.6196 28.6634L13.7391 29L13.0054 28.4422L12.616 27.54L13.0054 25.7571L13.475 23.4302L13.8565 21.5807L14.2008 19.2831L14.4063 18.5198L14.3926 18.469L14.2243 18.4905L12.4928 20.8683L9.8592 24.4283L7.77544 26.6593L7.27652 26.857L6.41171 26.4088L6.49193 25.6084L6.9752 24.896L9.8592 21.2265L11.5986 18.9524L12.7217 17.6392L12.7138 17.4493H12.6473L4.98732 22.4242L3.62358 22.6004L3.03661 22.0504L3.109 21.1482L3.38684 20.8546L5.68973 19.2694L5.6819 19.2772L5.68386 19.2851Z" fill="black"/>
<path d="M47.304 24.6201C43.6217 24.6201 41.1036 22.5652 39.916 19.4025C39.2957 17.7547 38.9885 16.005 39.014 14.2437C39.014 8.93803 41.3912 5.25284 46.6446 5.25284C50.1743 5.25284 52.352 6.79307 53.5924 10.4704H55.1029L54.8975 5.39963C52.7844 4.03554 50.143 3.34469 46.9303 3.34469C42.4028 3.34469 38.5522 5.37027 36.4098 9.02414C35.3023 10.9538 34.7408 13.1477 34.7819 15.3729C34.7819 19.4319 36.6974 23.027 40.2916 25.0233C42.2599 26.0742 44.467 26.5967 46.6975 26.5341C50.2036 26.5341 52.9859 25.8668 55.4512 24.7003L56.089 19.109H54.5492C53.6257 21.663 52.5241 23.1973 50.6967 24.0115C49.8025 24.4146 48.6716 24.6201 47.3079 24.6201H47.304ZM63.1875 5.25284L63.3342 2.75757H62.2933L57.6562 4.15101V4.90644L59.7107 5.85954V23.3108C59.7107 24.4988 59.1022 24.763 57.5095 24.9626V26.2386H65.3965V24.9626C63.7979 24.7649 63.1953 24.5007 63.1953 23.3108V5.25872L63.1875 5.25089V5.25284ZM94.5534 26.5361H95.1619L100.496 25.5243V24.2189L99.7481 24.1602C98.5018 24.0428 98.1789 23.7864 98.1789 22.7667V13.4608L98.3257 10.4743H97.4824L92.4423 11.2004V12.4764L92.9334 12.5645C94.2971 12.7622 94.7021 13.1438 94.7021 14.0988V22.391C93.3971 23.4028 92.1488 24.0428 90.6676 24.0428C89.0241 24.0428 88.0047 23.2071 88.0047 21.2539V13.4667L88.1515 10.4802H87.2867L82.2387 11.2063V12.4823L82.7591 12.5704C84.1229 12.768 84.5279 13.1497 84.5279 14.1047V21.7589C84.5279 25.0017 86.3612 26.5439 89.2824 26.5439C91.5129 26.5439 93.3403 25.356 94.7119 23.7042L94.5651 26.5439L94.5573 26.5361H94.5534ZM79.8947 16.2105C79.8947 12.0635 77.6936 10.4724 73.7178 10.4724C70.2116 10.4724 67.6641 11.9245 67.6641 14.3317C67.6641 15.05 67.9205 15.6019 68.4409 15.9835L71.1116 15.6312C70.9942 14.8249 70.9355 14.3317 70.9355 14.1262C70.9355 12.7622 71.6614 12.0713 73.1367 12.0713C75.3163 12.0713 76.4159 13.6057 76.4159 16.0716V16.8779L70.914 18.5297C69.0807 19.0287 68.0379 19.4612 67.3413 20.475C66.9715 21.0954 66.7935 21.8097 66.8287 22.5299C66.8287 24.8784 68.4429 26.5361 71.2016 26.5361C73.1973 26.5361 74.9661 25.6339 76.5059 23.9234C77.0557 25.6339 77.899 26.5361 79.4036 26.5361C80.6206 26.5361 81.7222 26.0449 82.7044 25.0839L82.4109 24.0721C81.9863 24.1895 81.5754 24.2483 81.1411 24.2483C80.2978 24.2483 79.8947 23.5809 79.8947 22.2736V16.2125V16.2105ZM72.851 24.1876C71.3464 24.1876 70.4151 23.3147 70.4151 21.7804C70.4151 20.7392 70.9062 20.1286 71.9549 19.7763L76.4159 18.3594V22.6454C74.9935 23.7238 74.1561 24.1856 72.851 24.1856V24.1876ZM119.292 25.5223V24.2169L118.537 24.1582C117.291 24.0408 116.974 23.7844 116.974 22.7648V5.2548L117.121 2.75953H116.072L111.435 4.15297V4.9084L113.489 5.8615V11.5997C112.333 10.807 110.95 10.4097 109.549 10.4704C104.941 10.4704 101.347 13.9775 101.347 19.2264C101.347 23.5496 103.929 26.5361 108.185 26.5361C110.386 26.5361 112.302 25.4656 113.489 23.806L113.342 26.5361H113.959L119.292 25.5243V25.5223ZM109.637 12.2103C111.838 12.2103 113.489 13.4863 113.489 15.8348V22.4399C112.476 23.4498 111.096 24.0056 109.666 23.9801C106.512 23.9801 104.912 21.4849 104.912 18.1539C104.912 14.412 106.739 12.2103 109.637 12.2103ZM130.57 15.5138C130.159 13.5763 128.972 12.4764 127.32 12.4764C124.855 12.4764 123.145 14.3337 123.145 16.9973C123.145 20.9388 125.229 23.4928 128.596 23.4928C130.842 23.4693 132.908 22.254 134.018 20.3008L135 20.565C134.56 23.984 131.464 26.538 127.663 26.538C123.202 26.538 120.128 23.2364 120.128 18.5395C120.128 13.8425 123.466 10.4743 127.927 10.4743C131.257 10.4743 133.605 12.4784 134.362 15.9561L122.74 19.5219V17.9523L130.568 15.5236V15.5158L130.57 15.5138Z" fill="black"/>
</svg>
