<svg id="Layer_1" data-name="Layer 1" xmlns="http://www.w3.org/2000/svg" viewBox="46.58 57.59 486.79 486.72"><path d="M258.5,192.3a11.05,11.05,0,0,1,6.37-1.82,11.91,11.91,0,0,1,3.82.59,8.83,8.83,0,0,1,3,1.68,8.25,8.25,0,0,1,2,2.63,11,11,0,0,1,1,3.46h12.43a22,22,0,0,0-2.31-8.13,19.41,19.41,0,0,0-4.85-6A21,21,0,0,0,273.1,181a27.27,27.27,0,0,0-8.55-1.28,24.87,24.87,0,0,0-12.26,3,21.93,21.93,0,0,0-8.67,8.87,33.38,33.38,0,0,0-.05,28.46,21.66,21.66,0,0,0,8.61,8.89A25,25,0,0,0,264.55,232a25.45,25.45,0,0,0,9.31-1.59,20.77,20.77,0,0,0,6.89-4.29,21.41,21.41,0,0,0,4.47-6,19.21,19.21,0,0,0,1.95-6.66l-12.43-.08a10.09,10.09,0,0,1-1.16,3.3,8.36,8.36,0,0,1-2.11,2.46,9.14,9.14,0,0,1-3,1.53,12.69,12.69,0,0,1-3.71.52,11.24,11.24,0,0,1-6.28-1.73,11.09,11.09,0,0,1-4.1-5.15,25.11,25.11,0,0,1,0-16.79A11.49,11.49,0,0,1,258.5,192.3Z"/><path d="M312.76,192.3a11.11,11.11,0,0,1,6.38-1.82,11.91,11.91,0,0,1,3.82.59,8.83,8.83,0,0,1,3,1.68,8.25,8.25,0,0,1,2,2.63,11,11,0,0,1,1,3.46h12.43a22,22,0,0,0-2.31-8.13,19.41,19.41,0,0,0-4.85-6,21,21,0,0,0-6.91-3.72,27.27,27.27,0,0,0-8.55-1.28,24.87,24.87,0,0,0-12.26,3,21.93,21.93,0,0,0-8.67,8.87,33.38,33.38,0,0,0-.05,28.46,21.66,21.66,0,0,0,8.61,8.89A25,25,0,0,0,318.82,232a25.45,25.45,0,0,0,9.31-1.59,20.77,20.77,0,0,0,6.89-4.29,21.41,21.41,0,0,0,4.47-6,19.21,19.21,0,0,0,1.95-6.66L329,213.4a10.09,10.09,0,0,1-1.16,3.3,8.36,8.36,0,0,1-2.11,2.46,9.14,9.14,0,0,1-3,1.53,12.74,12.74,0,0,1-3.71.52,11.24,11.24,0,0,1-6.28-1.73,11.09,11.09,0,0,1-4.1-5.15,25.11,25.11,0,0,1,0-16.79A11.53,11.53,0,0,1,312.76,192.3Z"/><path d="M364.25,215.49h8.35a22.06,22.06,0,0,0,10.1-2.16,15.65,15.65,0,0,0,6.55-6.1,18,18,0,0,0,2.3-9.21,18.23,18.23,0,0,0-2.27-9.21,15.7,15.7,0,0,0-6.42-6.19,20.62,20.62,0,0,0-9.88-2.23H352V231.3h12.3Zm6.07-25.18a10.26,10.26,0,0,1,4.64.94,6.47,6.47,0,0,1,2.86,2.68,9.09,9.09,0,0,1,0,8.17,6.63,6.63,0,0,1-2.84,2.73,10.17,10.17,0,0,1-4.66,1h-6.07V190.31Z"/><path d="M442.54,231.3l-17.18-50.91H409L391.8,231.3H405l3.35-10.69H426l3.35,10.69Zm-31.23-20,5.65-18h.4l5.66,18Z"/><path d="M349.83,334.14h8V321.91a23.17,23.17,0,0,1,46.34,0v12.23h8V321.91a31.17,31.17,0,0,0-62.34,0Z"/><path d="M427.41,340.19H334.59v65h92.82Zm-42.28,35.9V386.9h-8.26V376.09a8.83,8.83,0,1,1,8.26,0Z"/><path d="M462.08,128.87a243.86,243.86,0,0,0-270.57-50.6c3.62,0,7.12,0,10.49,0a239.42,239.42,0,0,1,257.25,392,244.25,244.25,0,0,1-25.36,22.07c.09,2.62-.07,3.49,0,5A245.7,245.7,0,0,0,462.08,473a243.35,243.35,0,0,0,0-344.16Z"/><path d="M312.11,539.29q-11,1-22.11,1A239.63,239.63,0,0,1,61.93,228l.42-1.35c.37-1.12.75-2.24,1.13-3.35,0-.12-2-5.33-2.18-5.87A243.49,243.49,0,0,0,290,544.31,249.81,249.81,0,0,0,315.45,543l-2-2A9,9,0,0,1,312.11,539.29Z"/><path d="M75.07,249.05a33.79,33.79,0,0,0-2.51-2.35,54.34,54.34,0,0,1-4.07-3.86A229.27,229.27,0,0,0,61,301.1c0,126.47,102.53,229,229,229q9.86,0,19.5-.84a46.24,46.24,0,0,1-.15-8c-6.41.55-12.85.85-19.35.85A221.2,221.2,0,0,1,75.13,249.19Z"/><path d="M519,301.1c0-126.48-102.53-229-229-229a228.64,228.64,0,0,0-72.49,11.72l0,2.46-.08,6a221,221,0,0,1,231,362.89c-9.26,9.5-6,6.51-12.38,11.76.14,3.67.15,8.38.13,10.44A228.51,228.51,0,0,0,519,301.1Z"/><path d="M430.2,513.78l-1-2a12.51,12.51,0,0,0-6.14,0c-1.54-3.58,1-8.19-1.54-11.26-3.07-1,.51-5.12,1.54-6.15,1.53-1.53,4.09-5.63,4.6-8.19a67.57,67.57,0,0,0,.52-10.24c0-2.05.51-7.17-1-8.2.51-.51,1.54-1,2.05-1.53.51-1,1.54-2.05,1.54-3.08,0-6.14,15.87-7.68,8.19-15.36-2-1.54-4.1-2.56-6.66-4.61h-1.53c-1.54-1.54-1-4.61-3.08-6.66l.52-1a51.49,51.49,0,0,0-9.22-12.29c0-1.54-.51-4.1,0-6.15l-6.65-5.81H328.59V337.74C276,291.44,217.94,240.07,207.43,229.56l2-143.39c-10.64.12-22.44.13-34.5,0l-7.18,0h-.46l-3.62,0h-.12l-3.53,0h-.37l-3.6,0h-.29l-3.52,0h-.16l-3.55,0h-.5l-3.43-.06h-.06l-3.52-.06h-.46l-6.83-.13h-.5l-6.58-.15h-.52L123,85.45h-.22l-3-.07h-.41l-3-.08h-.31l-2.81-.08H113l-2.81-.08-.51,0L107,85h-.09l-2.68-.09h-.46l-2.52-.09h0l-2.43-.1h-.45l-2.3-.1h-.17l-2-.09-.48,0-2-.1h-.31l-1.69-.09h-.33l-1.75-.1-.29,0-1.46-.09h-.23L83.9,84l-.31,0-1.18-.09h-.14l-1.14-.1-.23,0-1-.1-1.53.51-19.46-1h0l.07.51.44,3.07c-.23,0-.35.59-.47,1.38-.06.45-.12,1-.2,1.48a10.54,10.54,0,0,1-.36,1.75c-.44.9-.79,1.3-1,1.65a1.11,1.11,0,0,0-.1.29s0,.1,0,.15a4.26,4.26,0,0,0,.56,1.5,1.27,1.27,0,0,0,.47.52c.52.31,1.2.12,1.58.5a11.07,11.07,0,0,1,1.22,2.62c.32,1,.57,2,.83,3a26.63,26.63,0,0,0,.25,3.08,24.29,24.29,0,0,1,.26,3.07c0,.77,0,1.5.07,2.22,0,.38,0,.76.07,1.13,0,.68.07,1.35.08,2v0a18.79,18.79,0,0,1-.23,3.29,27.44,27.44,0,0,1-1,2.65c-.11.3-.23.6-.36.92-1,2.54-2.11,5.71-2,7.66a1.87,1.87,0,0,0,.76,1.58.84.84,0,0,1,.53.73,4.27,4.27,0,0,1,0,1.49,28.85,28.85,0,0,1-1.75,5.46c-1.08,2.7-2.46,5.64-3.62,8l-.37.77-.69,1.4c-.73,1.5-1.22,2.49-1.22,2.6-2.3,5.38-3,8.09-2.92,9.71,0,2.28,1.48,2.37,1.51,4.7a7.63,7.63,0,0,1-.13,1.47,4.38,4.38,0,0,1-.3,1.45,3.32,3.32,0,0,0-.21,1.11c1.15.77,4,3.84,5.62,5.33a3.64,3.64,0,0,0,1,.81l.7.69.57.55c.17.18.33.34.47.5a4.28,4.28,0,0,1,.53.78,2.09,2.09,0,0,1,.14.3,5.91,5.91,0,0,1,.36,1.14c0,.15.07.32.11.49.06.35.13.74.19,1.19,1.15.19,2.52,1.53,3.81,3.3a31.71,31.71,0,0,1,4,7.6,9.94,9.94,0,0,1,.38,1.39q0,.31,0,.63l0,.21a3,3,0,0,0,.06.42,2,2,0,0,0,0,.24c0,.13.05.26.09.39s0,.16.07.25.07.24.11.37a2.41,2.41,0,0,0,.08.25c0,.12.08.25.13.37l.09.25.15.39.09.22.19.48c.81,1.95,1.68,3.95,1.39,6.28l.51,20c1,0,2.56,8.2-.51,9.22,1.53,6.15,9.73,9.73,11.26,13.83.51,2.05,3.08,3.58,3.08,5.63a85.77,85.77,0,0,1,8.19,6.15h-.51v.51c1,1.54,2.56,4.1,2,6.14l.51,1v-.51c2-.52,3.07,2.05,3.07,3.58,0,0,0,.51-.51-.51h-.51c0,4.1,3.58,3.58-1.54,11.78h2l-.51-.51v-.52l1-1v-1l1.54-1-.52.51.52,1v.51c2.56-.51,4.61,1.54,5.12,4.1,1,.51,2,2,3.07,2.56l.51-1,1,.51c1,1.54,3.07,2.05,4.09,3.59l1.27.84h0l0,0a1.13,1.13,0,0,0-.26.16V289c-3.08.51,1.53,6.65-1.54,9.73.51,1.53,0,3.07,1,4.6,3.58,0,3.58,10.25,2.56,12.81l1,2.56a6.85,6.85,0,0,1,3.07,3.58h.51c2,1.54,4.1,6.66,6.15,6.66,1.54,1.54,3.07,2.56,5.12.51a1.59,1.59,0,0,0,1,.51l1.53-1c2.05,0,5.64,7.68,5.64,7.68l-.52,2.56v.51l-.51.52c.51,2.56-1,4.61-2.56,6.14h-.51c-.51-.51-1-1.53-1.54-1.53l-1.53,3.07a1.87,1.87,0,0,0,1.53.51c.51.51.51,1,.51,2.05h-.51l-.51.51c.51,1,0,2.05,1,3.07,0,1,.52,1.54.52,2.56.51,1.54,1,3.59.51,5.13a7.25,7.25,0,0,1,2,1.53v1c1,1.53,5.63,1.53,10.24,11.77a3.66,3.66,0,0,1,3.07,1.54c.51,1.54.51,5.12,1.54,5.63,2.56,2.05,3.58,2.56,4.61,6.15v2.05l1,2.05c1,0,2.56,1,3.59,1.53v-.51c1.53-.51,3.07,3.59,3.58,4.61,1.54,2.56,3.07,4.1,5.63,4.61,3.59,1,3.08,3.58,3.08,3.58l-1.54,5.12c0,1,.51,1.54,1,2.56l4.61,2.57h.52v-1c1-.51,3.07,1,4.09,1.54,1.54,5.63-1,6.65-1,11.26l1,.52,1,2c0,3.59-1.54,3.08,0,6.66,1,2.05-3.08,5.12-.52,7.68,2.05-.51,3.08.52,4.61,1.54a10.48,10.48,0,0,0,2.05,4.1c2-2.05,13.32-1,15.88-1s2,.51,4.09,1,3.08,1.53,5.13.51c1.53-.51,4.09,2.05,5.12.51,3.58-1,9.73,1.54,11.77,4.61,1.54,0,2.05,1,2.57,2.05,1,0,1.53,0,2,.51a2.22,2.22,0,0,1,.52,1.54c.51,1.53.51,3.07,1.53,4.09l.51-.51c0,1.54,3.08,3.07,4.1,2.56,0,0,.51-.51,1,.51,1.53.52,9.21,3.08,10.24,4.1,1-1.54,3.58-1.54,5.12-1.54,3.58-.51,5.12-1.53,7.68,2.05,1.54,2.05,4.61,6.15,3.59,8.71H272l-1,1.54c0,1.53,2.05,2,3.07,2,.51,1,.51.52,1.54,1v.51h1v-2.56c-.51,0,1.54-.51,1.54-.51l1.53.51a9.1,9.1,0,0,1,3.08.51c1,.51,6.14,6.66,9.73,7.17a9.73,9.73,0,0,1,4.09,2.56c3.59,3.59,7.17,6.15,11.27,9.73,1.54,1.54,2.56,3.59,4.1,4.61,0,2,8.19,12.29,6.66,17.92H318c-2.05,0,.52,3.08,1,3.59,0,0-1,4.1,0,5.12h.51c-.51-2,4.1,3.59,4.1,5.63l.51,1,97.3-12.8c.51-1,1.54-.52,3.07,0a22,22,0,0,1,2.56-.52c.51-1,3.08-2.56,3.08-2.56.51-2.56,2-3.58,2-5.63a21.76,21.76,0,0,0-1-5.63ZM128.56,299.72a9.69,9.69,0,0,0-.37-3.37A4.94,4.94,0,0,0,127,294.6a4.94,4.94,0,0,1,1.16,1.75,9.69,9.69,0,0,1,.37,3.37l1.54,4.1Zm.65,3.36h0Zm-7.4-17.54a1,1,0,0,1,.16,1.23A1,1,0,0,0,121.81,285.54Zm.23-6a.69.69,0,0,0,.2,0A.69.69,0,0,1,122,279.56Zm-.55-.07a1.78,1.78,0,0,0,.44.08A1.78,1.78,0,0,1,121.49,279.49Zm-.61-.25.51.22Zm.82,6.15a4,4,0,0,1-.22-.37A4,4,0,0,0,121.7,285.39Zm-.82-6.15-.26.76.26-.76Zm-2,3.07.26-.51-.26.51Zm.38,8.48c0-.2,0-.4,0-.61C119.22,290.39,119.21,290.59,119.21,290.79Zm.13-5.92Zm3.12,3a1.46,1.46,0,0,0-.56-1h0A1.46,1.46,0,0,1,122.46,287.88Zm-.1-8.38.21-.09Zm1.08-.78.51-1-.51,1q-.21.21-.39.36Q123.23,278.93,123.44,278.72Zm-.5.45-.24.17Zm-4.24-5.89a1.31,1.31,0,0,1-.55.64,1.31,1.31,0,0,0,.55-.64,3.29,3.29,0,0,0,.13-1.21h0A3.29,3.29,0,0,1,118.7,273.28Zm-3.65.71v0Zm.07,0h0Zm-.07.09v0Zm.07.21a.14.14,0,0,0,0,.06A.14.14,0,0,1,115.12,274.3Zm.11.25,0,.1Zm.14.31a1.17,1.17,0,0,1,0,.11A1.17,1.17,0,0,0,115.37,274.86Zm.16.34.06.12Zm-.28-1.09a3.11,3.11,0,0,0,2-.51A3.11,3.11,0,0,1,115.25,274.11Zm1,8.71h0c-.51-.77-.64-1.15-.45-1.41a1.26,1.26,0,0,1,.52-.32,1.26,1.26,0,0,0-.52.32C115.63,281.67,115.76,282.05,116.27,282.82Zm1.54,2.56a3.45,3.45,0,0,1-.34-.19,3.45,3.45,0,0,0,.34.19l.51.51Zm1.4,4.46a2.14,2.14,0,0,0-.41-1.2A2.14,2.14,0,0,1,119.21,289.84Zm0,4.76.17-.51v-1.54h0v1.54Zm2.22-4.1Zm.68.47-.07-.05Zm-.41-.26,0,0Zm1.42.78,0,0Zm-.52-.26-.06,0Zm1.69.73-.08,0Zm-.57-.21-.09,0Zm1.3,2.34h0v-.52h0Zm0-1.54h.51l.51.51v-.51l-.51-.51h0l.51.51h0v.51l-.51-.51Zm.31-.43h0Zm-.15,0h0Zm-.43-.05h0Zm2.16,10.22a1.36,1.36,0,0,0-.12.12A1.36,1.36,0,0,1,126.87,302.31Zm1,.28-.07,0Zm-.21-.18-.08-.05Zm-.21-.13-.09,0Zm-.21-.07h0Zm-.17,0-.11,0ZM116.4,279.36a8.12,8.12,0,0,0-1.66-.64A8.12,8.12,0,0,1,116.4,279.36Zm-.64,6.53.51-.51-.51.51h0Zm.73,1.05c.06.19.12.47.29,1l0,0c.34,0,.7,0,1.06,0-.37,0-.74,0-1.08,0l0,0h0l0,0C116.61,287.41,116.55,287.13,116.49,286.94Zm-.16-.29a.76.76,0,0,1,.12.19A.76.76,0,0,0,116.33,286.65Zm5.57,12.56a3.79,3.79,0,0,0,.22.36A3.79,3.79,0,0,1,121.9,299.21Zm.29.45a1.17,1.17,0,0,0,.15.16A1.17,1.17,0,0,1,122.19,299.66Zm.24.23a.38.38,0,0,0,.15.09A.38.38,0,0,1,122.43,299.89Zm.24.13.17,0Zm.27,0a1.34,1.34,0,0,0,.41-.08A1.34,1.34,0,0,1,122.94,300.05Zm.5-.11a5.23,5.23,0,0,0,.51-.22A5.23,5.23,0,0,1,123.44,299.94Zm3.07,2.85a1.83,1.83,0,0,1,.18-.29A1.83,1.83,0,0,0,126.51,302.79Zm2,.51a.56.56,0,0,0,.2,0,.56.56,0,0,1-.2,0Zm.26-.05.11-.05Zm.52-.13,0,0Zm1.3,2.29a1.16,1.16,0,0,0,.34.24A1.16,1.16,0,0,1,130.64,305.41Zm1.68.45a4.25,4.25,0,0,1-1.14-.13,4.25,4.25,0,0,0,1.14.13h0Z"/></svg>