<svg id="Layer_1" data-name="Layer 1" xmlns="http://www.w3.org/2000/svg" viewBox="50.57 54.81 490.72 490.72"><polygon points="280.4 161.9 297.13 149.73 313.87 161.9 307.48 142.22 324.22 130.06 303.53 130.06 297.13 110.38 290.74 130.06 270.05 130.06 286.79 142.22 280.4 161.9"/><polygon points="303.53 459.68 297.13 440 290.74 459.68 270.05 459.68 286.79 471.84 280.4 491.52 297.13 479.35 313.87 491.52 307.48 471.84 324.22 459.68 303.53 459.68"/><polygon points="227.64 417.53 210.85 429.63 194.16 417.4 200.48 437.11 183.69 449.2 204.38 449.29 210.7 468.99 217.17 449.33 237.86 449.42 221.17 437.19 227.64 417.53"/><polygon points="168.35 360.33 151.56 372.43 134.87 360.2 141.19 379.91 124.4 392 145.09 392.09 151.41 411.79 157.88 392.13 178.57 392.21 161.88 379.99 168.35 360.33"/><polygon points="391.54 435.78 391.34 415.09 379.34 431.95 359.6 425.75 371.93 442.37 359.94 459.23 379.55 452.64 391.88 469.26 391.67 448.56 411.28 441.98 391.54 435.78"/><polygon points="448.54 355.8 436.54 372.66 416.8 366.46 429.13 383.08 417.13 399.94 436.75 393.35 449.08 409.97 448.87 389.28 468.48 382.69 448.74 376.49 448.54 355.8"/><polygon points="468.34 287.56 461.95 267.88 455.56 287.56 434.87 287.56 451.6 299.72 445.21 319.4 461.95 307.24 478.69 319.4 472.29 299.72 489.03 287.56 468.34 287.56"/><polygon points="132.32 307.24 149.06 319.4 142.67 299.72 159.41 287.56 138.72 287.56 132.32 267.88 125.93 287.56 105.24 287.56 121.98 299.72 115.58 319.4 132.32 307.24"/><polygon points="421.22 238.04 437.96 225.87 454.7 238.04 448.3 218.36 465.04 206.2 444.35 206.2 437.96 186.52 431.56 206.2 410.87 206.2 427.61 218.36 421.22 238.04"/><polygon points="363.98 181.84 380.71 169.68 397.45 181.84 391.06 162.16 407.8 150 387.11 150 380.71 130.32 374.32 150 353.63 150 370.37 162.16 363.98 181.84"/><polygon points="205.5 184.64 217.77 167.98 237.4 174.5 225.35 157.68 237.62 141.02 217.9 147.29 205.85 130.47 205.71 151.16 186 157.43 205.63 163.95 205.5 184.64"/><polygon points="160.66 204.53 148.61 187.71 148.47 208.4 128.75 214.67 148.39 221.19 148.25 241.88 160.53 225.22 180.16 231.74 168.11 214.93 180.38 198.26 160.66 204.53"/><path d="M221.73,309.48H231.8a9.08,9.08,0,0,1-1.2,4.52,8,8,0,0,1-3.57,3.15,13.46,13.46,0,0,1-5.73,1.1,10.7,10.7,0,0,1-10.61-7.08,22.08,22.08,0,0,1-1.42-8.35,20.91,20.91,0,0,1,1.47-8.29,11.45,11.45,0,0,1,4.16-5.21,11.25,11.25,0,0,1,6.4-1.79,12.36,12.36,0,0,1,3.38.43,9,9,0,0,1,2.74,1.28,8.16,8.16,0,0,1,2,2.05,9,9,0,0,1,1.24,2.78h12.46a18,18,0,0,0-2.29-7,19,19,0,0,0-4.78-5.49A22.19,22.19,0,0,0,229.3,278a25.93,25.93,0,0,0-8.25-1.27,25.66,25.66,0,0,0-9.5,1.74,22.39,22.39,0,0,0-7.76,5.12,23.58,23.58,0,0,0-5.21,8.24A31,31,0,0,0,196.72,303a29.53,29.53,0,0,0,3.08,13.91,21.81,21.81,0,0,0,8.6,9A25.29,25.29,0,0,0,221.2,329a25,25,0,0,0,11.63-2.61,19.43,19.43,0,0,0,7.95-7.48,22.52,22.52,0,0,0,2.9-11.71V300.5h-22Z"/><path d="M286.65,325.3a20.91,20.91,0,0,0,8.69-8.76,32.09,32.09,0,0,0,0-27.31,21,21,0,0,0-8.68-8.75,27.84,27.84,0,0,0-13.41-3h-18.8v50.9h18.82A27.82,27.82,0,0,0,286.65,325.3Zm-19.91-7.45V287.93h5.86a16.75,16.75,0,0,1,7.37,1.45,9.58,9.58,0,0,1,4.54,4.72,20.77,20.77,0,0,1,1.54,8.77,21.06,21.06,0,0,1-1.53,8.78,9.53,9.53,0,0,1-4.5,4.75,16.34,16.34,0,0,1-7.24,1.45Z"/><path d="M339.25,279.66a20.7,20.7,0,0,0-9.88-2.22h-21v50.9h12.3v-15.8H329a22,22,0,0,0,10.09-2.17,15.53,15.53,0,0,0,6.55-6.1,18,18,0,0,0,2.3-9.21,18.33,18.33,0,0,0-2.26-9.21A15.79,15.79,0,0,0,339.25,279.66Zm-5,19.49a6.69,6.69,0,0,1-2.85,2.72,10,10,0,0,1-4.66,1h-6.07V287.35h6.07a10.33,10.33,0,0,1,4.65.95,6.56,6.56,0,0,1,2.86,2.67,9.11,9.11,0,0,1,0,8.18Z"/><path d="M369.78,310.92h6.31l9.3,17.42h13.43L388.26,309a14.81,14.81,0,0,0,6.51-5.59,16.65,16.65,0,0,0,2.31-9,17.5,17.5,0,0,0-2.26-9,14.92,14.92,0,0,0-6.43-5.86,22.11,22.11,0,0,0-9.88-2.05h-21v50.9h12.3Zm6.07-23.57a12.2,12.2,0,0,1,4.65.79,6,6,0,0,1,2.86,2.33,7.35,7.35,0,0,1,1,3.92,7.06,7.06,0,0,1-1,3.86,5.76,5.76,0,0,1-2.85,2.24,12.84,12.84,0,0,1-4.66.73h-6.07V287.35Z"/><circle cx="296.69" cy="301" r="229" fill="none" stroke="currentColor" stroke-width="6"/><circle cx="296.69" cy="301" r="243.36" fill="none" stroke="currentColor" stroke-width="2"/></svg>